<?xml version="1.0" encoding="UTF-8" standalone="no"?>
<!-- Created with Inkscape (http://www.inkscape.org/) -->

<svg
   xmlns:ns0="http://www.iki.fi/pav/software/textext/"
   xmlns:dc="http://purl.org/dc/elements/1.1/"
   xmlns:cc="http://creativecommons.org/ns#"
   xmlns:rdf="http://www.w3.org/1999/02/22-rdf-syntax-ns#"
   xmlns:svg="http://www.w3.org/2000/svg"
   xmlns="http://www.w3.org/2000/svg"
   xmlns:sodipodi="http://sodipodi.sourceforge.net/DTD/sodipodi-0.dtd"
   xmlns:inkscape="http://www.inkscape.org/namespaces/inkscape"
   width="215.36444"
   height="120.57882"
   id="svg2"
   version="1.1"
   inkscape:version="0.48.4 r9939"
   sodipodi:docname="DCJ_events_a.pdf">
  <sodipodi:namedview
     id="base"
     pagecolor="#ffffff"
     bordercolor="#666666"
     borderopacity="1.0"
     inkscape:pageopacity="0.0"
     inkscape:pageshadow="2"
     inkscape:zoom="3.959798"
     inkscape:cx="119.88255"
     inkscape:cy="41.277388"
     inkscape:document-units="px"
     inkscape:current-layer="layer1"
     showgrid="false"
     inkscape:window-width="1535"
     inkscape:window-height="876"
     inkscape:window-x="65"
     inkscape:window-y="24"
     inkscape:window-maximized="1"
     fit-margin-top="0"
     fit-margin-left="0"
     fit-margin-right="0"
     fit-margin-bottom="0" />
  <defs
     id="defs4">
    <marker
       style="overflow:visible"
       id="TriangleInM"
       refX="0"
       refY="0"
       orient="auto"
       inkscape:stockid="TriangleInM">
      <path
         inkscape:connector-curvature="0"
         transform="scale(-0.4,-0.4)"
         style="fill-rule:evenodd;stroke:#000000;stroke-width:1pt"
         d="m 5.77,0 -8.65,5 0,-10 8.65,5 z"
         id="path4169" />
    </marker>
    <marker
       inkscape:stockid="TriangleOutM"
       orient="auto"
       refY="0"
       refX="0"
       id="TriangleOutM"
       style="overflow:visible">
      <path
         inkscape:connector-curvature="0"
         id="path3906"
         d="m 5.77,0 -8.65,5 0,-10 8.65,5 z"
         style="fill-rule:evenodd;stroke:#000000;stroke-width:1pt"
         transform="scale(0.4,0.4)" />
    </marker>
    <marker
       inkscape:stockid="Arrow2Lend"
       orient="auto"
       refY="0"
       refX="0"
       id="Arrow2Lend"
       style="overflow:visible">
      <path
         inkscape:connector-curvature="0"
         id="path3782"
         style="fill-rule:evenodd;stroke-width:0.625;stroke-linejoin:round"
         d="M 8.7185878,4.0337352 -2.2072895,0.01601326 8.7185884,-4.0017078 c -1.7454984,2.3720609 -1.7354408,5.6174519 -6e-7,8.035443 z"
         transform="matrix(-1.1,0,0,-1.1,-1.1,0)" />
    </marker>
    <marker
       inkscape:stockid="Arrow2Lstart"
       orient="auto"
       refY="0"
       refX="0"
       id="Arrow2Lstart"
       style="overflow:visible">
      <path
         inkscape:connector-curvature="0"
         id="path3779"
         style="fill-rule:evenodd;stroke-width:0.625;stroke-linejoin:round"
         d="M 8.7185878,4.0337352 -2.2072895,0.01601326 8.7185884,-4.0017078 c -1.7454984,2.3720609 -1.7354408,5.6174519 -6e-7,8.035443 z"
         transform="matrix(1.1,0,0,1.1,1.1,0)" />
    </marker>
    <marker
       inkscape:stockid="Arrow1Lend"
       orient="auto"
       refY="0"
       refX="0"
       id="Arrow1Lend"
       style="overflow:visible">
      <path
         inkscape:connector-curvature="0"
         id="path3764"
         d="M 0,0 5,-5 -12.5,0 5,5 0,0 z"
         style="fill-rule:evenodd;stroke:#000000;stroke-width:1pt"
         transform="matrix(-0.8,0,0,-0.8,-10,0)" />
    </marker>
    <marker
       inkscape:stockid="TriangleOutL"
       orient="auto"
       refY="0"
       refX="0"
       id="TriangleOutL"
       style="overflow:visible">
      <path
         inkscape:connector-curvature="0"
         id="path3903"
         d="m 5.77,0 -8.65,5 0,-10 8.65,5 z"
         style="fill-rule:evenodd;stroke:#000000;stroke-width:1pt"
         transform="scale(0.8,0.8)" />
    </marker>
    <marker
       inkscape:stockid="TriangleOutM"
       orient="auto"
       refY="0"
       refX="0"
       id="TriangleOutM-4"
       style="overflow:visible">
      <path
         inkscape:connector-curvature="0"
         id="path3906-6"
         d="m 5.77,0 -8.65,5 0,-10 8.65,5 z"
         style="fill-rule:evenodd;stroke:#000000;stroke-width:1pt"
         transform="scale(0.4,0.4)" />
    </marker>
    <marker
       inkscape:stockid="TriangleOutM"
       orient="auto"
       refY="0"
       refX="0"
       id="TriangleOutM-5"
       style="overflow:visible">
      <path
         inkscape:connector-curvature="0"
         id="path3906-7"
         d="m 5.77,0 -8.65,5 0,-10 8.65,5 z"
         style="fill-rule:evenodd;stroke:#000000;stroke-width:1pt"
         transform="scale(0.4,0.4)" />
    </marker>
    <marker
       inkscape:stockid="TriangleOutM"
       orient="auto"
       refY="0"
       refX="0"
       id="TriangleOutM-2"
       style="overflow:visible">
      <path
         id="path3906-8"
         d="m 5.77,0 -8.65,5 0,-10 8.65,5 z"
         style="fill-rule:evenodd;stroke:#000000;stroke-width:1pt"
         transform="scale(0.4,0.4)"
         inkscape:connector-curvature="0" />
    </marker>
    <marker
       inkscape:stockid="TriangleOutM"
       orient="auto"
       refY="0"
       refX="0"
       id="marker6033"
       style="overflow:visible">
      <path
         id="path6035"
         d="m 5.77,0 -8.65,5 0,-10 8.65,5 z"
         style="fill-rule:evenodd;stroke:#000000;stroke-width:1pt"
         transform="scale(0.4,0.4)"
         inkscape:connector-curvature="0" />
    </marker>
    <marker
       style="overflow:visible"
       id="TriangleInM-1"
       refX="0"
       refY="0"
       orient="auto"
       inkscape:stockid="TriangleInM">
      <path
         inkscape:connector-curvature="0"
         transform="scale(-0.4,-0.4)"
         style="fill-rule:evenodd;stroke:#000000;stroke-width:1pt"
         d="m 5.77,0 -8.65,5 0,-10 8.65,5 z"
         id="path4169-6" />
    </marker>
    <marker
       inkscape:stockid="TriangleOutM"
       orient="auto"
       refY="0"
       refX="0"
       id="marker6033-7"
       style="overflow:visible">
      <path
         id="path6035-3"
         d="m 5.77,0 -8.65,5 0,-10 8.65,5 z"
         style="fill-rule:evenodd;stroke:#000000;stroke-width:1pt"
         transform="scale(0.4,0.4)"
         inkscape:connector-curvature="0" />
    </marker>
    <marker
       style="overflow:visible"
       id="TriangleInM-0"
       refX="0"
       refY="0"
       orient="auto"
       inkscape:stockid="TriangleInM">
      <path
         inkscape:connector-curvature="0"
         transform="scale(-0.4,-0.4)"
         style="fill-rule:evenodd;stroke:#000000;stroke-width:1pt"
         d="m 5.77,0 -8.65,5 0,-10 8.65,5 z"
         id="path4169-9" />
    </marker>
    <marker
       inkscape:stockid="TriangleOutM"
       orient="auto"
       refY="0"
       refX="0"
       id="marker6033-4"
       style="overflow:visible">
      <path
         id="path6035-1"
         d="m 5.77,0 -8.65,5 0,-10 8.65,5 z"
         style="fill-rule:evenodd;stroke:#000000;stroke-width:1pt"
         transform="scale(0.4,0.4)"
         inkscape:connector-curvature="0" />
    </marker>
    <marker
       inkscape:stockid="TriangleInM"
       orient="auto"
       refY="0"
       refX="0"
       id="TriangleInM-3"
       style="overflow:visible">
      <path
         id="path4169-99"
         d="m 5.77,0 -8.65,5 0,-10 8.65,5 z"
         style="fill-rule:evenodd;stroke:#000000;stroke-width:1pt"
         transform="scale(-0.4,-0.4)"
         inkscape:connector-curvature="0" />
    </marker>
    <marker
       style="overflow:visible"
       id="marker6033-8"
       refX="0"
       refY="0"
       orient="auto"
       inkscape:stockid="TriangleOutM">
      <path
         inkscape:connector-curvature="0"
         transform="scale(0.4,0.4)"
         style="fill-rule:evenodd;stroke:#000000;stroke-width:1pt"
         d="m 5.77,0 -8.65,5 0,-10 8.65,5 z"
         id="path6035-7" />
    </marker>
    <marker
       inkscape:stockid="TriangleInM"
       orient="auto"
       refY="0"
       refX="0"
       id="TriangleInM-33"
       style="overflow:visible">
      <path
         id="path4169-63"
         d="m 5.77,0 -8.65,5 0,-10 8.65,5 z"
         style="fill-rule:evenodd;stroke:#000000;stroke-width:1pt"
         transform="scale(-0.4,-0.4)"
         inkscape:connector-curvature="0" />
    </marker>
    <marker
       style="overflow:visible"
       id="marker6033-2"
       refX="0"
       refY="0"
       orient="auto"
       inkscape:stockid="TriangleOutM">
      <path
         inkscape:connector-curvature="0"
         transform="scale(0.4,0.4)"
         style="fill-rule:evenodd;stroke:#000000;stroke-width:1pt"
         d="m 5.77,0 -8.65,5 0,-10 8.65,5 z"
         id="path6035-5" />
    </marker>
    <marker
       style="overflow:visible"
       id="TriangleInM-9"
       refX="0"
       refY="0"
       orient="auto"
       inkscape:stockid="TriangleInM">
      <path
         inkscape:connector-curvature="0"
         transform="scale(-0.4,-0.4)"
         style="fill-rule:evenodd;stroke:#000000;stroke-width:1pt"
         d="m 5.77,0 -8.65,5 0,-10 8.65,5 z"
         id="path4169-4" />
    </marker>
    <marker
       inkscape:stockid="TriangleOutM"
       orient="auto"
       refY="0"
       refX="0"
       id="marker6033-1"
       style="overflow:visible">
      <path
         id="path6035-9"
         d="m 5.77,0 -8.65,5 0,-10 8.65,5 z"
         style="fill-rule:evenodd;stroke:#000000;stroke-width:1pt"
         transform="scale(0.4,0.4)"
         inkscape:connector-curvature="0" />
    </marker>
  </defs>
  <metadata
     id="metadata7">
    <rdf:RDF>
      <cc:Work
         rdf:about="">
        <dc:format>image/svg+xml</dc:format>
        <dc:type
           rdf:resource="http://purl.org/dc/dcmitype/StillImage" />
        <dc:title></dc:title>
      </cc:Work>
    </rdf:RDF>
  </metadata>
  <g
     transform="translate(-5.7339681,-47.73698)"
     inkscape:label="Layer 1"
     inkscape:groupmode="layer"
     id="layer1">
    <path
       style="fill:none;stroke:#000000;stroke-width:2.4000001;stroke-linecap:butt;stroke-linejoin:miter;stroke-miterlimit:4;stroke-opacity:1;stroke-dasharray:none"
       d="m 41.371271,58.6204 0.08997,6.82696"
       id="path5747"
       inkscape:connector-curvature="0" />
    <g
       style="font-style:normal;font-variant:normal;font-weight:normal;font-stretch:normal;letter-spacing:normal;word-spacing:normal;text-anchor:start;fill:none;stroke:#000000;stroke-linecap:butt;stroke-linejoin:miter;stroke-miterlimit:10.43299961;stroke-opacity:1;stroke-dasharray:none;stroke-dashoffset:0"
       id="content"
       transform="matrix(1,0,0,-1,-193.434,762.37437)"
       xml:space="preserve"
       stroke-miterlimit="10.433"
       font-style="normal"
       font-variant="normal"
       font-weight="normal"
       font-stretch="normal"
       font-size-adjust="none"
       letter-spacing="normal"
       word-spacing="normal"
       ns0:text="$\\{p,q\\}$"
       ns0:preamble=""><path
         style="fill:#000000;stroke-width:0"
         inkscape:connector-curvature="0"
         d="m 226.25,713.25 0,0.04 0,0.04 0.01,0.04 0,0.04 0.01,0.04 0.01,0.05 0.01,0.04 0.02,0.04 0.01,0.05 0.02,0.04 0.02,0.05 0.03,0.04 0.02,0.04 0.03,0.04 0.04,0.05 0.03,0.04 0.04,0.04 0.04,0.04 0.05,0.04 0.05,0.03 0.05,0.04 0.06,0.03 0.06,0.03 0.06,0.03 0.07,0.03 0.07,0.02 0.08,0.03 0.08,0.02 0.04,0 0.05,0.01 0.04,0.01 0.05,0.01 0.04,0 0.05,0.01 0.05,0 0.05,0.01 c 0.05,0.01 0.09,0.05 0.09,0.11 0,0.11 -0.08,0.11 -0.19,0.11 -0.99,0 -1.9,-0.51 -1.91,-1.25 v -2.26 c 0,-0.39 0,-0.71 -0.4,-1.03 -0.34,-0.29 -0.72,-0.31 -0.94,-0.32 -0.05,-0.01 -0.09,-0.05 -0.09,-0.11 0,-0.1 0.06,-0.1 0.16,-0.11 0.65,-0.04 1.13,-0.4 1.24,-0.89 0.03,-0.1 0.03,-0.12 0.03,-0.48 v -1.97 c 0,-0.42 0,-0.73 0.48,-1.11 0.39,-0.3 1.04,-0.41 1.43,-0.41 0.11,0 0.19,0 0.19,0.11 0,0.1 -0.06,0.1 -0.16,0.11 -0.63,0.04 -1.11,0.36 -1.24,0.86 -0.03,0.09 -0.03,0.11 -0.03,0.47 v 2.09 c 0,0.45 -0.08,0.62 -0.4,0.94 -0.21,0.21 -0.5,0.31 -0.78,0.39 0.82,0.23 1.18,0.68 1.18,1.26 z"
         id="path5774" /><path
         style="fill:#000000;stroke-width:0"
         inkscape:connector-curvature="0"
         d="m 228.86,705.91 -0.01,-0.03 0,-0.03 -0.01,-0.03 -0.01,-0.02 0,-0.03 -0.01,-0.02 -0.01,-0.02 -0.01,-0.02 0,-0.02 -0.01,-0.02 -0.01,-0.02 -0.01,-0.01 -0.01,-0.02 -0.01,-0.01 -0.01,-0.02 -0.01,-0.01 -0.02,-0.01 -0.01,-0.01 -0.02,-0.01 -0.02,0 -0.01,-0.01 -0.02,-0.01 -0.03,0 -0.02,-0.01 -0.02,0 -0.03,-0.01 -0.02,0 -0.01,0 -0.02,0 -0.01,0 -0.02,0 -0.01,0 -0.02,0 -0.02,0 -0.02,0 -0.02,0 -0.02,0 -0.02,0 c -0.12,0 -0.22,0 -0.22,-0.19 0,-0.08 0.04,-0.12 0.12,-0.12 0.27,0 0.56,0.03 0.84,0.03 0.33,0 0.67,-0.03 0.98,-0.03 0.05,0 0.18,0 0.18,0.2 0,0.11 -0.1,0.11 -0.23,0.11 -0.5,0 -0.5,0.07 -0.5,0.15 0,0.12 0.41,1.74 0.49,1.99 0.12,-0.29 0.4,-0.63 0.91,-0.63 l -0.01,0.21 c -0.66,0 -0.79,0.83 -0.79,0.89 0,0.02 0,0.04 0.03,0.16 l 0.49,1.94 c 0.07,0.27 0.34,0.55 0.52,0.7 0.35,0.31 0.64,0.38 0.8,0.38 0.4,0 0.64,-0.35 0.64,-0.94 0,-0.58 -0.33,-1.72 -0.51,-2.1 -0.33,-0.7 -0.81,-1.03 -1.18,-1.03 l 0.01,-0.21 c 1.15,0 2.4,1.45 2.4,2.91 0,0.93 -0.57,1.59 -1.33,1.59 -0.49,0 -0.97,-0.36 -1.3,-0.75 -0.1,0.54 -0.53,0.75 -0.89,0.75 -0.46,0 -0.65,-0.39 -0.74,-0.57 -0.18,-0.34 -0.31,-0.93 -0.31,-0.96 0,-0.1 0.1,-0.1 0.12,-0.1 0.1,0 0.11,0.01 0.17,0.22 0.17,0.71 0.37,1.19 0.73,1.19 0.16,0 0.3,-0.08 0.3,-0.46 0,-0.23 -0.03,-0.34 -0.06,-0.51 z"
         id="path5776" /><path
         style="fill:#000000;stroke-width:0"
         inkscape:connector-curvature="0"
         d="m 235.45,707.14 -0.01,0.06 0,0.05 0,0.06 -0.01,0.06 0,0.05 -0.01,0.05 -0.01,0.06 -0.01,0.04 -0.01,0.05 -0.01,0.05 -0.02,0.04 -0.01,0.04 -0.02,0.04 -0.02,0.04 -0.02,0.04 -0.02,0.03 -0.02,0.04 -0.02,0.03 -0.03,0.02 -0.02,0.03 -0.03,0.03 -0.02,0.02 -0.03,0.02 -0.03,0.02 -0.03,0.01 -0.03,0.02 -0.03,0.01 -0.03,0.01 -0.04,0.01 -0.03,0 -0.04,0.01 -0.03,0 c -0.33,0 -0.53,-0.25 -0.53,-0.53 0,-0.27 0.2,-0.53 0.53,-0.53 0.12,0 0.25,0.04 0.35,0.13 0.03,0.02 0.04,0.03 0.05,0.03 0.01,0 0.02,-0.01 0.02,-0.14 0,-0.74 -0.35,-1.34 -0.68,-1.66 -0.11,-0.11 -0.11,-0.13 -0.11,-0.16 0,-0.07 0.05,-0.11 0.1,-0.11 0.11,0 0.91,0.76 0.91,1.93 z"
         id="path5778" /><path
         style="fill:#000000;stroke-width:0"
         inkscape:connector-curvature="0"
         d="m 242.35,711.41 0,0 0,0 0,0.01 0,0 0,0.01 0,0 0,0 0,0.01 0,0 -0.01,0.01 0,0 0,0.01 0,0 0,0 -0.01,0.01 0,0 0,0 -0.01,0.01 0,0 0,0 -0.01,0.01 0,0 -0.01,0 0,0.01 -0.01,0 0,0 -0.01,0 0,0 -0.01,0 0,0.01 -0.01,0 -0.01,0 c -0.1,0 -0.5,-0.4 -0.67,-0.69 -0.22,0.54 -0.61,0.7 -0.93,0.7 v -0.22 c 0.65,0 0.79,-0.81 0.79,-0.88 0,-0.06 -0.55,-2.23 -0.58,-2.27 -0.15,-0.28 -0.71,-0.92 -1.26,-0.92 h 0 c -0.6,0 -0.64,0.77 -0.64,0.94 0,0.48 0.29,1.56 0.46,1.98 0.31,0.73 0.82,1.15 1.23,1.15 v 0.22 c -1.17,0 -2.39,-1.47 -2.39,-2.92 0,-0.97 0.58,-1.58 1.31,-1.58 0.43,0 0.81,0.23 1.17,0.59 -0.09,-0.35 -0.42,-1.69 -0.45,-1.78 -0.08,-0.28 -0.16,-0.31 -0.71,-0.32 -0.13,0 -0.23,0 -0.23,-0.2 0,-0.01 0,-0.11 0.13,-0.11 0.32,0 0.67,0.03 0.99,0.03 0.34,0 0.7,-0.03 1.03,-0.03 0.05,0 0.18,0 0.18,0.2 0,0.11 -0.1,0.11 -0.26,0.11 -0.48,0 -0.48,0.07 -0.48,0.15 0,0.07 0.02,0.13 0.04,0.22 z"
         id="path5780" /><path
         style="fill:#000000;stroke-width:0"
         inkscape:connector-curvature="0"
         d="m 244.81,705.96 0,-0.03 -0.01,-0.04 0,-0.04 -0.01,-0.05 0,-0.04 -0.01,-0.04 -0.02,-0.04 -0.01,-0.05 -0.02,-0.04 -0.02,-0.05 -0.02,-0.04 -0.02,-0.04 -0.03,-0.05 -0.03,-0.04 -0.03,-0.04 -0.04,-0.04 -0.04,-0.04 -0.04,-0.04 -0.04,-0.04 -0.05,-0.04 -0.06,-0.03 -0.05,-0.03 -0.06,-0.03 -0.07,-0.03 -0.07,-0.03 -0.07,-0.03 -0.08,-0.02 -0.08,-0.02 -0.04,-0.01 -0.04,-0.01 -0.05,0 -0.04,-0.01 -0.05,-0.01 -0.05,0 -0.04,-0.01 -0.06,0 c -0.05,-0.01 -0.08,-0.05 -0.08,-0.11 0,-0.11 0.11,-0.11 0.19,-0.11 0.97,0 1.89,0.49 1.91,1.24 v 2.27 c 0,0.39 0,0.7 0.39,1.03 0.35,0.29 0.73,0.31 0.95,0.32 0.05,0.01 0.09,0.05 0.09,0.11 0,0.1 -0.06,0.1 -0.16,0.11 -0.66,0.04 -1.14,0.39 -1.25,0.88 -0.02,0.11 -0.02,0.13 -0.02,0.49 v 1.96 c 0,0.42 0,0.74 -0.48,1.12 -0.4,0.31 -1.09,0.41 -1.43,0.41 -0.08,0 -0.19,0 -0.19,-0.11 0,-0.1 0.05,-0.1 0.16,-0.11 0.62,-0.04 1.11,-0.36 1.24,-0.87 0.03,-0.09 0.03,-0.11 0.03,-0.46 v -2.09 c 0,-0.46 0.08,-0.63 0.4,-0.94 0.2,-0.21 0.49,-0.31 0.77,-0.39 -0.81,-0.23 -1.17,-0.69 -1.17,-1.26 z"
         id="path5782" /></g>    <path
       style="fill:none;stroke:#000000;stroke-width:2.5;stroke-linecap:square;stroke-linejoin:miter;stroke-miterlimit:3;stroke-opacity:1;stroke-dasharray:none;marker-mid:none;marker-end:none"
       d="m 17.621316,62.376309 49.242768,-0.05364"
       id="path2987-6-1"
       inkscape:connector-curvature="0" />
    <path
       style="fill:none;stroke:#000000;stroke-width:2.5;stroke-linecap:square;stroke-linejoin:miter;stroke-miterlimit:3;stroke-opacity:1;stroke-dasharray:none;marker-mid:none;marker-end:none"
       d="m 70.232862,62.341717 0.0915,-1.17e-4"
       id="path2987-6-4"
       inkscape:connector-curvature="0" />
    <path
       style="fill:none;stroke:#000000;stroke-width:2.5;stroke-linecap:square;stroke-linejoin:miter;stroke-miterlimit:3;stroke-opacity:1;stroke-dasharray:none;marker-mid:none;marker-end:none"
       d="m 73.77568,62.384561 0.0915,-1.17e-4"
       id="path2987-6-4-4"
       inkscape:connector-curvature="0" />
    <path
       style="fill:none;stroke:#000000;stroke-width:2.5;stroke-linecap:square;stroke-linejoin:miter;stroke-miterlimit:3;stroke-opacity:1;stroke-dasharray:none;marker-mid:none;marker-end:none"
       d="m 77.248895,62.339918 0.0915,-1.17e-4"
       id="path2987-6-4-5"
       inkscape:connector-curvature="0" />
    <path
       style="fill:none;stroke:#000000;stroke-width:2.5;stroke-linecap:square;stroke-linejoin:miter;stroke-miterlimit:3;stroke-opacity:1;stroke-dasharray:none;marker-mid:none;marker-end:none"
       d="m 6.9940497,62.387152 0.0915,-1.17e-4"
       id="path2987-6-4-3"
       inkscape:connector-curvature="0" />
    <path
       style="fill:none;stroke:#000000;stroke-width:2.5;stroke-linecap:square;stroke-linejoin:miter;stroke-miterlimit:3;stroke-opacity:1;stroke-dasharray:none;marker-mid:none;marker-end:none"
       d="m 10.536868,62.429996 0.0915,-1.17e-4"
       id="path2987-6-4-4-3"
       inkscape:connector-curvature="0" />
    <path
       style="fill:none;stroke:#000000;stroke-width:2.5;stroke-linecap:square;stroke-linejoin:miter;stroke-miterlimit:3;stroke-opacity:1;stroke-dasharray:none;marker-mid:none;marker-end:none"
       d="m 14.010083,62.385353 0.0915,-1.17e-4"
       id="path2987-6-4-5-3"
       inkscape:connector-curvature="0" />
    <path
       style="fill:none;stroke:#000000;stroke-width:2.4000001;stroke-linecap:butt;stroke-linejoin:miter;stroke-miterlimit:4;stroke-opacity:1;stroke-dasharray:none"
       d="m 41.361189,70.88136 0.08997,6.82696"
       id="path5747-9"
       inkscape:connector-curvature="0" />
    <g
       style="font-style:normal;font-variant:normal;font-weight:normal;font-stretch:normal;letter-spacing:normal;word-spacing:normal;text-anchor:start;fill:none;stroke:#000000;stroke-linecap:butt;stroke-linejoin:miter;stroke-miterlimit:10.43299961;stroke-opacity:1;stroke-dasharray:none;stroke-dashoffset:0"
       id="content-3"
       transform="matrix(1,0,0,-1,-193.44408,774.63534)"
       xml:space="preserve"
       stroke-miterlimit="10.433"
       font-style="normal"
       font-variant="normal"
       font-weight="normal"
       font-stretch="normal"
       font-size-adjust="none"
       letter-spacing="normal"
       word-spacing="normal"
       ns0:text="$\\{p,q\\}$"
       ns0:preamble=""><g
         ns0:preamble=""
         ns0:text="$\\{r,s\\}$"
         word-spacing="normal"
         letter-spacing="normal"
         font-size-adjust="none"
         font-stretch="normal"
         font-weight="normal"
         font-variant="normal"
         font-style="normal"
         stroke-miterlimit="10.433"
         xml:space="preserve"
         transform="translate(0.35714129,-17.969986)"
         id="g3184"
         style="font-style:normal;font-variant:normal;font-weight:normal;font-stretch:normal;letter-spacing:normal;word-spacing:normal;text-anchor:start;fill:none;stroke:#000000;stroke-linecap:butt;stroke-linejoin:miter;stroke-miterlimit:10.43299961;stroke-opacity:1;stroke-dasharray:none;stroke-dashoffset:0"><path
           id="path3186"
           d="m 226.25,713.25 0,0.04 0,0.04 0.01,0.04 0,0.04 0.01,0.04 0.01,0.05 0.01,0.04 0.02,0.04 0.01,0.05 0.02,0.04 0.02,0.05 0.03,0.04 0.02,0.04 0.03,0.04 0.04,0.05 0.03,0.04 0.04,0.04 0.04,0.04 0.05,0.04 0.05,0.03 0.05,0.04 0.06,0.03 0.06,0.03 0.06,0.03 0.07,0.03 0.07,0.02 0.08,0.03 0.08,0.02 0.04,0 0.05,0.01 0.04,0.01 0.05,0.01 0.04,0 0.05,0.01 0.05,0 0.05,0.01 c 0.05,0.01 0.09,0.05 0.09,0.11 0,0.11 -0.08,0.11 -0.19,0.11 -0.99,0 -1.9,-0.51 -1.91,-1.25 v -2.26 c 0,-0.39 0,-0.71 -0.4,-1.03 -0.34,-0.29 -0.72,-0.31 -0.94,-0.32 -0.05,-0.01 -0.09,-0.05 -0.09,-0.11 0,-0.1 0.06,-0.1 0.16,-0.11 0.65,-0.04 1.13,-0.4 1.24,-0.89 0.03,-0.1 0.03,-0.12 0.03,-0.48 v -1.97 c 0,-0.42 0,-0.73 0.48,-1.11 0.39,-0.3 1.04,-0.41 1.43,-0.41 0.11,0 0.19,0 0.19,0.11 0,0.1 -0.06,0.1 -0.16,0.11 -0.63,0.04 -1.11,0.36 -1.24,0.86 -0.03,0.09 -0.03,0.11 -0.03,0.47 v 2.09 c 0,0.45 -0.08,0.62 -0.4,0.94 -0.21,0.21 -0.5,0.31 -0.78,0.39 0.82,0.23 1.18,0.68 1.18,1.26 z"
           inkscape:connector-curvature="0"
           style="fill:#000000;stroke-width:0" /><path
           id="path3188"
           d="m 229.29,707.71 0,-0.01 -0.01,-0.02 0,-0.01 0,-0.02 -0.01,-0.03 -0.01,-0.03 -0.01,-0.03 0,-0.04 -0.01,-0.03 -0.01,-0.03 0,-0.01 0,-0.02 -0.01,-0.01 0,-0.02 0,-0.01 -0.01,-0.01 0,-0.02 0,-0.01 0,-0.01 -0.01,-0.01 0,-0.01 0,-0.01 0,-0.01 0,0 0,-0.01 0,-0.01 c 0,-0.18 0.14,-0.26 0.29,-0.26 0.12,0 0.3,0.07 0.37,0.27 0.02,0.04 0.35,1.39 0.39,1.57 0.08,0.33 0.26,1.03 0.32,1.3 0.04,0.12 0.32,0.59 0.56,0.81 0.08,0.07 0.37,0.33 0.8,0.33 0.25,0 0.4,-0.12 0.41,-0.12 -0.3,-0.05 -0.51,-0.29 -0.51,-0.55 0,-0.16 0.1,-0.35 0.37,-0.35 0.27,0 0.55,0.23 0.55,0.59 0,0.35 -0.32,0.65 -0.82,0.65 -0.65,0 -1.09,-0.49 -1.28,-0.77 -0.08,0.45 -0.44,0.77 -0.9,0.77 -0.46,0 -0.65,-0.39 -0.74,-0.57 -0.18,-0.34 -0.31,-0.93 -0.31,-0.96 0,-0.1 0.1,-0.1 0.12,-0.1 0.1,0 0.11,0.01 0.17,0.22 0.17,0.71 0.37,1.19 0.73,1.19 0.16,0 0.3,-0.08 0.3,-0.46 0,-0.21 -0.03,-0.32 -0.15,-0.83 z"
           inkscape:connector-curvature="0"
           style="fill:#000000;stroke-width:0" /><path
           id="path3190"
           d="m 234.65,707.14 0,0.06 0,0.05 -0.01,0.06 0,0.06 -0.01,0.05 -0.01,0.05 -0.01,0.06 -0.01,0.04 -0.01,0.05 -0.01,0.05 -0.01,0.04 -0.02,0.04 -0.02,0.04 -0.01,0.04 -0.02,0.04 -0.02,0.03 -0.03,0.04 -0.02,0.03 -0.02,0.02 -0.03,0.03 -0.02,0.03 -0.03,0.02 -0.03,0.02 -0.02,0.02 -0.03,0.01 -0.04,0.02 -0.03,0.01 -0.03,0.01 -0.03,0.01 -0.04,0 -0.03,0.01 -0.04,0 c -0.33,0 -0.52,-0.25 -0.52,-0.53 0,-0.27 0.19,-0.53 0.52,-0.53 0.12,0 0.25,0.04 0.35,0.13 0.03,0.02 0.04,0.03 0.05,0.03 0.01,0 0.02,-0.01 0.02,-0.14 0,-0.74 -0.35,-1.34 -0.68,-1.66 -0.11,-0.11 -0.11,-0.13 -0.11,-0.16 0,-0.07 0.05,-0.11 0.1,-0.11 0.11,0 0.91,0.76 0.91,1.93 z"
           inkscape:connector-curvature="0"
           style="fill:#000000;stroke-width:0" /><path
           id="path3192"
           d="m 240.95,710.84 -0.02,0 -0.03,0 -0.03,-0.01 -0.02,0 -0.02,-0.01 -0.03,-0.01 -0.02,0 -0.02,-0.01 -0.02,-0.01 -0.02,-0.01 -0.02,-0.02 -0.02,-0.01 -0.02,-0.01 -0.02,-0.02 -0.02,-0.01 -0.01,-0.02 -0.02,-0.01 -0.01,-0.02 -0.02,-0.01 -0.01,-0.02 -0.01,-0.02 -0.01,-0.02 -0.01,-0.02 -0.01,-0.02 -0.01,-0.02 -0.01,-0.02 0,-0.02 -0.01,-0.02 0,-0.02 0,-0.02 -0.01,-0.02 0,-0.02 c 0,-0.14 0.09,-0.29 0.31,-0.29 0.22,0 0.46,0.17 0.46,0.56 0,0.45 -0.43,0.86 -1.19,0.86 -1.31,0 -1.68,-1.02 -1.68,-1.45 0,-0.78 0.74,-0.93 1.03,-0.99 0.52,-0.1 1.03,-0.21 1.03,-0.75 0,-0.26 -0.23,-1.1 -1.42,-1.1 -0.14,0 -0.91,0 -1.13,0.53 0.37,-0.05 0.62,0.25 0.62,0.53 0,0.23 -0.16,0.35 -0.37,0.35 -0.25,0 -0.55,-0.21 -0.55,-0.66 0,-0.57 0.57,-0.96 1.42,-0.96 1.61,0 2,1.2 2,1.64 0,0.36 -0.19,0.61 -0.31,0.73 -0.27,0.28 -0.56,0.33 -0.99,0.42 -0.36,0.08 -0.76,0.15 -0.76,0.59 0,0.29 0.24,0.9 1.11,0.9 0.25,0 0.75,-0.07 0.9,-0.46 z"
           inkscape:connector-curvature="0"
           style="fill:#000000;stroke-width:0" /><path
           id="path3194"
           d="m 243.88,705.96 0,-0.03 -0.01,-0.04 0,-0.04 -0.01,-0.05 0,-0.04 -0.01,-0.04 -0.02,-0.04 -0.01,-0.05 -0.02,-0.04 -0.02,-0.05 -0.02,-0.04 -0.02,-0.04 -0.03,-0.05 -0.03,-0.04 -0.03,-0.04 -0.04,-0.04 -0.04,-0.04 -0.04,-0.04 -0.04,-0.04 -0.05,-0.04 -0.06,-0.03 -0.05,-0.03 -0.06,-0.03 -0.07,-0.03 -0.07,-0.03 -0.07,-0.03 -0.08,-0.02 -0.08,-0.02 -0.04,-0.01 -0.04,-0.01 -0.05,0 -0.04,-0.01 -0.05,-0.01 -0.05,0 -0.04,-0.01 -0.05,0 c -0.05,-0.01 -0.09,-0.05 -0.09,-0.11 0,-0.11 0.1,-0.11 0.19,-0.11 0.97,0 1.9,0.49 1.9,1.24 v 2.27 c 0,0.39 0,0.7 0.4,1.03 0.35,0.29 0.73,0.31 0.95,0.32 0.05,0.01 0.09,0.05 0.09,0.11 0,0.1 -0.06,0.1 -0.16,0.11 -0.66,0.04 -1.14,0.39 -1.25,0.88 -0.03,0.11 -0.03,0.13 -0.03,0.49 v 1.96 c 0,0.42 0,0.74 -0.47,1.12 -0.4,0.31 -1.09,0.41 -1.43,0.41 -0.09,0 -0.19,0 -0.19,-0.11 0,-0.1 0.06,-0.1 0.15,-0.11 0.63,-0.04 1.12,-0.36 1.25,-0.87 0.03,-0.09 0.03,-0.11 0.03,-0.46 v -2.09 c 0,-0.46 0.08,-0.63 0.4,-0.94 0.21,-0.21 0.49,-0.31 0.77,-0.39 -0.81,-0.23 -1.17,-0.69 -1.17,-1.26 z"
           inkscape:connector-curvature="0"
           style="fill:#000000;stroke-width:0" /></g></g>    <path
       style="fill:none;stroke:#000000;stroke-width:2.5;stroke-linecap:square;stroke-linejoin:miter;stroke-miterlimit:3;stroke-opacity:1;stroke-dasharray:none;marker-mid:none;marker-end:none"
       d="m 17.611234,74.637269 49.242765,-0.05364"
       id="path2987-6-1-85"
       inkscape:connector-curvature="0" />
    <path
       style="fill:none;stroke:#000000;stroke-width:2.5;stroke-linecap:square;stroke-linejoin:miter;stroke-miterlimit:3;stroke-opacity:1;stroke-dasharray:none;marker-mid:none;marker-end:none"
       d="m 70.222779,74.602677 0.0915,-1.17e-4"
       id="path2987-6-4-99"
       inkscape:connector-curvature="0" />
    <path
       style="fill:none;stroke:#000000;stroke-width:2.5;stroke-linecap:square;stroke-linejoin:miter;stroke-miterlimit:3;stroke-opacity:1;stroke-dasharray:none;marker-mid:none;marker-end:none"
       d="m 73.765599,74.645521 0.0915,-1.17e-4"
       id="path2987-6-4-4-9"
       inkscape:connector-curvature="0" />
    <path
       style="fill:none;stroke:#000000;stroke-width:2.5;stroke-linecap:square;stroke-linejoin:miter;stroke-miterlimit:3;stroke-opacity:1;stroke-dasharray:none;marker-mid:none;marker-end:none"
       d="m 77.238809,74.600878 0.0915,-1.17e-4"
       id="path2987-6-4-5-6"
       inkscape:connector-curvature="0" />
    <path
       style="fill:none;stroke:#000000;stroke-width:2.5;stroke-linecap:square;stroke-linejoin:miter;stroke-miterlimit:3;stroke-opacity:1;stroke-dasharray:none;marker-mid:none;marker-end:none"
       d="m 6.9839681,74.648112 0.0915,-1.17e-4"
       id="path2987-6-4-3-9"
       inkscape:connector-curvature="0" />
    <path
       style="fill:none;stroke:#000000;stroke-width:2.5;stroke-linecap:square;stroke-linejoin:miter;stroke-miterlimit:3;stroke-opacity:1;stroke-dasharray:none;marker-mid:none;marker-end:none"
       d="m 10.526786,74.690956 0.0915,-1.17e-4"
       id="path2987-6-4-4-3-1"
       inkscape:connector-curvature="0" />
    <path
       style="fill:none;stroke:#000000;stroke-width:2.5;stroke-linecap:square;stroke-linejoin:miter;stroke-miterlimit:3;stroke-opacity:1;stroke-dasharray:none;marker-mid:none;marker-end:none"
       d="m 14.000001,74.646313 0.0915,-1.17e-4"
       id="path2987-6-4-5-3-5"
       inkscape:connector-curvature="0" />
    <path
       style="fill:none;stroke:#000000;stroke-width:2.4000001;stroke-linecap:butt;stroke-linejoin:miter;stroke-miterlimit:4;stroke-opacity:1;stroke-dasharray:none"
       d="m 183.87929,58.56301 0.09,6.82696"
       id="path5747-5"
       inkscape:connector-curvature="0" />
    <path
       style="fill:none;stroke:#000000;stroke-width:2.5;stroke-linecap:square;stroke-linejoin:miter;stroke-miterlimit:3;stroke-opacity:1;stroke-dasharray:none;marker-mid:none;marker-end:none"
       d="m 160.12934,62.318919 49.24277,-0.05364"
       id="path2987-6-1-6"
       inkscape:connector-curvature="0" />
    <path
       style="fill:none;stroke:#000000;stroke-width:2.5;stroke-linecap:square;stroke-linejoin:miter;stroke-miterlimit:3;stroke-opacity:1;stroke-dasharray:none;marker-mid:none;marker-end:none"
       d="m 212.74088,62.284327 0.0915,-1.17e-4"
       id="path2987-6-4-41"
       inkscape:connector-curvature="0" />
    <path
       style="fill:none;stroke:#000000;stroke-width:2.5;stroke-linecap:square;stroke-linejoin:miter;stroke-miterlimit:3;stroke-opacity:1;stroke-dasharray:none;marker-mid:none;marker-end:none"
       d="m 216.2837,62.327171 0.0915,-1.17e-4"
       id="path2987-6-4-4-2"
       inkscape:connector-curvature="0" />
    <path
       style="fill:none;stroke:#000000;stroke-width:2.5;stroke-linecap:square;stroke-linejoin:miter;stroke-miterlimit:3;stroke-opacity:1;stroke-dasharray:none;marker-mid:none;marker-end:none"
       d="m 219.75691,62.282528 0.0915,-1.17e-4"
       id="path2987-6-4-5-2"
       inkscape:connector-curvature="0" />
    <path
       style="fill:none;stroke:#000000;stroke-width:2.5;stroke-linecap:square;stroke-linejoin:miter;stroke-miterlimit:3;stroke-opacity:1;stroke-dasharray:none;marker-mid:none;marker-end:none"
       d="m 149.50207,62.329762 0.0915,-1.17e-4"
       id="path2987-6-4-3-8"
       inkscape:connector-curvature="0" />
    <path
       style="fill:none;stroke:#000000;stroke-width:2.5;stroke-linecap:square;stroke-linejoin:miter;stroke-miterlimit:3;stroke-opacity:1;stroke-dasharray:none;marker-mid:none;marker-end:none"
       d="m 153.04489,62.372606 0.0915,-1.17e-4"
       id="path2987-6-4-4-3-5"
       inkscape:connector-curvature="0" />
    <path
       style="fill:none;stroke:#000000;stroke-width:2.5;stroke-linecap:square;stroke-linejoin:miter;stroke-miterlimit:3;stroke-opacity:1;stroke-dasharray:none;marker-mid:none;marker-end:none"
       d="m 156.5181,62.327963 0.0915,-1.17e-4"
       id="path2987-6-4-5-3-7"
       inkscape:connector-curvature="0" />
    <path
       style="fill:none;stroke:#000000;stroke-width:2.4000001;stroke-linecap:butt;stroke-linejoin:miter;stroke-miterlimit:4;stroke-opacity:1;stroke-dasharray:none"
       d="m 183.86921,70.82397 0.09,6.82696"
       id="path5747-9-7"
       inkscape:connector-curvature="0" />
    <path
       style="fill:none;stroke:#000000;stroke-width:2.5;stroke-linecap:square;stroke-linejoin:miter;stroke-miterlimit:3;stroke-opacity:1;stroke-dasharray:none;marker-mid:none;marker-end:none"
       d="m 160.11926,74.57988 49.24276,-0.0536"
       id="path2987-6-1-85-8"
       inkscape:connector-curvature="0" />
    <path
       style="fill:none;stroke:#000000;stroke-width:2.5;stroke-linecap:square;stroke-linejoin:miter;stroke-miterlimit:3;stroke-opacity:1;stroke-dasharray:none;marker-mid:none;marker-end:none"
       d="m 212.7308,74.54529 0.0915,-1.2e-4"
       id="path2987-6-4-99-0"
       inkscape:connector-curvature="0" />
    <path
       style="fill:none;stroke:#000000;stroke-width:2.5;stroke-linecap:square;stroke-linejoin:miter;stroke-miterlimit:3;stroke-opacity:1;stroke-dasharray:none;marker-mid:none;marker-end:none"
       d="m 216.27362,74.58813 0.0915,-1.2e-4"
       id="path2987-6-4-4-9-4"
       inkscape:connector-curvature="0" />
    <path
       style="fill:none;stroke:#000000;stroke-width:2.5;stroke-linecap:square;stroke-linejoin:miter;stroke-miterlimit:3;stroke-opacity:1;stroke-dasharray:none;marker-mid:none;marker-end:none"
       d="m 219.74683,74.54349 0.0915,-1.2e-4"
       id="path2987-6-4-5-6-9"
       inkscape:connector-curvature="0" />
    <path
       style="fill:none;stroke:#000000;stroke-width:2.5;stroke-linecap:square;stroke-linejoin:miter;stroke-miterlimit:3;stroke-opacity:1;stroke-dasharray:none;marker-mid:none;marker-end:none"
       d="m 149.49199,74.59072 0.0915,-1.2e-4"
       id="path2987-6-4-3-9-6"
       inkscape:connector-curvature="0" />
    <path
       style="fill:none;stroke:#000000;stroke-width:2.5;stroke-linecap:square;stroke-linejoin:miter;stroke-miterlimit:3;stroke-opacity:1;stroke-dasharray:none;marker-mid:none;marker-end:none"
       d="m 153.03481,74.63357 0.0915,-1.2e-4"
       id="path2987-6-4-4-3-1-4"
       inkscape:connector-curvature="0" />
    <path
       style="fill:none;stroke:#000000;stroke-width:2.5;stroke-linecap:square;stroke-linejoin:miter;stroke-miterlimit:3;stroke-opacity:1;stroke-dasharray:none;marker-mid:none;marker-end:none"
       d="m 156.50802,74.58892 0.0915,-1.1e-4"
       id="path2987-6-4-5-3-5-1"
       inkscape:connector-curvature="0" />
    <g
       id="g3463"
       transform="matrix(1,0,0,-1,-50.92598,762.31698)"
       xml:space="preserve"
       stroke-miterlimit="10.433"
       font-style="normal"
       font-variant="normal"
       font-weight="normal"
       font-stretch="normal"
       font-size-adjust="none"
       letter-spacing="normal"
       word-spacing="normal"
       ns0:text="$\\{p,s\\}$"
       ns0:preamble=""
       style="font-style:normal;font-variant:normal;font-weight:normal;font-stretch:normal;letter-spacing:normal;word-spacing:normal;text-anchor:start;fill:none;stroke:#000000;stroke-linecap:butt;stroke-linejoin:miter;stroke-miterlimit:10.43299961;stroke-opacity:1;stroke-dasharray:none;stroke-dashoffset:0"><path
         d="m 226.25,713.25 0,0.04 0,0.04 0.01,0.04 0,0.04 0.01,0.04 0.01,0.05 0.01,0.04 0.02,0.04 0.01,0.05 0.02,0.04 0.02,0.05 0.03,0.04 0.02,0.04 0.03,0.04 0.04,0.05 0.03,0.04 0.04,0.04 0.04,0.04 0.05,0.04 0.05,0.03 0.05,0.04 0.06,0.03 0.06,0.03 0.06,0.03 0.07,0.03 0.07,0.02 0.08,0.03 0.08,0.02 0.04,0 0.05,0.01 0.04,0.01 0.05,0.01 0.04,0 0.05,0.01 0.05,0 0.05,0.01 c 0.05,0.01 0.09,0.05 0.09,0.11 0,0.11 -0.08,0.11 -0.19,0.11 -0.99,0 -1.9,-0.51 -1.91,-1.25 v -2.26 c 0,-0.39 0,-0.71 -0.4,-1.03 -0.34,-0.29 -0.72,-0.31 -0.94,-0.32 -0.05,-0.01 -0.09,-0.05 -0.09,-0.11 0,-0.1 0.06,-0.1 0.16,-0.11 0.65,-0.04 1.13,-0.4 1.24,-0.89 0.03,-0.1 0.03,-0.12 0.03,-0.48 v -1.97 c 0,-0.42 0,-0.73 0.48,-1.11 0.39,-0.3 1.04,-0.41 1.43,-0.41 0.11,0 0.19,0 0.19,0.11 0,0.1 -0.06,0.1 -0.16,0.11 -0.63,0.04 -1.11,0.36 -1.24,0.86 -0.03,0.09 -0.03,0.11 -0.03,0.47 v 2.09 c 0,0.45 -0.08,0.62 -0.4,0.94 -0.21,0.21 -0.5,0.31 -0.78,0.39 0.82,0.23 1.18,0.68 1.18,1.26 z"
         id="path3465"
         inkscape:connector-curvature="0"
         style="fill:#000000;stroke-width:0" /><path
         d="m 228.86,705.91 -0.01,-0.03 0,-0.03 -0.01,-0.03 -0.01,-0.02 0,-0.03 -0.01,-0.02 -0.01,-0.02 -0.01,-0.02 0,-0.02 -0.01,-0.02 -0.01,-0.02 -0.01,-0.01 -0.01,-0.02 -0.01,-0.01 -0.01,-0.02 -0.01,-0.01 -0.02,-0.01 -0.01,-0.01 -0.02,-0.01 -0.02,0 -0.01,-0.01 -0.02,-0.01 -0.03,0 -0.02,-0.01 -0.02,0 -0.03,-0.01 -0.02,0 -0.01,0 -0.02,0 -0.01,0 -0.02,0 -0.01,0 -0.02,0 -0.02,0 -0.02,0 -0.02,0 -0.02,0 -0.02,0 c -0.12,0 -0.22,0 -0.22,-0.19 0,-0.08 0.04,-0.12 0.12,-0.12 0.27,0 0.56,0.03 0.84,0.03 0.33,0 0.67,-0.03 0.98,-0.03 0.05,0 0.18,0 0.18,0.2 0,0.11 -0.1,0.11 -0.23,0.11 -0.5,0 -0.5,0.07 -0.5,0.15 0,0.12 0.41,1.74 0.49,1.99 0.12,-0.29 0.4,-0.63 0.91,-0.63 l -0.01,0.21 c -0.66,0 -0.79,0.83 -0.79,0.89 0,0.02 0,0.04 0.03,0.16 l 0.49,1.94 c 0.07,0.27 0.34,0.55 0.52,0.7 0.35,0.31 0.64,0.38 0.8,0.38 0.4,0 0.64,-0.35 0.64,-0.94 0,-0.58 -0.33,-1.72 -0.51,-2.1 -0.33,-0.7 -0.81,-1.03 -1.18,-1.03 l 0.01,-0.21 c 1.15,0 2.4,1.45 2.4,2.91 0,0.93 -0.57,1.59 -1.33,1.59 -0.49,0 -0.97,-0.36 -1.3,-0.75 -0.1,0.54 -0.53,0.75 -0.89,0.75 -0.46,0 -0.65,-0.39 -0.74,-0.57 -0.18,-0.34 -0.31,-0.93 -0.31,-0.96 0,-0.1 0.1,-0.1 0.12,-0.1 0.1,0 0.11,0.01 0.17,0.22 0.17,0.71 0.37,1.19 0.73,1.19 0.16,0 0.3,-0.08 0.3,-0.46 0,-0.23 -0.03,-0.34 -0.06,-0.51 z"
         id="path3467"
         inkscape:connector-curvature="0"
         style="fill:#000000;stroke-width:0" /><path
         d="m 235.45,707.14 -0.01,0.06 0,0.05 0,0.06 -0.01,0.06 0,0.05 -0.01,0.05 -0.01,0.06 -0.01,0.04 -0.01,0.05 -0.01,0.05 -0.02,0.04 -0.01,0.04 -0.02,0.04 -0.02,0.04 -0.02,0.04 -0.02,0.03 -0.02,0.04 -0.02,0.03 -0.03,0.02 -0.02,0.03 -0.03,0.03 -0.02,0.02 -0.03,0.02 -0.03,0.02 -0.03,0.01 -0.03,0.02 -0.03,0.01 -0.03,0.01 -0.04,0.01 -0.03,0 -0.04,0.01 -0.03,0 c -0.33,0 -0.53,-0.25 -0.53,-0.53 0,-0.27 0.2,-0.53 0.53,-0.53 0.12,0 0.25,0.04 0.35,0.13 0.03,0.02 0.04,0.03 0.05,0.03 0.01,0 0.02,-0.01 0.02,-0.14 0,-0.74 -0.35,-1.34 -0.68,-1.66 -0.11,-0.11 -0.11,-0.13 -0.11,-0.16 0,-0.07 0.05,-0.11 0.1,-0.11 0.11,0 0.91,0.76 0.91,1.93 z"
         id="path3469"
         inkscape:connector-curvature="0"
         style="fill:#000000;stroke-width:0" /><path
         d="m 241.75,710.84 -0.03,0 -0.02,0 -0.03,-0.01 -0.02,0 -0.03,-0.01 -0.02,-0.01 -0.02,0 -0.03,-0.01 -0.02,-0.01 -0.02,-0.01 -0.02,-0.02 -0.02,-0.01 -0.02,-0.01 -0.01,-0.02 -0.02,-0.01 -0.02,-0.02 -0.01,-0.01 -0.02,-0.02 -0.01,-0.01 -0.01,-0.02 -0.02,-0.02 -0.01,-0.02 -0.01,-0.02 -0.01,-0.02 0,-0.02 -0.01,-0.02 -0.01,-0.02 0,-0.02 -0.01,-0.02 0,-0.02 0,-0.02 0,-0.02 c 0,-0.14 0.09,-0.29 0.31,-0.29 0.22,0 0.46,0.17 0.46,0.56 0,0.45 -0.43,0.86 -1.19,0.86 -1.31,0 -1.68,-1.02 -1.68,-1.45 0,-0.78 0.74,-0.93 1.03,-0.99 0.51,-0.1 1.03,-0.21 1.03,-0.75 0,-0.26 -0.23,-1.1 -1.42,-1.1 -0.14,0 -0.91,0 -1.14,0.53 0.38,-0.05 0.63,0.25 0.63,0.53 0,0.23 -0.16,0.35 -0.37,0.35 -0.26,0 -0.56,-0.21 -0.56,-0.66 0,-0.57 0.57,-0.96 1.43,-0.96 1.61,0 2,1.2 2,1.64 0,0.36 -0.19,0.61 -0.31,0.73 -0.27,0.28 -0.56,0.33 -1,0.42 -0.36,0.08 -0.75,0.15 -0.75,0.59 0,0.29 0.24,0.9 1.11,0.9 0.25,0 0.75,-0.07 0.9,-0.46 z"
         id="path3471"
         inkscape:connector-curvature="0"
         style="fill:#000000;stroke-width:0" /><path
         d="m 244.67,705.96 0,-0.03 0,-0.04 0,-0.04 -0.01,-0.05 -0.01,-0.04 -0.01,-0.04 -0.01,-0.04 -0.01,-0.05 -0.02,-0.04 -0.02,-0.05 -0.02,-0.04 -0.03,-0.04 -0.02,-0.05 -0.03,-0.04 -0.04,-0.04 -0.03,-0.04 -0.04,-0.04 -0.04,-0.04 -0.05,-0.04 -0.05,-0.04 -0.05,-0.03 -0.06,-0.03 -0.06,-0.03 -0.06,-0.03 -0.07,-0.03 -0.07,-0.03 -0.08,-0.02 -0.08,-0.02 -0.04,-0.01 -0.05,-0.01 -0.04,0 -0.05,-0.01 -0.04,-0.01 -0.05,0 -0.05,-0.01 -0.05,0 c -0.05,-0.01 -0.09,-0.05 -0.09,-0.11 0,-0.11 0.11,-0.11 0.2,-0.11 0.96,0 1.89,0.49 1.9,1.24 v 2.27 c 0,0.39 0,0.7 0.4,1.03 0.35,0.29 0.72,0.31 0.94,0.32 0.05,0.01 0.09,0.05 0.09,0.11 0,0.1 -0.06,0.1 -0.16,0.11 -0.65,0.04 -1.13,0.39 -1.24,0.88 -0.03,0.11 -0.03,0.13 -0.03,0.49 v 1.96 c 0,0.42 0,0.74 -0.48,1.12 -0.4,0.31 -1.08,0.41 -1.42,0.41 -0.09,0 -0.2,0 -0.2,-0.11 0,-0.1 0.06,-0.1 0.16,-0.11 0.63,-0.04 1.11,-0.36 1.24,-0.87 0.03,-0.09 0.03,-0.11 0.03,-0.46 v -2.09 c 0,-0.46 0.08,-0.63 0.4,-0.94 0.21,-0.21 0.5,-0.31 0.78,-0.39 -0.82,-0.23 -1.18,-0.69 -1.18,-1.26 z"
         id="path3473"
         inkscape:connector-curvature="0"
         style="fill:#000000;stroke-width:0" /></g>    <g
       style="font-style:normal;font-variant:normal;font-weight:normal;font-stretch:normal;letter-spacing:normal;word-spacing:normal;text-anchor:start;fill:none;stroke:#000000;stroke-linecap:butt;stroke-linejoin:miter;stroke-miterlimit:10.43299961;stroke-opacity:1;stroke-dasharray:none;stroke-dashoffset:0"
       ns0:preamble=""
       ns0:text="$\\{r,q\\}$"
       word-spacing="normal"
       letter-spacing="normal"
       font-size-adjust="none"
       font-stretch="normal"
       font-weight="normal"
       font-variant="normal"
       font-style="normal"
       stroke-miterlimit="10.433"
       xml:space="preserve"
       transform="matrix(1,0,0,-1,-50.93606,792.57795)"
       id="g3634"><path
         id="path3636"
         d="m 226.25,713.25 0,0.04 0,0.04 0.01,0.04 0,0.04 0.01,0.04 0.01,0.05 0.01,0.04 0.02,0.04 0.01,0.05 0.02,0.04 0.02,0.05 0.03,0.04 0.02,0.04 0.03,0.04 0.04,0.05 0.03,0.04 0.04,0.04 0.04,0.04 0.05,0.04 0.05,0.03 0.05,0.04 0.06,0.03 0.06,0.03 0.06,0.03 0.07,0.03 0.07,0.02 0.08,0.03 0.08,0.02 0.04,0 0.05,0.01 0.04,0.01 0.05,0.01 0.04,0 0.05,0.01 0.05,0 0.05,0.01 c 0.05,0.01 0.09,0.05 0.09,0.11 0,0.11 -0.08,0.11 -0.19,0.11 -0.99,0 -1.9,-0.51 -1.91,-1.25 v -2.26 c 0,-0.39 0,-0.71 -0.4,-1.03 -0.34,-0.29 -0.72,-0.31 -0.94,-0.32 -0.05,-0.01 -0.09,-0.05 -0.09,-0.11 0,-0.1 0.06,-0.1 0.16,-0.11 0.65,-0.04 1.13,-0.4 1.24,-0.89 0.03,-0.1 0.03,-0.12 0.03,-0.48 v -1.97 c 0,-0.42 0,-0.73 0.48,-1.11 0.39,-0.3 1.04,-0.41 1.43,-0.41 0.11,0 0.19,0 0.19,0.11 0,0.1 -0.06,0.1 -0.16,0.11 -0.63,0.04 -1.11,0.36 -1.24,0.86 -0.03,0.09 -0.03,0.11 -0.03,0.47 v 2.09 c 0,0.45 -0.08,0.62 -0.4,0.94 -0.21,0.21 -0.5,0.31 -0.78,0.39 0.82,0.23 1.18,0.68 1.18,1.26 z"
         inkscape:connector-curvature="0"
         style="fill:#000000;stroke-width:0" /><path
         id="path3638"
         d="m 229.29,707.71 0,-0.01 -0.01,-0.02 0,-0.01 0,-0.02 -0.01,-0.03 -0.01,-0.03 -0.01,-0.03 0,-0.04 -0.01,-0.03 -0.01,-0.03 0,-0.01 0,-0.02 -0.01,-0.01 0,-0.02 0,-0.01 -0.01,-0.01 0,-0.02 0,-0.01 0,-0.01 -0.01,-0.01 0,-0.01 0,-0.01 0,-0.01 0,0 0,-0.01 0,-0.01 c 0,-0.18 0.14,-0.26 0.29,-0.26 0.12,0 0.3,0.07 0.37,0.27 0.02,0.04 0.35,1.39 0.39,1.57 0.08,0.33 0.26,1.03 0.32,1.3 0.04,0.12 0.32,0.59 0.56,0.81 0.08,0.07 0.37,0.33 0.8,0.33 0.25,0 0.4,-0.12 0.41,-0.12 -0.3,-0.05 -0.51,-0.29 -0.51,-0.55 0,-0.16 0.1,-0.35 0.37,-0.35 0.27,0 0.55,0.23 0.55,0.59 0,0.35 -0.32,0.65 -0.82,0.65 -0.65,0 -1.09,-0.49 -1.28,-0.77 -0.08,0.45 -0.44,0.77 -0.9,0.77 -0.46,0 -0.65,-0.39 -0.74,-0.57 -0.18,-0.34 -0.31,-0.93 -0.31,-0.96 0,-0.1 0.1,-0.1 0.12,-0.1 0.1,0 0.11,0.01 0.17,0.22 0.17,0.71 0.37,1.19 0.73,1.19 0.16,0 0.3,-0.08 0.3,-0.46 0,-0.21 -0.03,-0.32 -0.15,-0.83 z"
         inkscape:connector-curvature="0"
         style="fill:#000000;stroke-width:0" /><path
         id="path3640"
         d="m 234.65,707.14 0,0.06 0,0.05 -0.01,0.06 0,0.06 -0.01,0.05 -0.01,0.05 -0.01,0.06 -0.01,0.04 -0.01,0.05 -0.01,0.05 -0.01,0.04 -0.02,0.04 -0.02,0.04 -0.01,0.04 -0.02,0.04 -0.02,0.03 -0.03,0.04 -0.02,0.03 -0.02,0.02 -0.03,0.03 -0.02,0.03 -0.03,0.02 -0.03,0.02 -0.02,0.02 -0.03,0.01 -0.04,0.02 -0.03,0.01 -0.03,0.01 -0.03,0.01 -0.04,0 -0.03,0.01 -0.04,0 c -0.33,0 -0.52,-0.25 -0.52,-0.53 0,-0.27 0.19,-0.53 0.52,-0.53 0.12,0 0.25,0.04 0.35,0.13 0.03,0.02 0.04,0.03 0.05,0.03 0.01,0 0.02,-0.01 0.02,-0.14 0,-0.74 -0.35,-1.34 -0.68,-1.66 -0.11,-0.11 -0.11,-0.13 -0.11,-0.16 0,-0.07 0.05,-0.11 0.1,-0.11 0.11,0 0.91,0.76 0.91,1.93 z"
         inkscape:connector-curvature="0"
         style="fill:#000000;stroke-width:0" /><path
         id="path3642"
         d="m 241.56,711.41 0,0 0,0 0,0.01 0,0 0,0.01 -0.01,0 0,0 0,0.01 0,0 0,0.01 0,0 -0.01,0.01 0,0 0,0 0,0.01 -0.01,0 0,0 0,0.01 -0.01,0 0,0 0,0.01 -0.01,0 0,0 -0.01,0.01 0,0 -0.01,0 0,0 -0.01,0 0,0 -0.01,0.01 -0.01,0 0,0 c -0.11,0 -0.51,-0.4 -0.68,-0.69 -0.22,0.54 -0.6,0.7 -0.92,0.7 v -0.22 c 0.64,0 0.78,-0.81 0.78,-0.88 0,-0.06 -0.54,-2.23 -0.57,-2.27 -0.15,-0.28 -0.71,-0.92 -1.27,-0.92 h 0 c -0.59,0 -0.64,0.77 -0.64,0.94 0,0.48 0.29,1.56 0.46,1.98 0.31,0.73 0.83,1.15 1.24,1.15 v 0.22 c -1.18,0 -2.4,-1.47 -2.4,-2.92 0,-0.97 0.58,-1.58 1.31,-1.58 0.43,0 0.82,0.23 1.18,0.59 -0.09,-0.35 -0.42,-1.69 -0.45,-1.78 -0.08,-0.28 -0.16,-0.31 -0.72,-0.32 -0.13,0 -0.23,0 -0.23,-0.2 0,-0.01 0,-0.11 0.13,-0.11 0.32,0 0.67,0.03 1,0.03 0.33,0 0.69,-0.03 1.02,-0.03 0.05,0 0.18,0 0.18,0.2 0,0.11 -0.1,0.11 -0.26,0.11 -0.47,0 -0.47,0.07 -0.47,0.15 0,0.07 0.01,0.13 0.03,0.22 z"
         inkscape:connector-curvature="0"
         style="fill:#000000;stroke-width:0" /><path
         id="path3644"
         d="m 244.01,705.96 0,-0.03 0,-0.04 0,-0.04 -0.01,-0.05 -0.01,-0.04 -0.01,-0.04 -0.01,-0.04 -0.01,-0.05 -0.02,-0.04 -0.02,-0.05 -0.02,-0.04 -0.03,-0.04 -0.02,-0.05 -0.03,-0.04 -0.04,-0.04 -0.03,-0.04 -0.04,-0.04 -0.04,-0.04 -0.05,-0.04 -0.05,-0.04 -0.05,-0.03 -0.06,-0.03 -0.06,-0.03 -0.06,-0.03 -0.07,-0.03 -0.07,-0.03 -0.08,-0.02 -0.08,-0.02 -0.04,-0.01 -0.05,-0.01 -0.04,0 -0.05,-0.01 -0.04,-0.01 -0.05,0 -0.05,-0.01 -0.05,0 c -0.05,-0.01 -0.09,-0.05 -0.09,-0.11 0,-0.11 0.11,-0.11 0.2,-0.11 0.96,0 1.89,0.49 1.9,1.24 v 2.27 c 0,0.39 0,0.7 0.4,1.03 0.35,0.29 0.72,0.31 0.94,0.32 0.05,0.01 0.09,0.05 0.09,0.11 0,0.1 -0.06,0.1 -0.16,0.11 -0.65,0.04 -1.13,0.39 -1.24,0.88 -0.03,0.11 -0.03,0.13 -0.03,0.49 v 1.96 c 0,0.42 0,0.74 -0.48,1.12 -0.4,0.31 -1.08,0.41 -1.42,0.41 -0.09,0 -0.2,0 -0.2,-0.11 0,-0.1 0.06,-0.1 0.16,-0.11 0.63,-0.04 1.11,-0.36 1.24,-0.87 0.03,-0.09 0.03,-0.11 0.03,-0.46 v -2.09 c 0,-0.46 0.08,-0.63 0.4,-0.94 0.21,-0.21 0.5,-0.31 0.78,-0.39 -0.82,-0.23 -1.18,-0.69 -1.18,-1.26 z"
         inkscape:connector-curvature="0"
         style="fill:#000000;stroke-width:0" /></g>    <path
       style="fill:none;stroke:#000000;stroke-width:2.4000001;stroke-linecap:butt;stroke-linejoin:miter;stroke-miterlimit:4;stroke-opacity:1;stroke-dasharray:none"
       d="m 113.80786,138.94086 0.09,6.82696"
       id="path5747-5-2"
       inkscape:connector-curvature="0" />
    <path
       style="fill:none;stroke:#000000;stroke-width:2.5;stroke-linecap:square;stroke-linejoin:miter;stroke-miterlimit:3;stroke-opacity:1;stroke-dasharray:none;marker-mid:none;marker-end:none"
       d="m 90.05791,142.69677 49.24277,-0.0536"
       id="path2987-6-1-6-9"
       inkscape:connector-curvature="0" />
    <path
       style="fill:none;stroke:#000000;stroke-width:2.5;stroke-linecap:square;stroke-linejoin:miter;stroke-miterlimit:3;stroke-opacity:1;stroke-dasharray:none;marker-mid:none;marker-end:none"
       d="m 142.66945,142.66218 0.0915,-1.2e-4"
       id="path2987-6-4-41-3"
       inkscape:connector-curvature="0" />
    <path
       style="fill:none;stroke:#000000;stroke-width:2.5;stroke-linecap:square;stroke-linejoin:miter;stroke-miterlimit:3;stroke-opacity:1;stroke-dasharray:none;marker-mid:none;marker-end:none"
       d="m 146.21227,142.70502 0.0915,-1.2e-4"
       id="path2987-6-4-4-2-6"
       inkscape:connector-curvature="0" />
    <path
       style="fill:none;stroke:#000000;stroke-width:2.5;stroke-linecap:square;stroke-linejoin:miter;stroke-miterlimit:3;stroke-opacity:1;stroke-dasharray:none;marker-mid:none;marker-end:none"
       d="m 149.68548,142.66038 0.0915,-1.2e-4"
       id="path2987-6-4-5-2-6"
       inkscape:connector-curvature="0" />
    <path
       style="fill:none;stroke:#000000;stroke-width:2.5;stroke-linecap:square;stroke-linejoin:miter;stroke-miterlimit:3;stroke-opacity:1;stroke-dasharray:none;marker-mid:none;marker-end:none"
       d="m 79.43064,142.70761 0.0915,-1.2e-4"
       id="path2987-6-4-3-8-9"
       inkscape:connector-curvature="0" />
    <path
       style="fill:none;stroke:#000000;stroke-width:2.5;stroke-linecap:square;stroke-linejoin:miter;stroke-miterlimit:3;stroke-opacity:1;stroke-dasharray:none;marker-mid:none;marker-end:none"
       d="m 82.97346,142.75046 0.0915,-1.2e-4"
       id="path2987-6-4-4-3-5-2"
       inkscape:connector-curvature="0" />
    <path
       style="fill:none;stroke:#000000;stroke-width:2.5;stroke-linecap:square;stroke-linejoin:miter;stroke-miterlimit:3;stroke-opacity:1;stroke-dasharray:none;marker-mid:none;marker-end:none"
       d="m 86.44667,142.70581 0.0915,-1.1e-4"
       id="path2987-6-4-5-3-7-6"
       inkscape:connector-curvature="0" />
    <path
       style="fill:none;stroke:#000000;stroke-width:2.4000001;stroke-linecap:butt;stroke-linejoin:miter;stroke-miterlimit:4;stroke-opacity:1;stroke-dasharray:none"
       d="m 113.79778,151.20182 0.09,6.82696"
       id="path5747-9-7-7"
       inkscape:connector-curvature="0" />
    <path
       style="fill:none;stroke:#000000;stroke-width:2.5;stroke-linecap:square;stroke-linejoin:miter;stroke-miterlimit:3;stroke-opacity:1;stroke-dasharray:none;marker-mid:none;marker-end:none"
       d="m 90.04783,154.95773 49.24276,-0.0536"
       id="path2987-6-1-85-8-9"
       inkscape:connector-curvature="0" />
    <path
       style="fill:none;stroke:#000000;stroke-width:2.5;stroke-linecap:square;stroke-linejoin:miter;stroke-miterlimit:3;stroke-opacity:1;stroke-dasharray:none;marker-mid:none;marker-end:none"
       d="m 142.65937,154.92314 0.0915,-1.2e-4"
       id="path2987-6-4-99-0-7"
       inkscape:connector-curvature="0" />
    <path
       style="fill:none;stroke:#000000;stroke-width:2.5;stroke-linecap:square;stroke-linejoin:miter;stroke-miterlimit:3;stroke-opacity:1;stroke-dasharray:none;marker-mid:none;marker-end:none"
       d="m 146.20219,154.96598 0.0915,-1.2e-4"
       id="path2987-6-4-4-9-4-0"
       inkscape:connector-curvature="0" />
    <path
       style="fill:none;stroke:#000000;stroke-width:2.5;stroke-linecap:square;stroke-linejoin:miter;stroke-miterlimit:3;stroke-opacity:1;stroke-dasharray:none;marker-mid:none;marker-end:none"
       d="m 149.6754,154.92134 0.0915,-1.2e-4"
       id="path2987-6-4-5-6-9-3"
       inkscape:connector-curvature="0" />
    <path
       style="fill:none;stroke:#000000;stroke-width:2.5;stroke-linecap:square;stroke-linejoin:miter;stroke-miterlimit:3;stroke-opacity:1;stroke-dasharray:none;marker-mid:none;marker-end:none"
       d="m 79.42056,154.96857 0.0915,-1.2e-4"
       id="path2987-6-4-3-9-6-7"
       inkscape:connector-curvature="0" />
    <path
       style="fill:none;stroke:#000000;stroke-width:2.5;stroke-linecap:square;stroke-linejoin:miter;stroke-miterlimit:3;stroke-opacity:1;stroke-dasharray:none;marker-mid:none;marker-end:none"
       d="m 82.96338,155.01142 0.0915,-1.2e-4"
       id="path2987-6-4-4-3-1-4-7"
       inkscape:connector-curvature="0" />
    <path
       style="fill:none;stroke:#000000;stroke-width:2.5;stroke-linecap:square;stroke-linejoin:miter;stroke-miterlimit:3;stroke-opacity:1;stroke-dasharray:none;marker-mid:none;marker-end:none"
       d="m 86.43659,154.96677 0.0915,-1.1e-4"
       id="path2987-6-4-5-3-5-1-0"
       inkscape:connector-curvature="0" />
    <g
       id="g3931"
       transform="matrix(1,0,0,-1,-120.99741,842.69483)"
       xml:space="preserve"
       stroke-miterlimit="10.433"
       font-style="normal"
       font-variant="normal"
       font-weight="normal"
       font-stretch="normal"
       font-size-adjust="none"
       letter-spacing="normal"
       word-spacing="normal"
       ns0:text="$\\{p,r\\}$"
       ns0:preamble=""
       style="font-style:normal;font-variant:normal;font-weight:normal;font-stretch:normal;letter-spacing:normal;word-spacing:normal;text-anchor:start;fill:none;stroke:#000000;stroke-linecap:butt;stroke-linejoin:miter;stroke-miterlimit:10.43299961;stroke-opacity:1;stroke-dasharray:none;stroke-dashoffset:0"><path
         d="m 226.25,713.25 0,0.04 0,0.04 0.01,0.04 0,0.04 0.01,0.04 0.01,0.05 0.01,0.04 0.02,0.04 0.01,0.05 0.02,0.04 0.02,0.05 0.03,0.04 0.02,0.04 0.03,0.04 0.04,0.05 0.03,0.04 0.04,0.04 0.04,0.04 0.05,0.04 0.05,0.03 0.05,0.04 0.06,0.03 0.06,0.03 0.06,0.03 0.07,0.03 0.07,0.02 0.08,0.03 0.08,0.02 0.04,0 0.05,0.01 0.04,0.01 0.05,0.01 0.04,0 0.05,0.01 0.05,0 0.05,0.01 c 0.05,0.01 0.09,0.05 0.09,0.11 0,0.11 -0.08,0.11 -0.19,0.11 -0.99,0 -1.9,-0.51 -1.91,-1.25 v -2.26 c 0,-0.39 0,-0.71 -0.4,-1.03 -0.34,-0.29 -0.72,-0.31 -0.94,-0.32 -0.05,-0.01 -0.09,-0.05 -0.09,-0.11 0,-0.1 0.06,-0.1 0.16,-0.11 0.65,-0.04 1.13,-0.4 1.24,-0.89 0.03,-0.1 0.03,-0.12 0.03,-0.48 v -1.97 c 0,-0.42 0,-0.73 0.48,-1.11 0.39,-0.3 1.04,-0.41 1.43,-0.41 0.11,0 0.19,0 0.19,0.11 0,0.1 -0.06,0.1 -0.16,0.11 -0.63,0.04 -1.11,0.36 -1.24,0.86 -0.03,0.09 -0.03,0.11 -0.03,0.47 v 2.09 c 0,0.45 -0.08,0.62 -0.4,0.94 -0.21,0.21 -0.5,0.31 -0.78,0.39 0.82,0.23 1.18,0.68 1.18,1.26 z"
         id="path3933"
         inkscape:connector-curvature="0"
         style="fill:#000000;stroke-width:0" /><path
         d="m 228.86,705.91 -0.01,-0.03 0,-0.03 -0.01,-0.03 -0.01,-0.02 0,-0.03 -0.01,-0.02 -0.01,-0.02 -0.01,-0.02 0,-0.02 -0.01,-0.02 -0.01,-0.02 -0.01,-0.01 -0.01,-0.02 -0.01,-0.01 -0.01,-0.02 -0.01,-0.01 -0.02,-0.01 -0.01,-0.01 -0.02,-0.01 -0.02,0 -0.01,-0.01 -0.02,-0.01 -0.03,0 -0.02,-0.01 -0.02,0 -0.03,-0.01 -0.02,0 -0.01,0 -0.02,0 -0.01,0 -0.02,0 -0.01,0 -0.02,0 -0.02,0 -0.02,0 -0.02,0 -0.02,0 -0.02,0 c -0.12,0 -0.22,0 -0.22,-0.19 0,-0.08 0.04,-0.12 0.12,-0.12 0.27,0 0.56,0.03 0.84,0.03 0.33,0 0.67,-0.03 0.98,-0.03 0.05,0 0.18,0 0.18,0.2 0,0.11 -0.1,0.11 -0.23,0.11 -0.5,0 -0.5,0.07 -0.5,0.15 0,0.12 0.41,1.74 0.49,1.99 0.12,-0.29 0.4,-0.63 0.91,-0.63 l -0.01,0.21 c -0.66,0 -0.79,0.83 -0.79,0.89 0,0.02 0,0.04 0.03,0.16 l 0.49,1.94 c 0.07,0.27 0.34,0.55 0.52,0.7 0.35,0.31 0.64,0.38 0.8,0.38 0.4,0 0.64,-0.35 0.64,-0.94 0,-0.58 -0.33,-1.72 -0.51,-2.1 -0.33,-0.7 -0.81,-1.03 -1.18,-1.03 l 0.01,-0.21 c 1.15,0 2.4,1.45 2.4,2.91 0,0.93 -0.57,1.59 -1.33,1.59 -0.49,0 -0.97,-0.36 -1.3,-0.75 -0.1,0.54 -0.53,0.75 -0.89,0.75 -0.46,0 -0.65,-0.39 -0.74,-0.57 -0.18,-0.34 -0.31,-0.93 -0.31,-0.96 0,-0.1 0.1,-0.1 0.12,-0.1 0.1,0 0.11,0.01 0.17,0.22 0.17,0.71 0.37,1.19 0.73,1.19 0.16,0 0.3,-0.08 0.3,-0.46 0,-0.23 -0.03,-0.34 -0.06,-0.51 z"
         id="path3935"
         inkscape:connector-curvature="0"
         style="fill:#000000;stroke-width:0" /><path
         d="m 235.45,707.14 -0.01,0.06 0,0.05 0,0.06 -0.01,0.06 0,0.05 -0.01,0.05 -0.01,0.06 -0.01,0.04 -0.01,0.05 -0.01,0.05 -0.02,0.04 -0.01,0.04 -0.02,0.04 -0.02,0.04 -0.02,0.04 -0.02,0.03 -0.02,0.04 -0.02,0.03 -0.03,0.02 -0.02,0.03 -0.03,0.03 -0.02,0.02 -0.03,0.02 -0.03,0.02 -0.03,0.01 -0.03,0.02 -0.03,0.01 -0.03,0.01 -0.04,0.01 -0.03,0 -0.04,0.01 -0.03,0 c -0.33,0 -0.53,-0.25 -0.53,-0.53 0,-0.27 0.2,-0.53 0.53,-0.53 0.12,0 0.25,0.04 0.35,0.13 0.03,0.02 0.04,0.03 0.05,0.03 0.01,0 0.02,-0.01 0.02,-0.14 0,-0.74 -0.35,-1.34 -0.68,-1.66 -0.11,-0.11 -0.11,-0.13 -0.11,-0.16 0,-0.07 0.05,-0.11 0.1,-0.11 0.11,0 0.91,0.76 0.91,1.93 z"
         id="path3937"
         inkscape:connector-curvature="0"
         style="fill:#000000;stroke-width:0" /><path
         d="m 238.73,707.71 0,-0.01 0,-0.02 -0.01,-0.01 0,-0.02 -0.01,-0.03 0,-0.03 -0.01,-0.03 -0.01,-0.04 -0.01,-0.03 0,-0.03 -0.01,-0.01 0,-0.02 0,-0.01 -0.01,-0.02 0,-0.01 0,-0.01 0,-0.02 -0.01,-0.01 0,-0.01 0,-0.01 0,-0.01 0,-0.01 -0.01,-0.01 0,0 0,-0.01 0,-0.01 c 0,-0.18 0.14,-0.26 0.29,-0.26 0.12,0 0.3,0.07 0.37,0.27 0.02,0.04 0.36,1.39 0.4,1.57 0.08,0.33 0.26,1.03 0.31,1.3 0.04,0.12 0.32,0.59 0.56,0.81 0.08,0.07 0.37,0.33 0.8,0.33 0.26,0 0.41,-0.12 0.42,-0.12 -0.3,-0.05 -0.52,-0.29 -0.52,-0.55 0,-0.16 0.11,-0.35 0.38,-0.35 0.27,0 0.54,0.23 0.54,0.59 0,0.35 -0.31,0.65 -0.82,0.65 -0.65,0 -1.09,-0.49 -1.27,-0.77 -0.09,0.45 -0.44,0.77 -0.91,0.77 -0.46,0 -0.65,-0.39 -0.74,-0.57 -0.18,-0.34 -0.3,-0.93 -0.3,-0.96 0,-0.1 0.09,-0.1 0.11,-0.1 0.1,0 0.11,0.01 0.17,0.22 0.17,0.71 0.37,1.19 0.73,1.19 0.17,0 0.31,-0.08 0.31,-0.46 0,-0.21 -0.03,-0.32 -0.16,-0.83 z"
         id="path3939"
         inkscape:connector-curvature="0"
         style="fill:#000000;stroke-width:0" /><path
         d="m 244.77,705.96 0,-0.03 0,-0.04 0,-0.04 -0.01,-0.05 -0.01,-0.04 -0.01,-0.04 -0.01,-0.04 -0.01,-0.05 -0.02,-0.04 -0.02,-0.05 -0.02,-0.04 -0.03,-0.04 -0.02,-0.05 -0.03,-0.04 -0.04,-0.04 -0.03,-0.04 -0.04,-0.04 -0.04,-0.04 -0.05,-0.04 -0.05,-0.04 -0.05,-0.03 -0.06,-0.03 -0.06,-0.03 -0.06,-0.03 -0.07,-0.03 -0.07,-0.03 -0.08,-0.02 -0.08,-0.02 -0.04,-0.01 -0.05,-0.01 -0.04,0 -0.05,-0.01 -0.04,-0.01 -0.05,0 -0.05,-0.01 -0.05,0 c -0.05,-0.01 -0.09,-0.05 -0.09,-0.11 0,-0.11 0.11,-0.11 0.2,-0.11 0.97,0 1.89,0.49 1.9,1.24 v 2.27 c 0,0.39 0,0.7 0.4,1.03 0.35,0.29 0.73,0.31 0.94,0.32 0.05,0.01 0.09,0.05 0.09,0.11 0,0.1 -0.06,0.1 -0.16,0.11 -0.65,0.04 -1.13,0.39 -1.24,0.88 -0.03,0.11 -0.03,0.13 -0.03,0.49 v 1.96 c 0,0.42 0,0.74 -0.48,1.12 -0.39,0.31 -1.08,0.41 -1.42,0.41 -0.09,0 -0.2,0 -0.2,-0.11 0,-0.1 0.06,-0.1 0.16,-0.11 0.63,-0.04 1.12,-0.36 1.24,-0.87 0.03,-0.09 0.03,-0.11 0.03,-0.46 v -2.09 c 0,-0.46 0.08,-0.63 0.4,-0.94 0.21,-0.21 0.5,-0.31 0.78,-0.39 -0.82,-0.23 -1.18,-0.69 -1.18,-1.26 z"
         id="path3941"
         inkscape:connector-curvature="0"
         style="fill:#000000;stroke-width:0" /></g>    <g
       style="font-style:normal;font-variant:normal;font-weight:normal;font-stretch:normal;letter-spacing:normal;word-spacing:normal;text-anchor:start;fill:none;stroke:#000000;stroke-linecap:butt;stroke-linejoin:miter;stroke-miterlimit:10.43299961;stroke-opacity:1;stroke-dasharray:none;stroke-dashoffset:0"
       ns0:preamble=""
       ns0:text="$\\{s,q\\}$"
       word-spacing="normal"
       letter-spacing="normal"
       font-size-adjust="none"
       font-stretch="normal"
       font-weight="normal"
       font-variant="normal"
       font-style="normal"
       stroke-miterlimit="10.433"
       xml:space="preserve"
       transform="matrix(1,0,0,-1,-121.00749,872.9558)"
       id="g4157"><path
         id="path4159"
         d="m 226.25,713.25 0,0.04 0,0.04 0.01,0.04 0,0.04 0.01,0.04 0.01,0.05 0.01,0.04 0.02,0.04 0.01,0.05 0.02,0.04 0.02,0.05 0.03,0.04 0.02,0.04 0.03,0.04 0.04,0.05 0.03,0.04 0.04,0.04 0.04,0.04 0.05,0.04 0.05,0.03 0.05,0.04 0.06,0.03 0.06,0.03 0.06,0.03 0.07,0.03 0.07,0.02 0.08,0.03 0.08,0.02 0.04,0 0.05,0.01 0.04,0.01 0.05,0.01 0.04,0 0.05,0.01 0.05,0 0.05,0.01 c 0.05,0.01 0.09,0.05 0.09,0.11 0,0.11 -0.08,0.11 -0.19,0.11 -0.99,0 -1.9,-0.51 -1.91,-1.25 v -2.26 c 0,-0.39 0,-0.71 -0.4,-1.03 -0.34,-0.29 -0.72,-0.31 -0.94,-0.32 -0.05,-0.01 -0.09,-0.05 -0.09,-0.11 0,-0.1 0.06,-0.1 0.16,-0.11 0.65,-0.04 1.13,-0.4 1.24,-0.89 0.03,-0.1 0.03,-0.12 0.03,-0.48 v -1.97 c 0,-0.42 0,-0.73 0.48,-1.11 0.39,-0.3 1.04,-0.41 1.43,-0.41 0.11,0 0.19,0 0.19,0.11 0,0.1 -0.06,0.1 -0.16,0.11 -0.63,0.04 -1.11,0.36 -1.24,0.86 -0.03,0.09 -0.03,0.11 -0.03,0.47 v 2.09 c 0,0.45 -0.08,0.62 -0.4,0.94 -0.21,0.21 -0.5,0.31 -0.78,0.39 0.82,0.23 1.18,0.68 1.18,1.26 z"
         inkscape:connector-curvature="0"
         style="fill:#000000;stroke-width:0" /><path
         id="path4161"
         d="m 232.3,710.84 -0.02,0 -0.03,0 -0.02,-0.01 -0.03,0 -0.02,-0.01 -0.02,-0.01 -0.03,0 -0.02,-0.01 -0.02,-0.01 -0.02,-0.01 -0.02,-0.02 -0.02,-0.01 -0.02,-0.01 -0.02,-0.02 -0.01,-0.01 -0.02,-0.02 -0.02,-0.01 -0.01,-0.02 -0.01,-0.01 -0.02,-0.02 -0.01,-0.02 -0.01,-0.02 -0.01,-0.02 -0.01,-0.02 -0.01,-0.02 0,-0.02 -0.01,-0.02 0,-0.02 -0.01,-0.02 0,-0.02 0,-0.02 0,-0.02 c 0,-0.14 0.08,-0.29 0.3,-0.29 0.22,0 0.46,0.17 0.46,0.56 0,0.45 -0.43,0.86 -1.18,0.86 -1.32,0 -1.68,-1.02 -1.68,-1.45 0,-0.78 0.73,-0.93 1.02,-0.99 0.52,-0.1 1.04,-0.21 1.04,-0.75 0,-0.26 -0.23,-1.1 -1.43,-1.1 -0.14,0 -0.9,0 -1.13,0.53 0.38,-0.05 0.63,0.25 0.63,0.53 0,0.23 -0.16,0.35 -0.37,0.35 -0.26,0 -0.56,-0.21 -0.56,-0.66 0,-0.57 0.57,-0.96 1.42,-0.96 1.61,0 2,1.2 2,1.64 0,0.36 -0.19,0.61 -0.31,0.73 -0.26,0.28 -0.55,0.33 -0.99,0.42 -0.36,0.08 -0.76,0.15 -0.76,0.59 0,0.29 0.24,0.9 1.12,0.9 0.25,0 0.74,-0.07 0.89,-0.46 z"
         inkscape:connector-curvature="0"
         style="fill:#000000;stroke-width:0" /><path
         id="path4163"
         d="m 235.1,707.14 0,0.06 0,0.05 0,0.06 -0.01,0.06 0,0.05 -0.01,0.05 -0.01,0.06 -0.01,0.04 -0.01,0.05 -0.02,0.05 -0.01,0.04 -0.02,0.04 -0.01,0.04 -0.02,0.04 -0.02,0.04 -0.02,0.03 -0.02,0.04 -0.02,0.03 -0.03,0.02 -0.02,0.03 -0.03,0.03 -0.02,0.02 -0.03,0.02 -0.03,0.02 -0.03,0.01 -0.03,0.02 -0.03,0.01 -0.04,0.01 -0.03,0.01 -0.03,0 -0.04,0.01 -0.03,0 c -0.33,0 -0.53,-0.25 -0.53,-0.53 0,-0.27 0.2,-0.53 0.53,-0.53 0.12,0 0.24,0.04 0.35,0.13 0.02,0.02 0.03,0.03 0.04,0.03 0.01,0 0.02,-0.01 0.02,-0.14 0,-0.74 -0.34,-1.34 -0.67,-1.66 -0.11,-0.11 -0.11,-0.13 -0.11,-0.16 0,-0.07 0.05,-0.11 0.1,-0.11 0.11,0 0.9,0.76 0.9,1.93 z"
         inkscape:connector-curvature="0"
         style="fill:#000000;stroke-width:0" /><path
         id="path4165"
         d="m 242.01,711.41 0,0 0,0 0,0.01 0,0 0,0.01 0,0 0,0 0,0.01 -0.01,0 0,0.01 0,0 0,0.01 0,0 -0.01,0 0,0.01 0,0 0,0 -0.01,0.01 0,0 -0.01,0 0,0.01 0,0 -0.01,0 0,0.01 -0.01,0 0,0 -0.01,0 0,0 -0.01,0 -0.01,0.01 0,0 -0.01,0 c -0.11,0 -0.51,-0.4 -0.67,-0.69 -0.22,0.54 -0.61,0.7 -0.93,0.7 v -0.22 c 0.65,0 0.79,-0.81 0.79,-0.88 0,-0.06 -0.55,-2.23 -0.58,-2.27 -0.15,-0.28 -0.71,-0.92 -1.26,-0.92 h 0 c -0.6,0 -0.64,0.77 -0.64,0.94 0,0.48 0.29,1.56 0.46,1.98 0.3,0.73 0.82,1.15 1.23,1.15 v 0.22 c -1.17,0 -2.4,-1.47 -2.4,-2.92 0,-0.97 0.59,-1.58 1.32,-1.58 0.42,0 0.81,0.23 1.17,0.59 -0.09,-0.35 -0.42,-1.69 -0.45,-1.78 -0.08,-0.28 -0.16,-0.31 -0.71,-0.32 -0.13,0 -0.23,0 -0.23,-0.2 0,-0.01 0,-0.11 0.13,-0.11 0.32,0 0.66,0.03 0.99,0.03 0.34,0 0.7,-0.03 1.03,-0.03 0.05,0 0.18,0 0.18,0.2 0,0.11 -0.1,0.11 -0.26,0.11 -0.48,0 -0.48,0.07 -0.48,0.15 0,0.07 0.02,0.13 0.04,0.22 z"
         inkscape:connector-curvature="0"
         style="fill:#000000;stroke-width:0" /><path
         id="path4167"
         d="m 244.46,705.96 0,-0.03 0,-0.04 0,-0.04 -0.01,-0.05 -0.01,-0.04 -0.01,-0.04 -0.01,-0.04 -0.01,-0.05 -0.02,-0.04 -0.02,-0.05 -0.02,-0.04 -0.02,-0.04 -0.03,-0.05 -0.03,-0.04 -0.03,-0.04 -0.04,-0.04 -0.04,-0.04 -0.04,-0.04 -0.05,-0.04 -0.05,-0.04 -0.05,-0.03 -0.06,-0.03 -0.06,-0.03 -0.06,-0.03 -0.07,-0.03 -0.07,-0.03 -0.08,-0.02 -0.08,-0.02 -0.04,-0.01 -0.04,-0.01 -0.05,0 -0.04,-0.01 -0.05,-0.01 -0.05,0 -0.05,-0.01 -0.05,0 c -0.05,-0.01 -0.09,-0.05 -0.09,-0.11 0,-0.11 0.11,-0.11 0.2,-0.11 0.97,0 1.89,0.49 1.9,1.24 v 2.27 c 0,0.39 0,0.7 0.4,1.03 0.35,0.29 0.73,0.31 0.95,0.32 0.04,0.01 0.08,0.05 0.08,0.11 0,0.1 -0.05,0.1 -0.16,0.11 -0.65,0.04 -1.13,0.39 -1.24,0.88 -0.03,0.11 -0.03,0.13 -0.03,0.49 v 1.96 c 0,0.42 0,0.74 -0.48,1.12 -0.39,0.31 -1.08,0.41 -1.42,0.41 -0.09,0 -0.2,0 -0.2,-0.11 0,-0.1 0.06,-0.1 0.16,-0.11 0.63,-0.04 1.12,-0.36 1.24,-0.87 0.03,-0.09 0.03,-0.11 0.03,-0.46 v -2.09 c 0,-0.46 0.08,-0.63 0.4,-0.94 0.21,-0.21 0.5,-0.31 0.78,-0.39 -0.82,-0.23 -1.18,-0.69 -1.18,-1.26 z"
         inkscape:connector-curvature="0"
         style="fill:#000000;stroke-width:0" /></g>    <path
       inkscape:connector-curvature="0"
       id="path2987"
       d="M 133.68937,69.47623 92.06428,69.44113"
       style="fill:none;stroke:#000000;stroke-width:1;stroke-linecap:square;stroke-linejoin:miter;stroke-miterlimit:3;stroke-opacity:1;stroke-dasharray:none;marker-start:none;marker-mid:none;marker-end:url(#marker6033)" />
    <path
       style="fill:none;stroke:#000000;stroke-width:1;stroke-linecap:square;stroke-linejoin:miter;stroke-miterlimit:3;stroke-opacity:1;stroke-dasharray:none;marker-start:url(#TriangleInM);marker-mid:none;marker-end:none"
       d="M 133.68937,65.47623 92.06428,65.44113"
       id="path3089"
       inkscape:connector-curvature="0" />
    <path
       style="fill:none;stroke:#000000;stroke-width:1;stroke-linecap:square;stroke-linejoin:miter;stroke-miterlimit:3;stroke-opacity:1;stroke-dasharray:none;marker-start:none;marker-mid:none;marker-end:url(#marker6033)"
       d="M 174.49908,97.285143 149.0926,123.3739"
       id="path4359"
       inkscape:connector-curvature="0"
       sodipodi:nodetypes="cc" />
    <path
       inkscape:connector-curvature="0"
       id="path4361"
       d="M 171.23246,94.688608 145.826,120.7774"
       style="fill:none;stroke:#000000;stroke-width:1;stroke-linecap:square;stroke-linejoin:miter;stroke-miterlimit:3;stroke-opacity:1;stroke-dasharray:none;marker-start:url(#TriangleInM);marker-mid:none;marker-end:none"
       sodipodi:nodetypes="cc" />
    <path
       style="fill:none;stroke:#000000;stroke-width:1;stroke-linecap:square;stroke-linejoin:miter;stroke-miterlimit:3;stroke-opacity:1;stroke-dasharray:none;marker-start:none;marker-mid:none;marker-end:url(#marker6033)"
       d="M 54.227386,97.285144 79.633866,123.3739"
       id="path4359-2"
       inkscape:connector-curvature="0"
       sodipodi:nodetypes="cc" />
    <path
       inkscape:connector-curvature="0"
       id="path4361-1"
       d="M 57.494006,94.688609 82.900466,120.7774"
       style="fill:none;stroke:#000000;stroke-width:1;stroke-linecap:square;stroke-linejoin:miter;stroke-miterlimit:3;stroke-opacity:1;stroke-dasharray:none;marker-start:url(#TriangleInM);marker-mid:none;marker-end:none"
       sodipodi:nodetypes="cc" />
  </g>
</svg>
