<?xml version="1.0" encoding="UTF-8" standalone="no"?>
<!-- Created with Inkscape (http://www.inkscape.org/) -->

<svg
   xmlns:ns0="http://www.iki.fi/pav/software/textext/"
   xmlns:dc="http://purl.org/dc/elements/1.1/"
   xmlns:cc="http://creativecommons.org/ns#"
   xmlns:rdf="http://www.w3.org/1999/02/22-rdf-syntax-ns#"
   xmlns:svg="http://www.w3.org/2000/svg"
   xmlns="http://www.w3.org/2000/svg"
   xmlns:sodipodi="http://sodipodi.sourceforge.net/DTD/sodipodi-0.dtd"
   xmlns:inkscape="http://www.inkscape.org/namespaces/inkscape"
   sodipodi:docname="perfectly_duplicated_genomes.svg"
   inkscape:version="0.48.4 r9939"
   version="1.1"
   id="svg2"
   height="88.047821"
   width="277.52576">
  <sodipodi:namedview
     id="base"
     pagecolor="#ffffff"
     bordercolor="#666666"
     borderopacity="1.0"
     inkscape:pageopacity="0.0"
     inkscape:pageshadow="2"
     inkscape:zoom="2.8"
     inkscape:cx="181.00801"
     inkscape:cy="12.893657"
     inkscape:document-units="px"
     inkscape:current-layer="layer1"
     showgrid="false"
     inkscape:window-width="1535"
     inkscape:window-height="876"
     inkscape:window-x="65"
     inkscape:window-y="24"
     inkscape:window-maximized="1"
     fit-margin-top="0"
     fit-margin-left="0"
     fit-margin-right="0"
     fit-margin-bottom="0" />
  <defs
     id="defs4" />
  <metadata
     id="metadata7">
    <rdf:RDF>
      <cc:Work
         rdf:about="">
        <dc:format>image/svg+xml</dc:format>
        <dc:type
           rdf:resource="http://purl.org/dc/dcmitype/StillImage" />
        <dc:title></dc:title>
      </cc:Work>
    </rdf:RDF>
  </metadata>
  <g
     transform="translate(-82.098558,-120.31176)"
     inkscape:label="Layer 1"
     inkscape:groupmode="layer"
     id="layer1">
    <path
       sodipodi:type="arc"
       style="fill:#000000;fill-opacity:1;fill-rule:evenodd;stroke:#000000;stroke-width:20.08763885;stroke-linecap:butt;stroke-miterlimit:4;stroke-opacity:1;stroke-dasharray:none;stroke-dashoffset:1"
       id="path2987"
       sodipodi:cx="171.78572"
       sodipodi:cy="116.6479"
       sodipodi:rx="43.214287"
       sodipodi:ry="45"
       d="m 215.00001,116.6479 c 0,24.85282 -19.3477,45 -43.21429,45 -23.86659,0 -43.21429,-20.14718 -43.21429,-45 0,-24.85281 19.3477,-44.999997 43.21429,-44.999997 23.86659,0 43.21429,20.147187 43.21429,44.999997 z"
       transform="matrix(0.12396696,0,0,0.12494424,67.63282,131.26734)" />
    <path
       sodipodi:type="arc"
       style="fill:#000000;fill-opacity:1;fill-rule:evenodd;stroke:#000000;stroke-width:20.08763885;stroke-linecap:butt;stroke-miterlimit:4;stroke-opacity:1;stroke-dasharray:none;stroke-dashoffset:1"
       id="path2987-1"
       sodipodi:cx="171.78572"
       sodipodi:cy="116.6479"
       sodipodi:rx="43.214287"
       sodipodi:ry="45"
       d="m 215.00001,116.6479 c 0,24.85282 -19.3477,45 -43.21429,45 -23.86659,0 -43.21429,-20.14718 -43.21429,-45 0,-24.85281 19.3477,-44.999997 43.21429,-44.999997 23.86659,0 43.21429,20.147187 43.21429,44.999997 z"
       transform="matrix(0.12396696,0,0,0.12494424,104.06139,131.21119)" />
    <path
       sodipodi:type="arc"
       style="fill:#000000;fill-opacity:1;fill-rule:evenodd;stroke:#000000;stroke-width:20.08763885;stroke-linecap:butt;stroke-miterlimit:4;stroke-opacity:1;stroke-dasharray:none;stroke-dashoffset:1"
       id="path2987-9"
       sodipodi:cx="171.78572"
       sodipodi:cy="116.6479"
       sodipodi:rx="43.214287"
       sodipodi:ry="45"
       d="m 215.00001,116.6479 c 0,24.85282 -19.3477,45 -43.21429,45 -23.86659,0 -43.21429,-20.14718 -43.21429,-45 0,-24.85281 19.3477,-44.999997 43.21429,-44.999997 23.86659,0 43.21429,20.147187 43.21429,44.999997 z"
       transform="matrix(0.12396696,0,0,0.12494424,139.23098,131.31444)" />
    <path
       sodipodi:type="arc"
       style="fill:#000000;fill-opacity:1;fill-rule:evenodd;stroke:#000000;stroke-width:20.08763885;stroke-linecap:butt;stroke-miterlimit:4;stroke-opacity:1;stroke-dasharray:none;stroke-dashoffset:1"
       id="path2987-6"
       sodipodi:cx="171.78572"
       sodipodi:cy="116.6479"
       sodipodi:rx="43.214287"
       sodipodi:ry="45"
       d="m 215.00001,116.6479 c 0,24.85282 -19.3477,45 -43.21429,45 -23.86659,0 -43.21429,-20.14718 -43.21429,-45 0,-24.85281 19.3477,-44.999997 43.21429,-44.999997 23.86659,0 43.21429,20.147187 43.21429,44.999997 z"
       transform="matrix(0.12396696,0,0,0.12494424,177.27568,131.14621)" />
    <path
       sodipodi:type="arc"
       style="fill:#000000;fill-opacity:1;fill-rule:evenodd;stroke:#000000;stroke-width:20.08763885;stroke-linecap:butt;stroke-miterlimit:4;stroke-opacity:1;stroke-dasharray:none;stroke-dashoffset:1"
       id="path2987-9-6"
       sodipodi:cx="171.78572"
       sodipodi:cy="116.6479"
       sodipodi:rx="43.214287"
       sodipodi:ry="45"
       d="m 215.00001,116.6479 c 0,24.85282 -19.3477,45 -43.21429,45 -23.86659,0 -43.21429,-20.14718 -43.21429,-45 0,-24.85281 19.3477,-44.999997 43.21429,-44.999997 23.86659,0 43.21429,20.147187 43.21429,44.999997 z"
       transform="matrix(0.12396696,0,0,0.12494424,214.32994,131.01901)" />
    <path
       sodipodi:type="arc"
       style="fill:#000000;fill-opacity:1;fill-rule:evenodd;stroke:#000000;stroke-width:20.08763885;stroke-linecap:butt;stroke-miterlimit:4;stroke-opacity:1;stroke-dasharray:none;stroke-dashoffset:1"
       id="path2987-6-5"
       sodipodi:cx="171.78572"
       sodipodi:cy="116.6479"
       sodipodi:rx="43.214287"
       sodipodi:ry="45"
       d="m 215.00001,116.6479 c 0,24.85282 -19.3477,45 -43.21429,45 -23.86659,0 -43.21429,-20.14718 -43.21429,-45 0,-24.85281 19.3477,-44.999997 43.21429,-44.999997 23.86659,0 43.21429,20.147187 43.21429,44.999997 z"
       transform="matrix(0.12396696,0,0,0.12494424,252.37464,130.85078)" />
    <path
       sodipodi:type="arc"
       style="fill:#000000;fill-opacity:1;fill-rule:evenodd;stroke:#000000;stroke-width:20.08763885;stroke-linecap:butt;stroke-miterlimit:4;stroke-opacity:1;stroke-dasharray:none;stroke-dashoffset:1"
       id="path2987-6-7-2"
       sodipodi:cx="171.78572"
       sodipodi:cy="116.6479"
       sodipodi:rx="43.214287"
       sodipodi:ry="45"
       d="m 215.00001,116.6479 c 0,24.85282 -19.3477,45 -43.21429,45 -23.86659,0 -43.21429,-20.14718 -43.21429,-45 0,-24.85281 19.3477,-44.999997 43.21429,-44.999997 23.86659,0 43.21429,20.147187 43.21429,44.999997 z"
       transform="matrix(0.12396696,0,0,0.12494424,291.06279,130.62782)" />
    <path
       sodipodi:type="arc"
       style="fill:#000000;fill-opacity:1;fill-rule:evenodd;stroke:#000000;stroke-width:20.08763885;stroke-linecap:butt;stroke-miterlimit:4;stroke-opacity:1;stroke-dasharray:none;stroke-dashoffset:1"
       id="path2987-6-0-3"
       sodipodi:cx="171.78572"
       sodipodi:cy="116.6479"
       sodipodi:rx="43.214287"
       sodipodi:ry="45"
       d="m 215.00001,116.6479 c 0,24.85282 -19.3477,45 -43.21429,45 -23.86659,0 -43.21429,-20.14718 -43.21429,-45 0,-24.85281 19.3477,-44.999997 43.21429,-44.999997 23.86659,0 43.21429,20.147187 43.21429,44.999997 z"
       transform="matrix(0.12396696,0,0,0.12494424,331.72142,130.62782)" />
    <path
       style="fill:none;stroke:#000000;stroke-width:1.99999988;stroke-linecap:butt;stroke-linejoin:miter;stroke-miterlimit:4;stroke-opacity:0.47031962;stroke-dasharray:none"
       d="m 89.145676,145.39696 109.391474,0.20155"
       id="path4046"
       inkscape:connector-curvature="0" />
    <path
       style="fill:none;stroke:#000000;stroke-width:2;stroke-linecap:butt;stroke-linejoin:miter;stroke-miterlimit:4;stroke-opacity:0.47031962;stroke-dasharray:none"
       d="m 234.35813,145.47186 118.49805,-0.50507"
       id="path4046-5"
       inkscape:connector-curvature="0" />
    <path
       style="fill:none;stroke:#000000;stroke-width:2;stroke-linecap:butt;stroke-linejoin:miter;stroke-miterlimit:4;stroke-opacity:0.47031962;stroke-dasharray:none"
       d="m 238.03669,143.65551 c 36.21572,-32.37181 74.33796,-26.94041 113.31948,-0.50507"
       id="path4046-5-7"
       inkscape:connector-curvature="0"
       sodipodi:nodetypes="cc" />
    <g
       style="font-style:normal;font-variant:normal;font-weight:normal;font-stretch:normal;letter-spacing:normal;word-spacing:normal;text-anchor:start;fill:none;stroke:#000000;stroke-linecap:butt;stroke-linejoin:miter;stroke-miterlimit:10.43299961;stroke-opacity:1;stroke-dasharray:none;stroke-dashoffset:0"
       ns0:preamble=""
       ns0:text="$a^t_1$"
       word-spacing="normal"
       letter-spacing="normal"
       font-size-adjust="none"
       font-stretch="normal"
       font-weight="normal"
       font-variant="normal"
       font-style="normal"
       stroke-miterlimit="10.433"
       xml:space="preserve"
       transform="matrix(1,0,0,-1,-139.03317,868.73731)"
       id="content"><path
         id="path3206"
         d="m 227.14,710.88 -0.01,0.03 -0.02,0.04 -0.02,0.03 -0.02,0.03 -0.02,0.03 -0.02,0.03 -0.02,0.03 -0.02,0.03 -0.03,0.03 -0.02,0.03 -0.02,0.03 -0.03,0.02 -0.02,0.03 -0.03,0.02 -0.03,0.02 -0.02,0.03 -0.03,0.02 -0.03,0.02 -0.03,0.01 -0.03,0.02 -0.04,0.02 -0.03,0.01 -0.03,0.02 -0.04,0.01 -0.03,0.01 -0.04,0.01 -0.03,0.01 -0.04,0 -0.04,0.01 -0.04,0 -0.04,0.01 -0.04,0 c -1.17,0 -2.4,-1.47 -2.4,-2.92 0,-0.93 0.55,-1.58 1.32,-1.58 l 0.02,0.21 c -0.49,0 -0.63,0.55 -0.63,0.94 0,0.49 0.31,1.72 0.54,2.17 0.31,0.59 0.76,0.96 1.16,0.96 0.64,0 0.78,-0.82 0.78,-0.88 0,-0.06 -0.02,-0.12 -0.03,-0.17 l -0.49,-1.94 c -0.05,-0.18 -0.05,-0.2 -0.2,-0.37 -0.44,-0.55 -0.85,-0.71 -1.13,-0.71 l -0.02,-0.21 c 0.2,0 0.7,0.03 1.3,0.74 0.08,-0.42 0.42,-0.74 0.9,-0.74 0.35,0 0.58,0.22 0.74,0.54 0.17,0.36 0.3,0.97 0.3,0.99 0,0.1 -0.09,0.1 -0.12,0.1 -0.1,0 -0.11,-0.05 -0.14,-0.18 -0.17,-0.65 -0.35,-1.24 -0.76,-1.24 -0.27,0 -0.3,0.26 -0.3,0.46 0,0.22 0.02,0.3 0.13,0.74 0.11,0.41 0.13,0.51 0.22,0.89 l 0.36,1.39 c 0.07,0.28 0.07,0.3 0.07,0.34 0,0.17 -0.12,0.27 -0.29,0.27 -0.24,0 -0.39,-0.22 -0.42,-0.44 z"
         inkscape:connector-curvature="0"
         style="fill:#000000;stroke-width:0" /><path
         id="path3208"
         d="m 230.41,713.49 h 0.71 c 0.13,0 0.22,0 0.22,0.15 0,0.1 -0.09,0.1 -0.2,0.1 h -0.67 l 0.26,1.03 c 0.01,0.03 0.02,0.07 0.02,0.09 0,0.13 -0.1,0.23 -0.23,0.23 -0.18,0 -0.28,-0.12 -0.33,-0.3 -0.05,-0.18 0.04,0.16 -0.27,-1.05 h -0.71 c -0.13,0 -0.22,0 -0.22,-0.16 0,-0.09 0.08,-0.09 0.21,-0.09 h 0.66 l -0.41,-1.64 c -0.04,-0.18 -0.1,-0.43 -0.1,-0.52 0,-0.41 0.34,-0.66 0.74,-0.66 0.77,0 1.21,0.97 1.21,1.06 0,0.1 -0.09,0.1 -0.11,0.1 -0.08,0 -0.09,-0.02 -0.15,-0.14 -0.19,-0.43 -0.55,-0.83 -0.93,-0.83 -0.15,0 -0.24,0.1 -0.24,0.35 0,0.07 0.03,0.21 0.04,0.28 z"
         inkscape:connector-curvature="0"
         style="fill:#000000;stroke-width:0" /><path
         id="path3210"
         d="m 231.03,709.08 0,0 0,0.01 0,0.01 0,0.01 0,0.01 0,0 0,0.01 0,0.01 0,0 0,0.01 0,0.01 0,0 0,0.01 0,0 0,0.01 0,0 -0.01,0.01 0,0 0,0.01 0,0.01 0,0.01 -0.01,0.01 0,0 -0.01,0.01 0,0 -0.01,0.01 0,0 -0.01,0 -0.01,0.01 0,0 -0.01,0 -0.01,0 -0.01,0 0,0 -0.01,0.01 0,0 -0.01,0 -0.01,0 0,0 -0.01,0 -0.01,0 0,0 -0.01,0 -0.01,0 -0.01,0 0,0 -0.01,0 -0.01,0 -0.01,0 -0.01,0 c -0.44,-0.44 -1.08,-0.45 -1.36,-0.45 v -0.25 c 0.16,0 0.62,0 1.01,0.2 v -3.55 c 0,-0.23 0,-0.32 -0.7,-0.32 h -0.26 v -0.25 c 0.12,0.01 0.98,0.03 1.24,0.03 0.21,0 1.09,-0.02 1.24,-0.03 v 0.25 h -0.26 c -0.7,0 -0.7,0.09 -0.7,0.32 z"
         inkscape:connector-curvature="0"
         style="fill:#000000;stroke-width:0" /></g>    <g
       id="g4023"
       transform="matrix(1,0,0,-1,7.4941,868.32047)"
       xml:space="preserve"
       stroke-miterlimit="10.433"
       font-style="normal"
       font-variant="normal"
       font-weight="normal"
       font-stretch="normal"
       font-size-adjust="none"
       letter-spacing="normal"
       word-spacing="normal"
       ns0:text="$d^h_1$"
       ns0:preamble=""
       style="font-style:normal;font-variant:normal;font-weight:normal;font-stretch:normal;letter-spacing:normal;word-spacing:normal;text-anchor:start;fill:none;stroke:#000000;stroke-linecap:butt;stroke-linejoin:miter;stroke-miterlimit:10.43299961;stroke-opacity:1;stroke-dasharray:none;stroke-dashoffset:0"><path
         d="m 228.57,713.91 0,0 0,0 0,0 0,0 0,0.01 0,0 0,0 -0.01,0.01 0,0 0,0.01 0,0 0,0 0,0.01 0,0 0,0.01 -0.01,0 0,0.01 0,0 -0.01,0.01 0,0 -0.01,0.01 0,0 0,0 0,0 -0.01,0.01 0,0 0,0 -0.01,0 0,0 0,0.01 -0.01,0 0,0 0,0 -0.01,0 0,0 -0.01,0 0,0 -0.01,0.01 0,0 -0.01,0 0,0 -0.01,0 0,0 -0.01,0 0,0 c -0.15,0 -1.1,-0.09 -1.27,-0.11 -0.08,-0.01 -0.14,-0.06 -0.14,-0.19 0,-0.12 0.09,-0.12 0.24,-0.12 0.48,0 0.5,-0.07 0.5,-0.17 l -0.03,-0.2 -0.6,-2.35 c -0.18,0.37 -0.46,0.64 -0.91,0.64 -1.17,0 -2.4,-1.47 -2.4,-2.92 0,-0.93 0.55,-1.58 1.32,-1.58 l 0.02,0.21 c -0.49,0 -0.63,0.55 -0.63,0.94 0,0.49 0.31,1.72 0.54,2.17 0.31,0.59 0.76,0.96 1.16,0.96 0.64,0 0.78,-0.82 0.78,-0.88 0,-0.06 -0.02,-0.12 -0.03,-0.17 l -0.49,-1.94 c -0.05,-0.18 -0.05,-0.2 -0.2,-0.37 -0.44,-0.55 -0.85,-0.71 -1.13,-0.71 l -0.02,-0.21 c 0.2,0 0.7,0.03 1.3,0.74 0.08,-0.42 0.42,-0.74 0.9,-0.74 0.35,0 0.58,0.22 0.74,0.54 0.17,0.36 0.3,0.97 0.3,0.99 0,0.1 -0.09,0.1 -0.12,0.1 -0.1,0 -0.11,-0.05 -0.14,-0.18 -0.17,-0.65 -0.35,-1.24 -0.76,-1.24 -0.27,0 -0.3,0.26 -0.3,0.46 0,0.24 0.02,0.31 0.06,0.48 z"
         id="path4025"
         inkscape:connector-curvature="0"
         style="fill:#000000;stroke-width:0" /><path
         d="m 230.8,715.36 0,0 0,0 0,0 0,0 0,0 0,0 0,0 0,0.01 0,0 0,0 0,0.01 0.01,0 0,0 0,0.01 0,0 0,0.01 0,0 0,0.01 0,0.01 0.01,0.01 0,0 0,0 0,0.01 0,0 0,0.01 0,0 0,0 0,0.01 0,0 0,0 0,0 0.01,0 0,0 0,0 0,0.01 0,0 0,0 0,0 0,0 0,0 c 0,0.03 -0.03,0.1 -0.12,0.1 -0.14,0 -0.71,-0.06 -0.89,-0.07 -0.05,-0.01 -0.15,-0.02 -0.15,-0.16 0,-0.1 0.1,-0.1 0.18,-0.1 0.33,0 0.33,-0.05 0.33,-0.1 0,-0.05 -0.01,-0.1 -0.02,-0.16 l -0.98,-3.93 c -0.04,-0.13 -0.04,-0.14 -0.04,-0.16 0,-0.1 0.08,-0.22 0.24,-0.22 0.07,0 0.21,0.04 0.28,0.18 0.02,0.04 0.09,0.29 0.12,0.44 l 0.16,0.62 c 0.02,0.1 0.09,0.37 0.11,0.47 0.07,0.27 0.07,0.27 0.21,0.5 0.22,0.34 0.57,0.73 1.12,0.73 0.39,0 0.41,-0.32 0.41,-0.49 0,-0.41 -0.3,-1.18 -0.41,-1.48 -0.08,-0.19 -0.11,-0.25 -0.11,-0.37 0,-0.37 0.31,-0.6 0.66,-0.6 0.7,0 1.01,0.96 1.01,1.06 0,0.1 -0.09,0.1 -0.12,0.1 -0.09,0 -0.1,-0.05 -0.13,-0.12 -0.16,-0.56 -0.46,-0.85 -0.74,-0.85 -0.14,0 -0.17,0.1 -0.17,0.25 0,0.16 0.04,0.25 0.16,0.56 0.08,0.22 0.37,0.95 0.37,1.34 0,0.11 0,0.41 -0.26,0.61 -0.12,0.09 -0.32,0.19 -0.65,0.19 -0.5,0 -0.87,-0.28 -1.13,-0.58 z"
         id="path4027"
         inkscape:connector-curvature="0"
         style="fill:#000000;stroke-width:0" /><path
         d="m 230.95,709.08 0,0 0,0.01 0,0.01 0,0.01 0,0.01 0,0 0,0.01 0,0.01 0,0 0,0.01 0,0.01 0,0 0,0.01 0,0 0,0.01 0,0 -0.01,0.01 0,0 0,0.01 0,0.01 0,0.01 -0.01,0.01 0,0 -0.01,0.01 0,0 -0.01,0.01 0,0 -0.01,0 -0.01,0.01 0,0 -0.01,0 -0.01,0 -0.01,0 0,0 -0.01,0.01 0,0 -0.01,0 -0.01,0 0,0 -0.01,0 -0.01,0 0,0 -0.01,0 -0.01,0 -0.01,0 0,0 -0.01,0 -0.01,0 -0.01,0 -0.01,0 c -0.44,-0.44 -1.08,-0.45 -1.36,-0.45 v -0.25 c 0.16,0 0.62,0 1.01,0.2 v -3.55 c 0,-0.23 0,-0.32 -0.7,-0.32 h -0.26 v -0.25 c 0.12,0.01 0.98,0.03 1.24,0.03 0.21,0 1.09,-0.02 1.24,-0.03 v 0.25 h -0.26 c -0.7,0 -0.7,0.09 -0.7,0.32 z"
         id="path4029"
         inkscape:connector-curvature="0"
         style="fill:#000000;stroke-width:0" /></g>    <g
       style="font-style:normal;font-variant:normal;font-weight:normal;font-stretch:normal;letter-spacing:normal;word-spacing:normal;text-anchor:start;fill:none;stroke:#000000;stroke-linecap:butt;stroke-linejoin:miter;stroke-miterlimit:10.43299961;stroke-opacity:1;stroke-dasharray:none;stroke-dashoffset:0"
       ns0:preamble=""
       ns0:text="$d^t_1$"
       word-spacing="normal"
       letter-spacing="normal"
       font-size-adjust="none"
       font-stretch="normal"
       font-weight="normal"
       font-variant="normal"
       font-style="normal"
       stroke-miterlimit="10.433"
       xml:space="preserve"
       transform="matrix(1,0,0,-1,46.58692,867.75078)"
       id="g4148"><path
         id="path4150"
         d="m 228.57,713.91 0,0 0,0 0,0 0,0 0,0.01 0,0 0,0 -0.01,0.01 0,0 0,0.01 0,0 0,0 0,0.01 0,0 0,0.01 -0.01,0 0,0.01 0,0 -0.01,0.01 0,0 -0.01,0.01 0,0 0,0 0,0 -0.01,0.01 0,0 0,0 -0.01,0 0,0 0,0.01 -0.01,0 0,0 0,0 -0.01,0 0,0 -0.01,0 0,0 -0.01,0.01 0,0 -0.01,0 0,0 -0.01,0 0,0 -0.01,0 0,0 c -0.15,0 -1.1,-0.09 -1.27,-0.11 -0.08,-0.01 -0.14,-0.06 -0.14,-0.19 0,-0.12 0.09,-0.12 0.24,-0.12 0.48,0 0.5,-0.07 0.5,-0.17 l -0.03,-0.2 -0.6,-2.35 c -0.18,0.37 -0.46,0.64 -0.91,0.64 -1.17,0 -2.4,-1.47 -2.4,-2.92 0,-0.93 0.55,-1.58 1.32,-1.58 l 0.02,0.21 c -0.49,0 -0.63,0.55 -0.63,0.94 0,0.49 0.31,1.72 0.54,2.17 0.31,0.59 0.76,0.96 1.16,0.96 0.64,0 0.78,-0.82 0.78,-0.88 0,-0.06 -0.02,-0.12 -0.03,-0.17 l -0.49,-1.94 c -0.05,-0.18 -0.05,-0.2 -0.2,-0.37 -0.44,-0.55 -0.85,-0.71 -1.13,-0.71 l -0.02,-0.21 c 0.2,0 0.7,0.03 1.3,0.74 0.08,-0.42 0.42,-0.74 0.9,-0.74 0.35,0 0.58,0.22 0.74,0.54 0.17,0.36 0.3,0.97 0.3,0.99 0,0.1 -0.09,0.1 -0.12,0.1 -0.1,0 -0.11,-0.05 -0.14,-0.18 -0.17,-0.65 -0.35,-1.24 -0.76,-1.24 -0.27,0 -0.3,0.26 -0.3,0.46 0,0.24 0.02,0.31 0.06,0.48 z"
         inkscape:connector-curvature="0"
         style="fill:#000000;stroke-width:0" /><path
         id="path4152"
         d="m 230.33,713.49 h 0.71 c 0.13,0 0.22,0 0.22,0.15 0,0.1 -0.09,0.1 -0.2,0.1 h -0.67 l 0.26,1.03 c 0.01,0.03 0.02,0.07 0.02,0.09 0,0.13 -0.1,0.23 -0.23,0.23 -0.18,0 -0.28,-0.12 -0.33,-0.3 -0.05,-0.18 0.04,0.16 -0.27,-1.05 h -0.71 c -0.13,0 -0.22,0 -0.22,-0.16 0,-0.09 0.08,-0.09 0.21,-0.09 h 0.66 l -0.41,-1.64 c -0.04,-0.18 -0.1,-0.43 -0.1,-0.52 0,-0.41 0.34,-0.66 0.74,-0.66 0.77,0 1.21,0.97 1.21,1.06 0,0.1 -0.09,0.1 -0.11,0.1 -0.08,0 -0.09,-0.02 -0.15,-0.14 -0.19,-0.43 -0.55,-0.83 -0.93,-0.83 -0.14,0 -0.24,0.1 -0.24,0.35 0,0.07 0.03,0.21 0.04,0.28 z"
         inkscape:connector-curvature="0"
         style="fill:#000000;stroke-width:0" /><path
         id="path4154"
         d="m 230.95,709.08 0,0 0,0.01 0,0.01 0,0.01 0,0.01 0,0 0,0.01 0,0.01 0,0 0,0.01 0,0.01 0,0 0,0.01 0,0 0,0.01 0,0 -0.01,0.01 0,0 0,0.01 0,0.01 0,0.01 -0.01,0.01 0,0 -0.01,0.01 0,0 -0.01,0.01 0,0 -0.01,0 -0.01,0.01 0,0 -0.01,0 -0.01,0 -0.01,0 0,0 -0.01,0.01 0,0 -0.01,0 -0.01,0 0,0 -0.01,0 -0.01,0 0,0 -0.01,0 -0.01,0 -0.01,0 0,0 -0.01,0 -0.01,0 -0.01,0 -0.01,0 c -0.44,-0.44 -1.08,-0.45 -1.36,-0.45 v -0.25 c 0.16,0 0.62,0 1.01,0.2 v -3.55 c 0,-0.23 0,-0.32 -0.7,-0.32 h -0.26 v -0.25 c 0.12,0.01 0.98,0.03 1.24,0.03 0.21,0 1.09,-0.02 1.24,-0.03 v 0.25 h -0.26 c -0.7,0 -0.7,0.09 -0.7,0.32 z"
         inkscape:connector-curvature="0"
         style="fill:#000000;stroke-width:0" /></g>    <g
       id="g4275"
       transform="matrix(1,0,0,-1,85.10478,868.0722)"
       xml:space="preserve"
       stroke-miterlimit="10.433"
       font-style="normal"
       font-variant="normal"
       font-weight="normal"
       font-stretch="normal"
       font-size-adjust="none"
       letter-spacing="normal"
       word-spacing="normal"
       ns0:text="$c^h_1$"
       ns0:preamble=""
       style="font-style:normal;font-variant:normal;font-weight:normal;font-stretch:normal;letter-spacing:normal;word-spacing:normal;text-anchor:start;fill:none;stroke:#000000;stroke-linecap:butt;stroke-linejoin:miter;stroke-miterlimit:10.43299961;stroke-opacity:1;stroke-dasharray:none;stroke-dashoffset:0"><path
         d="m 227.37,710.9 -0.03,0 -0.03,0 -0.03,0 -0.02,0 -0.03,0 -0.03,-0.01 -0.01,0 -0.02,0 -0.01,0 -0.01,-0.01 -0.02,0 -0.01,0 -0.01,-0.01 -0.02,0 -0.01,-0.01 -0.01,-0.01 -0.02,0 -0.01,-0.01 -0.01,-0.01 -0.02,0 -0.01,-0.01 -0.01,-0.01 -0.02,-0.01 -0.01,-0.01 -0.01,-0.02 -0.02,-0.01 c -0.16,-0.15 -0.17,-0.32 -0.17,-0.39 0,-0.23 0.17,-0.34 0.36,-0.34 0.29,0 0.56,0.23 0.56,0.63 0,0.49 -0.47,0.86 -1.17,0.86 -1.35,0 -2.67,-1.43 -2.67,-2.83 0,-0.89 0.58,-1.67 1.61,-1.67 1.42,0 2.26,1.05 2.26,1.17 0,0.06 -0.06,0.13 -0.12,0.13 -0.05,0 -0.07,-0.02 -0.13,-0.1 -0.78,-0.99 -1.87,-0.99 -1.99,-0.99 -0.62,0 -0.89,0.49 -0.89,1.09 0,0.4 0.19,1.37 0.53,1.98 0.31,0.57 0.86,1 1.41,1 0.33,0 0.71,-0.13 0.85,-0.4 z"
         id="path4277"
         inkscape:connector-curvature="0"
         style="fill:#000000;stroke-width:0" /><path
         d="m 229.92,715.36 0,0 0,0 0,0 0,0 0,0 0.01,0 0,0 0,0.01 0,0 0,0 0,0.01 0,0 0,0 0,0.01 0,0 0,0.01 0.01,0 0,0.01 0,0.01 0,0.01 0,0 0,0 0,0.01 0.01,0 0,0.01 0,0 0,0 0,0.01 0,0 0,0 0,0 0,0 0,0 0,0 0,0.01 0,0 0,0 0,0 0,0 0,0 c 0,0.03 -0.03,0.1 -0.11,0.1 -0.14,0 -0.72,-0.06 -0.89,-0.07 -0.06,-0.01 -0.16,-0.02 -0.16,-0.16 0,-0.1 0.1,-0.1 0.19,-0.1 0.33,0 0.33,-0.05 0.33,-0.1 0,-0.05 -0.01,-0.1 -0.03,-0.16 l -0.98,-3.93 c -0.04,-0.13 -0.04,-0.14 -0.04,-0.16 0,-0.1 0.09,-0.22 0.24,-0.22 0.08,0 0.21,0.04 0.29,0.18 0.02,0.04 0.08,0.29 0.12,0.44 l 0.16,0.62 c 0.02,0.1 0.09,0.37 0.11,0.47 0.07,0.27 0.07,0.27 0.21,0.5 0.22,0.34 0.57,0.73 1.11,0.73 0.39,0 0.41,-0.32 0.41,-0.49 0,-0.41 -0.3,-1.18 -0.41,-1.48 -0.08,-0.19 -0.1,-0.25 -0.1,-0.37 0,-0.37 0.3,-0.6 0.66,-0.6 0.7,0 1,0.96 1,1.06 0,0.1 -0.09,0.1 -0.11,0.1 -0.1,0 -0.1,-0.05 -0.13,-0.12 -0.16,-0.56 -0.47,-0.85 -0.74,-0.85 -0.15,0 -0.18,0.1 -0.18,0.25 0,0.16 0.04,0.25 0.17,0.56 0.08,0.22 0.36,0.95 0.36,1.34 0,0.11 0,0.41 -0.25,0.61 -0.12,0.09 -0.32,0.19 -0.65,0.19 -0.51,0 -0.88,-0.28 -1.14,-0.58 z"
         id="path4279"
         inkscape:connector-curvature="0"
         style="fill:#000000;stroke-width:0" /><path
         d="m 230.08,709.08 0,0 0,0.01 0,0.01 0,0.01 0,0.01 0,0 0,0.01 0,0.01 -0.01,0 0,0.01 0,0.01 0,0 0,0.01 0,0 0,0.01 0,0 0,0.01 0,0 0,0.01 -0.01,0.01 0,0.01 0,0.01 -0.01,0 0,0.01 -0.01,0 0,0.01 -0.01,0 0,0 -0.01,0.01 -0.01,0 -0.01,0 -0.01,0 0,0 -0.01,0 0,0.01 -0.01,0 -0.01,0 0,0 -0.01,0 0,0 -0.01,0 -0.01,0 -0.01,0 0,0 -0.01,0 -0.01,0 -0.01,0 -0.01,0 0,0 -0.01,0 c -0.45,-0.44 -1.08,-0.45 -1.37,-0.45 v -0.25 c 0.17,0 0.63,0 1.01,0.2 v -3.55 c 0,-0.23 0,-0.32 -0.69,-0.32 h -0.27 v -0.25 c 0.13,0.01 0.98,0.03 1.24,0.03 0.22,0 1.09,-0.02 1.25,-0.03 v 0.25 h -0.27 c -0.69,0 -0.69,0.09 -0.69,0.32 z"
         id="path4281"
         inkscape:connector-curvature="0"
         style="fill:#000000;stroke-width:0" /></g>    <g
       style="font-style:normal;font-variant:normal;font-weight:normal;font-stretch:normal;letter-spacing:normal;word-spacing:normal;text-anchor:start;fill:none;stroke:#000000;stroke-linecap:butt;stroke-linejoin:miter;stroke-miterlimit:10.43299961;stroke-opacity:1;stroke-dasharray:none;stroke-dashoffset:0"
       ns0:preamble=""
       ns0:text="$c^t_1$"
       word-spacing="normal"
       letter-spacing="normal"
       font-size-adjust="none"
       font-stretch="normal"
       font-weight="normal"
       font-variant="normal"
       font-style="normal"
       stroke-miterlimit="10.433"
       xml:space="preserve"
       transform="matrix(1,0,0,-1,126.62264,867.39363)"
       id="g4404"><path
         id="path4406"
         d="m 227.37,710.9 -0.03,0 -0.03,0 -0.03,0 -0.02,0 -0.03,0 -0.03,-0.01 -0.01,0 -0.02,0 -0.01,0 -0.01,-0.01 -0.02,0 -0.01,0 -0.01,-0.01 -0.02,0 -0.01,-0.01 -0.01,-0.01 -0.02,0 -0.01,-0.01 -0.01,-0.01 -0.02,0 -0.01,-0.01 -0.01,-0.01 -0.02,-0.01 -0.01,-0.01 -0.01,-0.02 -0.02,-0.01 c -0.16,-0.15 -0.17,-0.32 -0.17,-0.39 0,-0.23 0.17,-0.34 0.36,-0.34 0.29,0 0.56,0.23 0.56,0.63 0,0.49 -0.47,0.86 -1.17,0.86 -1.35,0 -2.67,-1.43 -2.67,-2.83 0,-0.89 0.58,-1.67 1.61,-1.67 1.42,0 2.26,1.05 2.26,1.17 0,0.06 -0.06,0.13 -0.12,0.13 -0.05,0 -0.07,-0.02 -0.13,-0.1 -0.78,-0.99 -1.87,-0.99 -1.99,-0.99 -0.62,0 -0.89,0.49 -0.89,1.09 0,0.4 0.19,1.37 0.53,1.98 0.31,0.57 0.86,1 1.41,1 0.33,0 0.71,-0.13 0.85,-0.4 z"
         inkscape:connector-curvature="0"
         style="fill:#000000;stroke-width:0" /><path
         id="path4408"
         d="m 229.46,713.49 h 0.71 c 0.13,0 0.22,0 0.22,0.15 0,0.1 -0.09,0.1 -0.21,0.1 h -0.66 l 0.26,1.03 c 0,0.03 0.02,0.07 0.02,0.09 0,0.13 -0.1,0.23 -0.24,0.23 -0.17,0 -0.28,-0.12 -0.33,-0.3 -0.05,-0.18 0.04,0.16 -0.26,-1.05 h -0.71 c -0.13,0 -0.22,0 -0.22,-0.16 0,-0.09 0.08,-0.09 0.2,-0.09 h 0.67 l -0.42,-1.64 c -0.04,-0.18 -0.1,-0.43 -0.1,-0.52 0,-0.41 0.35,-0.66 0.75,-0.66 0.77,0 1.21,0.97 1.21,1.06 0,0.1 -0.09,0.1 -0.11,0.1 -0.09,0 -0.09,-0.02 -0.15,-0.14 -0.19,-0.43 -0.55,-0.83 -0.93,-0.83 -0.15,0 -0.25,0.1 -0.25,0.35 0,0.07 0.03,0.21 0.05,0.28 z"
         inkscape:connector-curvature="0"
         style="fill:#000000;stroke-width:0" /><path
         id="path4410"
         d="m 230.08,709.08 0,0 0,0.01 0,0.01 0,0.01 0,0.01 0,0 0,0.01 0,0.01 -0.01,0 0,0.01 0,0.01 0,0 0,0.01 0,0 0,0.01 0,0 0,0.01 0,0 0,0.01 -0.01,0.01 0,0.01 0,0.01 -0.01,0 0,0.01 -0.01,0 0,0.01 -0.01,0 0,0 -0.01,0.01 -0.01,0 -0.01,0 -0.01,0 0,0 -0.01,0 0,0.01 -0.01,0 -0.01,0 0,0 -0.01,0 0,0 -0.01,0 -0.01,0 -0.01,0 0,0 -0.01,0 -0.01,0 -0.01,0 -0.01,0 0,0 -0.01,0 c -0.45,-0.44 -1.08,-0.45 -1.37,-0.45 v -0.25 c 0.17,0 0.63,0 1.01,0.2 v -3.55 c 0,-0.23 0,-0.32 -0.69,-0.32 h -0.27 v -0.25 c 0.13,0.01 0.98,0.03 1.24,0.03 0.22,0 1.09,-0.02 1.25,-0.03 v 0.25 h -0.27 c -0.69,0 -0.69,0.09 -0.69,0.32 z"
         inkscape:connector-curvature="0"
         style="fill:#000000;stroke-width:0" /></g>    <path
       sodipodi:type="arc"
       style="fill:#000000;fill-opacity:1;fill-rule:evenodd;stroke:#000000;stroke-width:20.08763885;stroke-linecap:butt;stroke-miterlimit:4;stroke-opacity:1;stroke-dasharray:none;stroke-dashoffset:1"
       id="path2987-7"
       sodipodi:cx="171.78572"
       sodipodi:cy="116.6479"
       sodipodi:rx="43.214287"
       sodipodi:ry="45"
       d="m 215.00001,116.6479 c 0,24.85282 -19.3477,45 -43.21429,45 -23.86659,0 -43.21429,-20.14718 -43.21429,-45 0,-24.85281 19.3477,-44.999997 43.21429,-44.999997 23.86659,0 43.21429,20.147187 43.21429,44.999997 z"
       transform="matrix(0.12396696,0,0,0.12494424,67.409948,175.07891)" />
    <path
       sodipodi:type="arc"
       style="fill:#000000;fill-opacity:1;fill-rule:evenodd;stroke:#000000;stroke-width:20.08763885;stroke-linecap:butt;stroke-miterlimit:4;stroke-opacity:1;stroke-dasharray:none;stroke-dashoffset:1"
       id="path2987-1-1"
       sodipodi:cx="171.78572"
       sodipodi:cy="116.6479"
       sodipodi:rx="43.214287"
       sodipodi:ry="45"
       d="m 215.00001,116.6479 c 0,24.85282 -19.3477,45 -43.21429,45 -23.86659,0 -43.21429,-20.14718 -43.21429,-45 0,-24.85281 19.3477,-44.999997 43.21429,-44.999997 23.86659,0 43.21429,20.147187 43.21429,44.999997 z"
       transform="matrix(0.12396696,0,0,0.12494424,103.83852,175.02276)" />
    <path
       sodipodi:type="arc"
       style="fill:#000000;fill-opacity:1;fill-rule:evenodd;stroke:#000000;stroke-width:20.08763885;stroke-linecap:butt;stroke-miterlimit:4;stroke-opacity:1;stroke-dasharray:none;stroke-dashoffset:1"
       id="path2987-9-2"
       sodipodi:cx="171.78572"
       sodipodi:cy="116.6479"
       sodipodi:rx="43.214287"
       sodipodi:ry="45"
       d="m 215.00001,116.6479 c 0,24.85282 -19.3477,45 -43.21429,45 -23.86659,0 -43.21429,-20.14718 -43.21429,-45 0,-24.85281 19.3477,-44.999997 43.21429,-44.999997 23.86659,0 43.21429,20.147187 43.21429,44.999997 z"
       transform="matrix(0.12396696,0,0,0.12494424,139.00811,175.12601)" />
    <path
       sodipodi:type="arc"
       style="fill:#000000;fill-opacity:1;fill-rule:evenodd;stroke:#000000;stroke-width:20.08763885;stroke-linecap:butt;stroke-miterlimit:4;stroke-opacity:1;stroke-dasharray:none;stroke-dashoffset:1"
       id="path2987-6-9"
       sodipodi:cx="171.78572"
       sodipodi:cy="116.6479"
       sodipodi:rx="43.214287"
       sodipodi:ry="45"
       d="m 215.00001,116.6479 c 0,24.85282 -19.3477,45 -43.21429,45 -23.86659,0 -43.21429,-20.14718 -43.21429,-45 0,-24.85281 19.3477,-44.999997 43.21429,-44.999997 23.86659,0 43.21429,20.147187 43.21429,44.999997 z"
       transform="matrix(0.12396696,0,0,0.12494424,177.05281,174.95778)" />
    <path
       sodipodi:type="arc"
       style="fill:#000000;fill-opacity:1;fill-rule:evenodd;stroke:#000000;stroke-width:20.08763885;stroke-linecap:butt;stroke-miterlimit:4;stroke-opacity:1;stroke-dasharray:none;stroke-dashoffset:1"
       id="path2987-9-6-0"
       sodipodi:cx="171.78572"
       sodipodi:cy="116.6479"
       sodipodi:rx="43.214287"
       sodipodi:ry="45"
       d="m 215.00001,116.6479 c 0,24.85282 -19.3477,45 -43.21429,45 -23.86659,0 -43.21429,-20.14718 -43.21429,-45 0,-24.85281 19.3477,-44.999997 43.21429,-44.999997 23.86659,0 43.21429,20.147187 43.21429,44.999997 z"
       transform="matrix(0.12396696,0,0,0.12494424,214.10707,174.83058)" />
    <path
       sodipodi:type="arc"
       style="fill:#000000;fill-opacity:1;fill-rule:evenodd;stroke:#000000;stroke-width:20.08763885;stroke-linecap:butt;stroke-miterlimit:4;stroke-opacity:1;stroke-dasharray:none;stroke-dashoffset:1"
       id="path2987-6-5-9"
       sodipodi:cx="171.78572"
       sodipodi:cy="116.6479"
       sodipodi:rx="43.214287"
       sodipodi:ry="45"
       d="m 215.00001,116.6479 c 0,24.85282 -19.3477,45 -43.21429,45 -23.86659,0 -43.21429,-20.14718 -43.21429,-45 0,-24.85281 19.3477,-44.999997 43.21429,-44.999997 23.86659,0 43.21429,20.147187 43.21429,44.999997 z"
       transform="matrix(0.12396696,0,0,0.12494424,252.15177,174.66235)" />
    <path
       sodipodi:type="arc"
       style="fill:#000000;fill-opacity:1;fill-rule:evenodd;stroke:#000000;stroke-width:20.08763885;stroke-linecap:butt;stroke-miterlimit:4;stroke-opacity:1;stroke-dasharray:none;stroke-dashoffset:1"
       id="path2987-6-7-2-7"
       sodipodi:cx="171.78572"
       sodipodi:cy="116.6479"
       sodipodi:rx="43.214287"
       sodipodi:ry="45"
       d="m 215.00001,116.6479 c 0,24.85282 -19.3477,45 -43.21429,45 -23.86659,0 -43.21429,-20.14718 -43.21429,-45 0,-24.85281 19.3477,-44.999997 43.21429,-44.999997 23.86659,0 43.21429,20.147187 43.21429,44.999997 z"
       transform="matrix(0.12396696,0,0,0.12494424,290.83992,174.43939)" />
    <path
       sodipodi:type="arc"
       style="fill:#000000;fill-opacity:1;fill-rule:evenodd;stroke:#000000;stroke-width:20.08763885;stroke-linecap:butt;stroke-miterlimit:4;stroke-opacity:1;stroke-dasharray:none;stroke-dashoffset:1"
       id="path2987-6-0-3-2"
       sodipodi:cx="171.78572"
       sodipodi:cy="116.6479"
       sodipodi:rx="43.214287"
       sodipodi:ry="45"
       d="m 215.00001,116.6479 c 0,24.85282 -19.3477,45 -43.21429,45 -23.86659,0 -43.21429,-20.14718 -43.21429,-45 0,-24.85281 19.3477,-44.999997 43.21429,-44.999997 23.86659,0 43.21429,20.147187 43.21429,44.999997 z"
       transform="matrix(0.12396696,0,0,0.12494424,331.49855,174.43939)" />
    <path
       style="fill:none;stroke:#000000;stroke-width:2;stroke-linecap:butt;stroke-linejoin:miter;stroke-miterlimit:4;stroke-opacity:0.47031962;stroke-dasharray:none"
       d="M 88.922805,189.20853 198.85,189.41008"
       id="path4046-9"
       inkscape:connector-curvature="0" />
    <path
       style="fill:none;stroke:#000000;stroke-width:2;stroke-linecap:butt;stroke-linejoin:miter;stroke-miterlimit:4;stroke-opacity:0.47031962;stroke-dasharray:none"
       d="m 234.13526,189.28343 118.49805,-0.50507"
       id="path4046-5-4"
       inkscape:connector-curvature="0" />
    <path
       style="fill:none;stroke:#000000;stroke-width:2;stroke-linecap:butt;stroke-linejoin:miter;stroke-miterlimit:4;stroke-opacity:0.47031962;stroke-dasharray:none"
       d="m 238.57143,188.98231 c 37.78778,-32.04909 75.4416,-27.31721 113.31948,-0.50507"
       id="path4046-5-7-7"
       inkscape:connector-curvature="0"
       sodipodi:nodetypes="cc" />
    <g
       id="g4755"
       transform="matrix(1,0,0,-1,-139.25604,912.54888)"
       xml:space="preserve"
       stroke-miterlimit="10.433"
       font-style="normal"
       font-variant="normal"
       font-weight="normal"
       font-stretch="normal"
       font-size-adjust="none"
       letter-spacing="normal"
       word-spacing="normal"
       ns0:text="$a^t_2$"
       ns0:preamble=""
       style="font-style:normal;font-variant:normal;font-weight:normal;font-stretch:normal;letter-spacing:normal;word-spacing:normal;text-anchor:start;fill:none;stroke:#000000;stroke-linecap:butt;stroke-linejoin:miter;stroke-miterlimit:10.43299961;stroke-opacity:1;stroke-dasharray:none;stroke-dashoffset:0"><path
         d="m 227.14,710.88 -0.01,0.03 -0.02,0.04 -0.02,0.03 -0.02,0.03 -0.02,0.03 -0.02,0.03 -0.02,0.03 -0.02,0.03 -0.03,0.03 -0.02,0.03 -0.02,0.03 -0.03,0.02 -0.02,0.03 -0.03,0.02 -0.03,0.02 -0.02,0.03 -0.03,0.02 -0.03,0.02 -0.03,0.01 -0.03,0.02 -0.04,0.02 -0.03,0.01 -0.03,0.02 -0.04,0.01 -0.03,0.01 -0.04,0.01 -0.03,0.01 -0.04,0 -0.04,0.01 -0.04,0 -0.04,0.01 -0.04,0 c -1.17,0 -2.4,-1.47 -2.4,-2.92 0,-0.93 0.55,-1.58 1.32,-1.58 l 0.02,0.21 c -0.49,0 -0.63,0.55 -0.63,0.94 0,0.49 0.31,1.72 0.54,2.17 0.31,0.59 0.76,0.96 1.16,0.96 0.64,0 0.78,-0.82 0.78,-0.88 0,-0.06 -0.02,-0.12 -0.03,-0.17 l -0.49,-1.94 c -0.05,-0.18 -0.05,-0.2 -0.2,-0.37 -0.44,-0.55 -0.85,-0.71 -1.13,-0.71 l -0.02,-0.21 c 0.2,0 0.7,0.03 1.3,0.74 0.08,-0.42 0.42,-0.74 0.9,-0.74 0.35,0 0.58,0.22 0.74,0.54 0.17,0.36 0.3,0.97 0.3,0.99 0,0.1 -0.09,0.1 -0.12,0.1 -0.1,0 -0.11,-0.05 -0.14,-0.18 -0.17,-0.65 -0.35,-1.24 -0.76,-1.24 -0.27,0 -0.3,0.26 -0.3,0.46 0,0.22 0.02,0.3 0.13,0.74 0.11,0.41 0.13,0.51 0.22,0.89 l 0.36,1.39 c 0.07,0.28 0.07,0.3 0.07,0.34 0,0.17 -0.12,0.27 -0.29,0.27 -0.24,0 -0.39,-0.22 -0.42,-0.44 z"
         id="path4757"
         inkscape:connector-curvature="0"
         style="fill:#000000;stroke-width:0" /><path
         d="m 230.41,713.49 h 0.71 c 0.13,0 0.22,0 0.22,0.15 0,0.1 -0.09,0.1 -0.2,0.1 h -0.67 l 0.26,1.03 c 0.01,0.03 0.02,0.07 0.02,0.09 0,0.13 -0.1,0.23 -0.23,0.23 -0.18,0 -0.28,-0.12 -0.33,-0.3 -0.05,-0.18 0.04,0.16 -0.27,-1.05 h -0.71 c -0.13,0 -0.22,0 -0.22,-0.16 0,-0.09 0.08,-0.09 0.21,-0.09 h 0.66 l -0.41,-1.64 c -0.04,-0.18 -0.1,-0.43 -0.1,-0.52 0,-0.41 0.34,-0.66 0.74,-0.66 0.77,0 1.21,0.97 1.21,1.06 0,0.1 -0.09,0.1 -0.11,0.1 -0.08,0 -0.09,-0.02 -0.15,-0.14 -0.19,-0.43 -0.55,-0.83 -0.93,-0.83 -0.15,0 -0.24,0.1 -0.24,0.35 0,0.07 0.03,0.21 0.04,0.28 z"
         id="path4759"
         inkscape:connector-curvature="0"
         style="fill:#000000;stroke-width:0" /><path
         d="m 232.21,705.92 h -0.23 c -0.02,-0.15 -0.09,-0.57 -0.18,-0.64 -0.06,-0.04 -0.59,-0.04 -0.69,-0.04 h -1.28 c 0.73,0.65 0.97,0.84 1.39,1.17 0.51,0.41 0.99,0.84 0.99,1.5 0,0.85 -0.73,1.36 -1.62,1.36 -0.87,0 -1.45,-0.61 -1.45,-1.24 0,-0.36 0.3,-0.39 0.37,-0.39 0.16,0 0.37,0.11 0.37,0.36 0,0.13 -0.05,0.37 -0.42,0.37 0.22,0.5 0.69,0.65 1.02,0.65 0.7,0 1.06,-0.54 1.06,-1.11 0,-0.6 -0.43,-1.08 -0.66,-1.33 l -1.67,-1.66 c -0.07,-0.06 -0.07,-0.07 -0.07,-0.27 h 2.87 z"
         id="path4761"
         inkscape:connector-curvature="0"
         style="fill:#000000;stroke-width:0" /></g>    <g
       style="font-style:normal;font-variant:normal;font-weight:normal;font-stretch:normal;letter-spacing:normal;word-spacing:normal;text-anchor:start;fill:none;stroke:#000000;stroke-linecap:butt;stroke-linejoin:miter;stroke-miterlimit:10.43299961;stroke-opacity:1;stroke-dasharray:none;stroke-dashoffset:0"
       ns0:preamble=""
       ns0:text="$a^h_2$"
       word-spacing="normal"
       letter-spacing="normal"
       font-size-adjust="none"
       font-stretch="normal"
       font-weight="normal"
       font-variant="normal"
       font-style="normal"
       stroke-miterlimit="10.433"
       xml:space="preserve"
       transform="matrix(1,0,0,-1,-102.00584,913.00957)"
       id="g4979"><path
         id="path4981"
         d="m 227.14,710.88 -0.01,0.03 -0.02,0.04 -0.02,0.03 -0.02,0.03 -0.02,0.03 -0.02,0.03 -0.02,0.03 -0.02,0.03 -0.03,0.03 -0.02,0.03 -0.02,0.03 -0.03,0.02 -0.02,0.03 -0.03,0.02 -0.03,0.02 -0.02,0.03 -0.03,0.02 -0.03,0.02 -0.03,0.01 -0.03,0.02 -0.04,0.02 -0.03,0.01 -0.03,0.02 -0.04,0.01 -0.03,0.01 -0.04,0.01 -0.03,0.01 -0.04,0 -0.04,0.01 -0.04,0 -0.04,0.01 -0.04,0 c -1.17,0 -2.4,-1.47 -2.4,-2.92 0,-0.93 0.55,-1.58 1.32,-1.58 l 0.02,0.21 c -0.49,0 -0.63,0.55 -0.63,0.94 0,0.49 0.31,1.72 0.54,2.17 0.31,0.59 0.76,0.96 1.16,0.96 0.64,0 0.78,-0.82 0.78,-0.88 0,-0.06 -0.02,-0.12 -0.03,-0.17 l -0.49,-1.94 c -0.05,-0.18 -0.05,-0.2 -0.2,-0.37 -0.44,-0.55 -0.85,-0.71 -1.13,-0.71 l -0.02,-0.21 c 0.2,0 0.7,0.03 1.3,0.74 0.08,-0.42 0.42,-0.74 0.9,-0.74 0.35,0 0.58,0.22 0.74,0.54 0.17,0.36 0.3,0.97 0.3,0.99 0,0.1 -0.09,0.1 -0.12,0.1 -0.1,0 -0.11,-0.05 -0.14,-0.18 -0.17,-0.65 -0.35,-1.24 -0.76,-1.24 -0.27,0 -0.3,0.26 -0.3,0.46 0,0.22 0.02,0.3 0.13,0.74 0.11,0.41 0.13,0.51 0.22,0.89 l 0.36,1.39 c 0.07,0.28 0.07,0.3 0.07,0.34 0,0.17 -0.12,0.27 -0.29,0.27 -0.24,0 -0.39,-0.22 -0.42,-0.44 z"
         inkscape:connector-curvature="0"
         style="fill:#000000;stroke-width:0" /><path
         id="path4983"
         d="m 230.88,715.36 0,0 0,0 0,0 0,0 0,0 0,0 0,0 0,0.01 0,0 0,0 0,0.01 0.01,0 0,0 0,0.01 0,0 0,0.01 0,0 0,0.01 0,0.01 0.01,0.01 0,0 0,0 0,0.01 0,0 0,0.01 0,0 0,0 0,0.01 0,0 0,0 0,0 0.01,0 0,0 0,0 0,0.01 0,0 0,0 0,0 0,0 0,0 c 0,0.03 -0.03,0.1 -0.12,0.1 -0.14,0 -0.71,-0.06 -0.89,-0.07 -0.05,-0.01 -0.15,-0.02 -0.15,-0.16 0,-0.1 0.1,-0.1 0.18,-0.1 0.33,0 0.33,-0.05 0.33,-0.1 0,-0.05 -0.01,-0.1 -0.02,-0.16 l -0.98,-3.93 c -0.04,-0.13 -0.04,-0.14 -0.04,-0.16 0,-0.1 0.08,-0.22 0.24,-0.22 0.07,0 0.21,0.04 0.28,0.18 0.02,0.04 0.09,0.29 0.12,0.44 l 0.16,0.62 c 0.02,0.1 0.09,0.37 0.11,0.47 0.07,0.27 0.07,0.27 0.21,0.5 0.22,0.34 0.57,0.73 1.12,0.73 0.39,0 0.41,-0.32 0.41,-0.49 0,-0.41 -0.3,-1.18 -0.41,-1.48 -0.08,-0.19 -0.11,-0.25 -0.11,-0.37 0,-0.37 0.31,-0.6 0.66,-0.6 0.7,0 1.01,0.96 1.01,1.06 0,0.1 -0.09,0.1 -0.12,0.1 -0.09,0 -0.1,-0.05 -0.13,-0.12 -0.16,-0.56 -0.46,-0.85 -0.74,-0.85 -0.14,0 -0.17,0.1 -0.17,0.25 0,0.16 0.04,0.25 0.16,0.56 0.08,0.22 0.37,0.95 0.37,1.34 0,0.11 0,0.41 -0.26,0.61 -0.12,0.09 -0.32,0.19 -0.65,0.19 -0.5,0 -0.87,-0.28 -1.13,-0.58 z"
         inkscape:connector-curvature="0"
         style="fill:#000000;stroke-width:0" /><path
         id="path4985"
         d="m 232.21,705.92 h -0.23 c -0.02,-0.15 -0.09,-0.57 -0.18,-0.64 -0.06,-0.04 -0.59,-0.04 -0.69,-0.04 h -1.28 c 0.73,0.65 0.97,0.84 1.39,1.17 0.51,0.41 0.99,0.84 0.99,1.5 0,0.85 -0.73,1.36 -1.62,1.36 -0.87,0 -1.45,-0.61 -1.45,-1.24 0,-0.36 0.3,-0.39 0.37,-0.39 0.16,0 0.37,0.11 0.37,0.36 0,0.13 -0.05,0.37 -0.42,0.37 0.22,0.5 0.69,0.65 1.02,0.65 0.7,0 1.06,-0.54 1.06,-1.11 0,-0.6 -0.43,-1.08 -0.66,-1.33 l -1.67,-1.66 c -0.07,-0.06 -0.07,-0.07 -0.07,-0.27 h 2.87 z"
         inkscape:connector-curvature="0"
         style="fill:#000000;stroke-width:0" /></g>    <g
       id="g6099"
       transform="matrix(1,0,0,-1,7.27123,912.13204)"
       xml:space="preserve"
       stroke-miterlimit="10.433"
       font-style="normal"
       font-variant="normal"
       font-weight="normal"
       font-stretch="normal"
       font-size-adjust="none"
       letter-spacing="normal"
       word-spacing="normal"
       ns0:text="$d^h_2$"
       ns0:preamble=""
       style="font-style:normal;font-variant:normal;font-weight:normal;font-stretch:normal;letter-spacing:normal;word-spacing:normal;text-anchor:start;fill:none;stroke:#000000;stroke-linecap:butt;stroke-linejoin:miter;stroke-miterlimit:10.43299961;stroke-opacity:1;stroke-dasharray:none;stroke-dashoffset:0"><path
         d="m 228.57,713.91 0,0 0,0 0,0 0,0 0,0.01 0,0 0,0 -0.01,0.01 0,0 0,0.01 0,0 0,0 0,0.01 0,0 0,0.01 -0.01,0 0,0.01 0,0 -0.01,0.01 0,0 -0.01,0.01 0,0 0,0 0,0 -0.01,0.01 0,0 0,0 -0.01,0 0,0 0,0.01 -0.01,0 0,0 0,0 -0.01,0 0,0 -0.01,0 0,0 -0.01,0.01 0,0 -0.01,0 0,0 -0.01,0 0,0 -0.01,0 0,0 c -0.15,0 -1.1,-0.09 -1.27,-0.11 -0.08,-0.01 -0.14,-0.06 -0.14,-0.19 0,-0.12 0.09,-0.12 0.24,-0.12 0.48,0 0.5,-0.07 0.5,-0.17 l -0.03,-0.2 -0.6,-2.35 c -0.18,0.37 -0.46,0.64 -0.91,0.64 -1.17,0 -2.4,-1.47 -2.4,-2.92 0,-0.93 0.55,-1.58 1.32,-1.58 l 0.02,0.21 c -0.49,0 -0.63,0.55 -0.63,0.94 0,0.49 0.31,1.72 0.54,2.17 0.31,0.59 0.76,0.96 1.16,0.96 0.64,0 0.78,-0.82 0.78,-0.88 0,-0.06 -0.02,-0.12 -0.03,-0.17 l -0.49,-1.94 c -0.05,-0.18 -0.05,-0.2 -0.2,-0.37 -0.44,-0.55 -0.85,-0.71 -1.13,-0.71 l -0.02,-0.21 c 0.2,0 0.7,0.03 1.3,0.74 0.08,-0.42 0.42,-0.74 0.9,-0.74 0.35,0 0.58,0.22 0.74,0.54 0.17,0.36 0.3,0.97 0.3,0.99 0,0.1 -0.09,0.1 -0.12,0.1 -0.1,0 -0.11,-0.05 -0.14,-0.18 -0.17,-0.65 -0.35,-1.24 -0.76,-1.24 -0.27,0 -0.3,0.26 -0.3,0.46 0,0.24 0.02,0.31 0.06,0.48 z"
         id="path6101"
         inkscape:connector-curvature="0"
         style="fill:#000000;stroke-width:0" /><path
         d="m 230.8,715.36 0,0 0,0 0,0 0,0 0,0 0,0 0,0 0,0.01 0,0 0,0 0,0.01 0.01,0 0,0 0,0.01 0,0 0,0.01 0,0 0,0.01 0,0.01 0.01,0.01 0,0 0,0 0,0.01 0,0 0,0.01 0,0 0,0 0,0.01 0,0 0,0 0,0 0.01,0 0,0 0,0 0,0.01 0,0 0,0 0,0 0,0 0,0 c 0,0.03 -0.03,0.1 -0.12,0.1 -0.14,0 -0.71,-0.06 -0.89,-0.07 -0.05,-0.01 -0.15,-0.02 -0.15,-0.16 0,-0.1 0.1,-0.1 0.18,-0.1 0.33,0 0.33,-0.05 0.33,-0.1 0,-0.05 -0.01,-0.1 -0.02,-0.16 l -0.98,-3.93 c -0.04,-0.13 -0.04,-0.14 -0.04,-0.16 0,-0.1 0.08,-0.22 0.24,-0.22 0.07,0 0.21,0.04 0.28,0.18 0.02,0.04 0.09,0.29 0.12,0.44 l 0.16,0.62 c 0.02,0.1 0.09,0.37 0.11,0.47 0.07,0.27 0.07,0.27 0.21,0.5 0.22,0.34 0.57,0.73 1.12,0.73 0.39,0 0.41,-0.32 0.41,-0.49 0,-0.41 -0.3,-1.18 -0.41,-1.48 -0.08,-0.19 -0.11,-0.25 -0.11,-0.37 0,-0.37 0.31,-0.6 0.66,-0.6 0.7,0 1.01,0.96 1.01,1.06 0,0.1 -0.09,0.1 -0.12,0.1 -0.09,0 -0.1,-0.05 -0.13,-0.12 -0.16,-0.56 -0.46,-0.85 -0.74,-0.85 -0.14,0 -0.17,0.1 -0.17,0.25 0,0.16 0.04,0.25 0.16,0.56 0.08,0.22 0.37,0.95 0.37,1.34 0,0.11 0,0.41 -0.26,0.61 -0.12,0.09 -0.32,0.19 -0.65,0.19 -0.5,0 -0.87,-0.28 -1.13,-0.58 z"
         id="path6103"
         inkscape:connector-curvature="0"
         style="fill:#000000;stroke-width:0" /><path
         d="m 232.13,705.92 h -0.23 c -0.02,-0.15 -0.09,-0.57 -0.18,-0.64 -0.06,-0.04 -0.6,-0.04 -0.69,-0.04 h -1.28 c 0.73,0.65 0.97,0.84 1.39,1.17 0.51,0.41 0.99,0.84 0.99,1.5 0,0.85 -0.73,1.36 -1.62,1.36 -0.87,0 -1.45,-0.61 -1.45,-1.24 0,-0.36 0.3,-0.39 0.37,-0.39 0.16,0 0.36,0.11 0.36,0.36 0,0.13 -0.04,0.37 -0.41,0.37 0.22,0.5 0.69,0.65 1.02,0.65 0.7,0 1.06,-0.54 1.06,-1.11 0,-0.6 -0.43,-1.08 -0.66,-1.33 l -1.67,-1.66 c -0.07,-0.06 -0.07,-0.07 -0.07,-0.27 h 2.87 z"
         id="path6105"
         inkscape:connector-curvature="0"
         style="fill:#000000;stroke-width:0" /></g>    <g
       style="font-style:normal;font-variant:normal;font-weight:normal;font-stretch:normal;letter-spacing:normal;word-spacing:normal;text-anchor:start;fill:none;stroke:#000000;stroke-linecap:butt;stroke-linejoin:miter;stroke-miterlimit:10.43299961;stroke-opacity:1;stroke-dasharray:none;stroke-dashoffset:0"
       ns0:preamble=""
       ns0:text="$d^t_2$"
       word-spacing="normal"
       letter-spacing="normal"
       font-size-adjust="none"
       font-stretch="normal"
       font-weight="normal"
       font-variant="normal"
       font-style="normal"
       stroke-miterlimit="10.433"
       xml:space="preserve"
       transform="matrix(1,0,0,-1,46.36405,911.56235)"
       id="g6323"><path
         id="path6325"
         d="m 228.57,713.91 0,0 0,0 0,0 0,0 0,0.01 0,0 0,0 -0.01,0.01 0,0 0,0.01 0,0 0,0 0,0.01 0,0 0,0.01 -0.01,0 0,0.01 0,0 -0.01,0.01 0,0 -0.01,0.01 0,0 0,0 0,0 -0.01,0.01 0,0 0,0 -0.01,0 0,0 0,0.01 -0.01,0 0,0 0,0 -0.01,0 0,0 -0.01,0 0,0 -0.01,0.01 0,0 -0.01,0 0,0 -0.01,0 0,0 -0.01,0 0,0 c -0.15,0 -1.1,-0.09 -1.27,-0.11 -0.08,-0.01 -0.14,-0.06 -0.14,-0.19 0,-0.12 0.09,-0.12 0.24,-0.12 0.48,0 0.5,-0.07 0.5,-0.17 l -0.03,-0.2 -0.6,-2.35 c -0.18,0.37 -0.46,0.64 -0.91,0.64 -1.17,0 -2.4,-1.47 -2.4,-2.92 0,-0.93 0.55,-1.58 1.32,-1.58 l 0.02,0.21 c -0.49,0 -0.63,0.55 -0.63,0.94 0,0.49 0.31,1.72 0.54,2.17 0.31,0.59 0.76,0.96 1.16,0.96 0.64,0 0.78,-0.82 0.78,-0.88 0,-0.06 -0.02,-0.12 -0.03,-0.17 l -0.49,-1.94 c -0.05,-0.18 -0.05,-0.2 -0.2,-0.37 -0.44,-0.55 -0.85,-0.71 -1.13,-0.71 l -0.02,-0.21 c 0.2,0 0.7,0.03 1.3,0.74 0.08,-0.42 0.42,-0.74 0.9,-0.74 0.35,0 0.58,0.22 0.74,0.54 0.17,0.36 0.3,0.97 0.3,0.99 0,0.1 -0.09,0.1 -0.12,0.1 -0.1,0 -0.11,-0.05 -0.14,-0.18 -0.17,-0.65 -0.35,-1.24 -0.76,-1.24 -0.27,0 -0.3,0.26 -0.3,0.46 0,0.24 0.02,0.31 0.06,0.48 z"
         inkscape:connector-curvature="0"
         style="fill:#000000;stroke-width:0" /><path
         id="path6327"
         d="m 230.33,713.49 h 0.71 c 0.13,0 0.22,0 0.22,0.15 0,0.1 -0.09,0.1 -0.2,0.1 h -0.67 l 0.26,1.03 c 0.01,0.03 0.02,0.07 0.02,0.09 0,0.13 -0.1,0.23 -0.23,0.23 -0.18,0 -0.28,-0.12 -0.33,-0.3 -0.05,-0.18 0.04,0.16 -0.27,-1.05 h -0.71 c -0.13,0 -0.22,0 -0.22,-0.16 0,-0.09 0.08,-0.09 0.21,-0.09 h 0.66 l -0.41,-1.64 c -0.04,-0.18 -0.1,-0.43 -0.1,-0.52 0,-0.41 0.34,-0.66 0.74,-0.66 0.77,0 1.21,0.97 1.21,1.06 0,0.1 -0.09,0.1 -0.11,0.1 -0.08,0 -0.09,-0.02 -0.15,-0.14 -0.19,-0.43 -0.55,-0.83 -0.93,-0.83 -0.14,0 -0.24,0.1 -0.24,0.35 0,0.07 0.03,0.21 0.04,0.28 z"
         inkscape:connector-curvature="0"
         style="fill:#000000;stroke-width:0" /><path
         id="path6329"
         d="m 232.13,705.92 h -0.23 c -0.02,-0.15 -0.09,-0.57 -0.18,-0.64 -0.06,-0.04 -0.6,-0.04 -0.69,-0.04 h -1.28 c 0.73,0.65 0.97,0.84 1.39,1.17 0.51,0.41 0.99,0.84 0.99,1.5 0,0.85 -0.73,1.36 -1.62,1.36 -0.87,0 -1.45,-0.61 -1.45,-1.24 0,-0.36 0.3,-0.39 0.37,-0.39 0.16,0 0.36,0.11 0.36,0.36 0,0.13 -0.04,0.37 -0.41,0.37 0.22,0.5 0.69,0.65 1.02,0.65 0.7,0 1.06,-0.54 1.06,-1.11 0,-0.6 -0.43,-1.08 -0.66,-1.33 l -1.67,-1.66 c -0.07,-0.06 -0.07,-0.07 -0.07,-0.27 h 2.87 z"
         inkscape:connector-curvature="0"
         style="fill:#000000;stroke-width:0" /></g>    <g
       id="g6547"
       transform="matrix(1,0,0,-1,84.88191,911.88377)"
       xml:space="preserve"
       stroke-miterlimit="10.433"
       font-style="normal"
       font-variant="normal"
       font-weight="normal"
       font-stretch="normal"
       font-size-adjust="none"
       letter-spacing="normal"
       word-spacing="normal"
       ns0:text="$c^h_2$"
       ns0:preamble=""
       style="font-style:normal;font-variant:normal;font-weight:normal;font-stretch:normal;letter-spacing:normal;word-spacing:normal;text-anchor:start;fill:none;stroke:#000000;stroke-linecap:butt;stroke-linejoin:miter;stroke-miterlimit:10.43299961;stroke-opacity:1;stroke-dasharray:none;stroke-dashoffset:0"><path
         d="m 227.37,710.9 -0.03,0 -0.03,0 -0.03,0 -0.02,0 -0.03,0 -0.03,-0.01 -0.01,0 -0.02,0 -0.01,0 -0.01,-0.01 -0.02,0 -0.01,0 -0.01,-0.01 -0.02,0 -0.01,-0.01 -0.01,-0.01 -0.02,0 -0.01,-0.01 -0.01,-0.01 -0.02,0 -0.01,-0.01 -0.01,-0.01 -0.02,-0.01 -0.01,-0.01 -0.01,-0.02 -0.02,-0.01 c -0.16,-0.15 -0.17,-0.32 -0.17,-0.39 0,-0.23 0.17,-0.34 0.36,-0.34 0.29,0 0.56,0.23 0.56,0.63 0,0.49 -0.47,0.86 -1.17,0.86 -1.35,0 -2.67,-1.43 -2.67,-2.83 0,-0.89 0.58,-1.67 1.61,-1.67 1.42,0 2.26,1.05 2.26,1.17 0,0.06 -0.06,0.13 -0.12,0.13 -0.05,0 -0.07,-0.02 -0.13,-0.1 -0.78,-0.99 -1.87,-0.99 -1.99,-0.99 -0.62,0 -0.89,0.49 -0.89,1.09 0,0.4 0.19,1.37 0.53,1.98 0.31,0.57 0.86,1 1.41,1 0.33,0 0.71,-0.13 0.85,-0.4 z"
         id="path6549"
         inkscape:connector-curvature="0"
         style="fill:#000000;stroke-width:0" /><path
         d="m 229.92,715.36 0,0 0,0 0,0 0,0 0,0 0.01,0 0,0 0,0.01 0,0 0,0 0,0.01 0,0 0,0 0,0.01 0,0 0,0.01 0.01,0 0,0.01 0,0.01 0,0.01 0,0 0,0 0,0.01 0.01,0 0,0.01 0,0 0,0 0,0.01 0,0 0,0 0,0 0,0 0,0 0,0 0,0.01 0,0 0,0 0,0 0,0 0,0 c 0,0.03 -0.03,0.1 -0.11,0.1 -0.14,0 -0.72,-0.06 -0.89,-0.07 -0.06,-0.01 -0.16,-0.02 -0.16,-0.16 0,-0.1 0.1,-0.1 0.19,-0.1 0.33,0 0.33,-0.05 0.33,-0.1 0,-0.05 -0.01,-0.1 -0.03,-0.16 l -0.98,-3.93 c -0.04,-0.13 -0.04,-0.14 -0.04,-0.16 0,-0.1 0.09,-0.22 0.24,-0.22 0.08,0 0.21,0.04 0.29,0.18 0.02,0.04 0.08,0.29 0.12,0.44 l 0.16,0.62 c 0.02,0.1 0.09,0.37 0.11,0.47 0.07,0.27 0.07,0.27 0.21,0.5 0.22,0.34 0.57,0.73 1.11,0.73 0.39,0 0.41,-0.32 0.41,-0.49 0,-0.41 -0.3,-1.18 -0.41,-1.48 -0.08,-0.19 -0.1,-0.25 -0.1,-0.37 0,-0.37 0.3,-0.6 0.66,-0.6 0.7,0 1,0.96 1,1.06 0,0.1 -0.09,0.1 -0.11,0.1 -0.1,0 -0.1,-0.05 -0.13,-0.12 -0.16,-0.56 -0.47,-0.85 -0.74,-0.85 -0.15,0 -0.18,0.1 -0.18,0.25 0,0.16 0.04,0.25 0.17,0.56 0.08,0.22 0.36,0.95 0.36,1.34 0,0.11 0,0.41 -0.25,0.61 -0.12,0.09 -0.32,0.19 -0.65,0.19 -0.51,0 -0.88,-0.28 -1.14,-0.58 z"
         id="path6551"
         inkscape:connector-curvature="0"
         style="fill:#000000;stroke-width:0" /><path
         d="m 231.26,705.92 h -0.24 c -0.02,-0.15 -0.09,-0.57 -0.18,-0.64 -0.05,-0.04 -0.59,-0.04 -0.69,-0.04 h -1.28 c 0.73,0.65 0.98,0.84 1.39,1.17 0.52,0.41 1,0.84 1,1.5 0,0.85 -0.74,1.36 -1.63,1.36 -0.86,0 -1.45,-0.61 -1.45,-1.24 0,-0.36 0.3,-0.39 0.37,-0.39 0.17,0 0.37,0.11 0.37,0.36 0,0.13 -0.05,0.37 -0.41,0.37 0.22,0.5 0.69,0.65 1.02,0.65 0.69,0 1.05,-0.54 1.05,-1.11 0,-0.6 -0.43,-1.08 -0.65,-1.33 l -1.68,-1.66 c -0.07,-0.06 -0.07,-0.07 -0.07,-0.27 h 2.87 z"
         id="path6553"
         inkscape:connector-curvature="0"
         style="fill:#000000;stroke-width:0" /></g>    <g
       style="font-style:normal;font-variant:normal;font-weight:normal;font-stretch:normal;letter-spacing:normal;word-spacing:normal;text-anchor:start;fill:none;stroke:#000000;stroke-linecap:butt;stroke-linejoin:miter;stroke-miterlimit:10.43299961;stroke-opacity:1;stroke-dasharray:none;stroke-dashoffset:0"
       ns0:preamble=""
       ns0:text="$c^t_2$"
       word-spacing="normal"
       letter-spacing="normal"
       font-size-adjust="none"
       font-stretch="normal"
       font-weight="normal"
       font-variant="normal"
       font-style="normal"
       stroke-miterlimit="10.433"
       xml:space="preserve"
       transform="matrix(1,0,0,-1,126.39977,911.2052)"
       id="g6771"><path
         id="path6773"
         d="m 227.37,710.9 -0.03,0 -0.03,0 -0.03,0 -0.02,0 -0.03,0 -0.03,-0.01 -0.01,0 -0.02,0 -0.01,0 -0.01,-0.01 -0.02,0 -0.01,0 -0.01,-0.01 -0.02,0 -0.01,-0.01 -0.01,-0.01 -0.02,0 -0.01,-0.01 -0.01,-0.01 -0.02,0 -0.01,-0.01 -0.01,-0.01 -0.02,-0.01 -0.01,-0.01 -0.01,-0.02 -0.02,-0.01 c -0.16,-0.15 -0.17,-0.32 -0.17,-0.39 0,-0.23 0.17,-0.34 0.36,-0.34 0.29,0 0.56,0.23 0.56,0.63 0,0.49 -0.47,0.86 -1.17,0.86 -1.35,0 -2.67,-1.43 -2.67,-2.83 0,-0.89 0.58,-1.67 1.61,-1.67 1.42,0 2.26,1.05 2.26,1.17 0,0.06 -0.06,0.13 -0.12,0.13 -0.05,0 -0.07,-0.02 -0.13,-0.1 -0.78,-0.99 -1.87,-0.99 -1.99,-0.99 -0.62,0 -0.89,0.49 -0.89,1.09 0,0.4 0.19,1.37 0.53,1.98 0.31,0.57 0.86,1 1.41,1 0.33,0 0.71,-0.13 0.85,-0.4 z"
         inkscape:connector-curvature="0"
         style="fill:#000000;stroke-width:0" /><path
         id="path6775"
         d="m 229.46,713.49 h 0.71 c 0.13,0 0.22,0 0.22,0.15 0,0.1 -0.09,0.1 -0.21,0.1 h -0.66 l 0.26,1.03 c 0,0.03 0.02,0.07 0.02,0.09 0,0.13 -0.1,0.23 -0.24,0.23 -0.17,0 -0.28,-0.12 -0.33,-0.3 -0.05,-0.18 0.04,0.16 -0.26,-1.05 h -0.71 c -0.13,0 -0.22,0 -0.22,-0.16 0,-0.09 0.08,-0.09 0.2,-0.09 h 0.67 l -0.42,-1.64 c -0.04,-0.18 -0.1,-0.43 -0.1,-0.52 0,-0.41 0.35,-0.66 0.75,-0.66 0.77,0 1.21,0.97 1.21,1.06 0,0.1 -0.09,0.1 -0.11,0.1 -0.09,0 -0.09,-0.02 -0.15,-0.14 -0.19,-0.43 -0.55,-0.83 -0.93,-0.83 -0.15,0 -0.25,0.1 -0.25,0.35 0,0.07 0.03,0.21 0.05,0.28 z"
         inkscape:connector-curvature="0"
         style="fill:#000000;stroke-width:0" /><path
         id="path6777"
         d="m 231.26,705.92 h -0.24 c -0.02,-0.15 -0.09,-0.57 -0.18,-0.64 -0.05,-0.04 -0.59,-0.04 -0.69,-0.04 h -1.28 c 0.73,0.65 0.98,0.84 1.39,1.17 0.52,0.41 1,0.84 1,1.5 0,0.85 -0.74,1.36 -1.63,1.36 -0.86,0 -1.45,-0.61 -1.45,-1.24 0,-0.36 0.3,-0.39 0.37,-0.39 0.17,0 0.37,0.11 0.37,0.36 0,0.13 -0.05,0.37 -0.41,0.37 0.22,0.5 0.69,0.65 1.02,0.65 0.69,0 1.05,-0.54 1.05,-1.11 0,-0.6 -0.43,-1.08 -0.65,-1.33 l -1.68,-1.66 c -0.07,-0.06 -0.07,-0.07 -0.07,-0.27 h 2.87 z"
         inkscape:connector-curvature="0"
         style="fill:#000000;stroke-width:0" /></g>    <g
       id="g3623"
       transform="matrix(1,0,0,-1,-67.387812,913.00958)"
       xml:space="preserve"
       stroke-miterlimit="10.433"
       font-style="normal"
       font-variant="normal"
       font-weight="normal"
       font-stretch="normal"
       font-size-adjust="none"
       letter-spacing="normal"
       word-spacing="normal"
       ns0:text="$b^h_2$"
       ns0:preamble=""
       style="font-style:normal;font-variant:normal;font-weight:normal;font-stretch:normal;letter-spacing:normal;word-spacing:normal;text-anchor:start;fill:none;stroke:#000000;stroke-linecap:butt;stroke-linejoin:miter;stroke-miterlimit:10.43299961;stroke-opacity:1;stroke-dasharray:none;stroke-dashoffset:0"><path
         d="m 225.81,713.91 0,0 0,0 0,0 0,0 0,0.01 0,0 0,0 0,0.01 0,0 0,0.01 0,0 -0.01,0 0,0.01 0,0 0,0.01 0,0 -0.01,0.01 0,0 0,0.01 -0.01,0 0,0.01 0,0 -0.01,0 0,0 0,0.01 -0.01,0 0,0 0,0 0,0 -0.01,0.01 0,0 -0.01,0 0,0 0,0 -0.01,0 0,0 -0.01,0 0,0.01 -0.01,0 0,0 -0.01,0 0,0 -0.01,0 0,0 -0.01,0 c -0.23,0 -0.95,-0.08 -1.21,-0.1 -0.08,-0.01 -0.19,-0.02 -0.19,-0.2 0,-0.12 0.09,-0.12 0.24,-0.12 0.47,0 0.49,-0.07 0.49,-0.17 0,-0.07 -0.09,-0.4 -0.13,-0.61 l -0.82,-3.24 c -0.12,-0.5 -0.16,-0.66 -0.16,-1 0,-0.95 0.53,-1.56 1.26,-1.56 v 0.21 c -0.34,0 -0.66,0.27 -0.66,1.01 0,0.19 0,0.37 0.16,1 l 0.22,0.92 c 0.05,0.21 0.05,0.23 0.14,0.34 0.49,0.65 0.94,0.8 1.2,0.8 0.36,0 0.63,-0.3 0.63,-0.94 0,-0.58 -0.33,-1.72 -0.51,-2.1 -0.33,-0.67 -0.79,-1.03 -1.18,-1.03 v -0.21 c 1.18,0 2.4,1.48 2.4,2.91 0,0.9 -0.53,1.59 -1.32,1.59 -0.46,0 -0.87,-0.29 -1.17,-0.6 z"
         id="path3625"
         inkscape:connector-curvature="0"
         style="fill:#000000;stroke-width:0" /><path
         d="m 229.89,715.36 0,0 0,0 0,0 0,0 0,0 0,0 0,0 0,0.01 0,0 0,0 0,0.01 0.01,0 0,0 0,0.01 0,0 0,0.01 0,0 0,0.01 0,0.01 0.01,0.01 0,0 0,0 0,0.01 0,0 0,0.01 0,0 0,0 0,0.01 0,0 0,0 0,0 0.01,0 0,0 0,0 0,0.01 0,0 0,0 0,0 0,0 0,0 c 0,0.03 -0.03,0.1 -0.12,0.1 -0.14,0 -0.71,-0.06 -0.89,-0.07 -0.05,-0.01 -0.15,-0.02 -0.15,-0.16 0,-0.1 0.1,-0.1 0.18,-0.1 0.33,0 0.33,-0.05 0.33,-0.1 0,-0.05 -0.01,-0.1 -0.02,-0.16 l -0.99,-3.93 c -0.03,-0.13 -0.03,-0.14 -0.03,-0.16 0,-0.1 0.08,-0.22 0.24,-0.22 0.07,0 0.21,0.04 0.28,0.18 0.02,0.04 0.09,0.29 0.12,0.44 l 0.16,0.62 c 0.02,0.1 0.09,0.37 0.11,0.47 0.07,0.27 0.07,0.27 0.21,0.5 0.22,0.34 0.57,0.73 1.12,0.73 0.39,0 0.41,-0.32 0.41,-0.49 0,-0.41 -0.3,-1.18 -0.41,-1.48 -0.08,-0.19 -0.11,-0.25 -0.11,-0.37 0,-0.37 0.31,-0.6 0.66,-0.6 0.7,0 1.01,0.96 1.01,1.06 0,0.1 -0.1,0.1 -0.12,0.1 -0.09,0 -0.1,-0.05 -0.13,-0.12 -0.16,-0.56 -0.46,-0.85 -0.74,-0.85 -0.14,0 -0.17,0.1 -0.17,0.25 0,0.16 0.03,0.25 0.16,0.56 0.08,0.22 0.37,0.95 0.37,1.34 0,0.11 0,0.41 -0.26,0.61 -0.12,0.09 -0.32,0.19 -0.65,0.19 -0.5,0 -0.87,-0.28 -1.13,-0.58 z"
         id="path3627"
         inkscape:connector-curvature="0"
         style="fill:#000000;stroke-width:0" /><path
         d="m 231.23,705.92 h -0.24 c -0.02,-0.15 -0.09,-0.57 -0.18,-0.64 -0.06,-0.04 -0.6,-0.04 -0.69,-0.04 h -1.28 c 0.73,0.65 0.97,0.84 1.39,1.17 0.51,0.41 1,0.84 1,1.5 0,0.85 -0.74,1.36 -1.63,1.36 -0.87,0 -1.45,-0.61 -1.45,-1.24 0,-0.36 0.3,-0.39 0.37,-0.39 0.16,0 0.36,0.11 0.36,0.36 0,0.13 -0.04,0.37 -0.41,0.37 0.22,0.5 0.69,0.65 1.02,0.65 0.7,0 1.06,-0.54 1.06,-1.11 0,-0.6 -0.43,-1.08 -0.65,-1.33 l -1.68,-1.66 c -0.07,-0.06 -0.07,-0.07 -0.07,-0.27 h 2.87 z"
         id="path3629"
         inkscape:connector-curvature="0"
         style="fill:#000000;stroke-width:0" /></g>    <g
       style="font-style:normal;font-variant:normal;font-weight:normal;font-stretch:normal;letter-spacing:normal;word-spacing:normal;text-anchor:start;fill:none;stroke:#000000;stroke-linecap:butt;stroke-linejoin:miter;stroke-miterlimit:10.43299961;stroke-opacity:1;stroke-dasharray:none;stroke-dashoffset:0"
       ns0:preamble=""
       ns0:text="$b^t_2$"
       word-spacing="normal"
       letter-spacing="normal"
       font-size-adjust="none"
       font-stretch="normal"
       font-weight="normal"
       font-variant="normal"
       font-style="normal"
       stroke-miterlimit="10.433"
       xml:space="preserve"
       transform="matrix(1,0,0,-1,-28.749472,912.5045)"
       id="g3847"><path
         id="path3849"
         d="m 225.81,713.91 0,0 0,0 0,0 0,0 0,0.01 0,0 0,0 0,0.01 0,0 0,0.01 0,0 -0.01,0 0,0.01 0,0 0,0.01 0,0 -0.01,0.01 0,0 0,0.01 -0.01,0 0,0.01 0,0 -0.01,0 0,0 0,0.01 -0.01,0 0,0 0,0 0,0 -0.01,0.01 0,0 -0.01,0 0,0 0,0 -0.01,0 0,0 -0.01,0 0,0.01 -0.01,0 0,0 -0.01,0 0,0 -0.01,0 0,0 -0.01,0 c -0.23,0 -0.95,-0.08 -1.21,-0.1 -0.08,-0.01 -0.19,-0.02 -0.19,-0.2 0,-0.12 0.09,-0.12 0.24,-0.12 0.47,0 0.49,-0.07 0.49,-0.17 0,-0.07 -0.09,-0.4 -0.13,-0.61 l -0.82,-3.24 c -0.12,-0.5 -0.16,-0.66 -0.16,-1 0,-0.95 0.53,-1.56 1.26,-1.56 v 0.21 c -0.34,0 -0.66,0.27 -0.66,1.01 0,0.19 0,0.37 0.16,1 l 0.22,0.92 c 0.05,0.21 0.05,0.23 0.14,0.34 0.49,0.65 0.94,0.8 1.2,0.8 0.36,0 0.63,-0.3 0.63,-0.94 0,-0.58 -0.33,-1.72 -0.51,-2.1 -0.33,-0.67 -0.79,-1.03 -1.18,-1.03 v -0.21 c 1.18,0 2.4,1.48 2.4,2.91 0,0.9 -0.53,1.59 -1.32,1.59 -0.46,0 -0.87,-0.29 -1.17,-0.6 z"
         inkscape:connector-curvature="0"
         style="fill:#000000;stroke-width:0" /><path
         id="path3851"
         d="m 229.42,713.49 h 0.71 c 0.13,0 0.22,0 0.22,0.15 0,0.1 -0.09,0.1 -0.2,0.1 h -0.67 l 0.26,1.03 c 0.01,0.03 0.02,0.07 0.02,0.09 0,0.13 -0.1,0.23 -0.23,0.23 -0.18,0 -0.28,-0.12 -0.33,-0.3 -0.05,-0.18 0.04,0.16 -0.27,-1.05 h -0.71 c -0.13,0 -0.22,0 -0.22,-0.16 0,-0.09 0.08,-0.09 0.21,-0.09 h 0.66 l -0.41,-1.64 c -0.04,-0.18 -0.1,-0.43 -0.1,-0.52 0,-0.41 0.34,-0.66 0.74,-0.66 0.77,0 1.21,0.97 1.21,1.06 0,0.1 -0.09,0.1 -0.11,0.1 -0.08,0 -0.09,-0.02 -0.15,-0.14 -0.19,-0.43 -0.54,-0.83 -0.93,-0.83 -0.14,0 -0.24,0.1 -0.24,0.35 0,0.07 0.03,0.21 0.04,0.28 z"
         inkscape:connector-curvature="0"
         style="fill:#000000;stroke-width:0" /><path
         id="path3853"
         d="m 231.23,705.92 h -0.24 c -0.02,-0.15 -0.09,-0.57 -0.18,-0.64 -0.06,-0.04 -0.6,-0.04 -0.69,-0.04 h -1.28 c 0.73,0.65 0.97,0.84 1.39,1.17 0.51,0.41 1,0.84 1,1.5 0,0.85 -0.74,1.36 -1.63,1.36 -0.87,0 -1.45,-0.61 -1.45,-1.24 0,-0.36 0.3,-0.39 0.37,-0.39 0.16,0 0.36,0.11 0.36,0.36 0,0.13 -0.04,0.37 -0.41,0.37 0.22,0.5 0.69,0.65 1.02,0.65 0.7,0 1.06,-0.54 1.06,-1.11 0,-0.6 -0.43,-1.08 -0.65,-1.33 l -1.68,-1.66 c -0.07,-0.06 -0.07,-0.07 -0.07,-0.27 h 2.87 z"
         inkscape:connector-curvature="0"
         style="fill:#000000;stroke-width:0" /></g>  </g>
  <g
     id="g3332"
     transform="matrix(1,0,0,-1,-183.88153,748.88624)"
     xml:space="preserve"
     stroke-miterlimit="10.433"
     font-style="normal"
     font-variant="normal"
     font-weight="normal"
     font-stretch="normal"
     font-size-adjust="none"
     letter-spacing="normal"
     word-spacing="normal"
     ns0:text="$a^h_1$"
     ns0:preamble=""
     style="font-style:normal;font-variant:normal;font-weight:normal;font-stretch:normal;letter-spacing:normal;word-spacing:normal;text-anchor:start;fill:none;stroke:#000000;stroke-linecap:butt;stroke-linejoin:miter;stroke-miterlimit:10.43299961;stroke-opacity:1;stroke-dasharray:none;stroke-dashoffset:0"><path
       d="m 227.14,710.88 -0.01,0.03 -0.02,0.04 -0.02,0.03 -0.02,0.03 -0.02,0.03 -0.02,0.03 -0.02,0.03 -0.02,0.03 -0.03,0.03 -0.02,0.03 -0.02,0.03 -0.03,0.02 -0.02,0.03 -0.03,0.02 -0.03,0.02 -0.02,0.03 -0.03,0.02 -0.03,0.02 -0.03,0.01 -0.03,0.02 -0.04,0.02 -0.03,0.01 -0.03,0.02 -0.04,0.01 -0.03,0.01 -0.04,0.01 -0.03,0.01 -0.04,0 -0.04,0.01 -0.04,0 -0.04,0.01 -0.04,0 c -1.17,0 -2.4,-1.47 -2.4,-2.92 0,-0.93 0.55,-1.58 1.32,-1.58 l 0.02,0.21 c -0.49,0 -0.63,0.55 -0.63,0.94 0,0.49 0.31,1.72 0.54,2.17 0.31,0.59 0.76,0.96 1.16,0.96 0.64,0 0.78,-0.82 0.78,-0.88 0,-0.06 -0.02,-0.12 -0.03,-0.17 l -0.49,-1.94 c -0.05,-0.18 -0.05,-0.2 -0.2,-0.37 -0.44,-0.55 -0.85,-0.71 -1.13,-0.71 l -0.02,-0.21 c 0.2,0 0.7,0.03 1.3,0.74 0.08,-0.42 0.42,-0.74 0.9,-0.74 0.35,0 0.58,0.22 0.74,0.54 0.17,0.36 0.3,0.97 0.3,0.99 0,0.1 -0.09,0.1 -0.12,0.1 -0.1,0 -0.11,-0.05 -0.14,-0.18 -0.17,-0.65 -0.35,-1.24 -0.76,-1.24 -0.27,0 -0.3,0.26 -0.3,0.46 0,0.22 0.02,0.3 0.13,0.74 0.11,0.41 0.13,0.51 0.22,0.89 l 0.36,1.39 c 0.07,0.28 0.07,0.3 0.07,0.34 0,0.17 -0.12,0.27 -0.29,0.27 -0.24,0 -0.39,-0.22 -0.42,-0.44 z"
       id="path3334"
       inkscape:connector-curvature="0"
       style="fill:#000000;stroke-width:0" /><path
       d="m 230.88,715.36 0,0 0,0 0,0 0,0 0,0 0,0 0,0 0,0.01 0,0 0,0 0,0.01 0.01,0 0,0 0,0.01 0,0 0,0.01 0,0 0,0.01 0,0.01 0.01,0.01 0,0 0,0 0,0.01 0,0 0,0.01 0,0 0,0 0,0.01 0,0 0,0 0,0 0.01,0 0,0 0,0 0,0.01 0,0 0,0 0,0 0,0 0,0 c 0,0.03 -0.03,0.1 -0.12,0.1 -0.14,0 -0.71,-0.06 -0.89,-0.07 -0.05,-0.01 -0.15,-0.02 -0.15,-0.16 0,-0.1 0.1,-0.1 0.18,-0.1 0.33,0 0.33,-0.05 0.33,-0.1 0,-0.05 -0.01,-0.1 -0.02,-0.16 l -0.98,-3.93 c -0.04,-0.13 -0.04,-0.14 -0.04,-0.16 0,-0.1 0.08,-0.22 0.24,-0.22 0.07,0 0.21,0.04 0.28,0.18 0.02,0.04 0.09,0.29 0.12,0.44 l 0.16,0.62 c 0.02,0.1 0.09,0.37 0.11,0.47 0.07,0.27 0.07,0.27 0.21,0.5 0.22,0.34 0.57,0.73 1.12,0.73 0.39,0 0.41,-0.32 0.41,-0.49 0,-0.41 -0.3,-1.18 -0.41,-1.48 -0.08,-0.19 -0.11,-0.25 -0.11,-0.37 0,-0.37 0.31,-0.6 0.66,-0.6 0.7,0 1.01,0.96 1.01,1.06 0,0.1 -0.09,0.1 -0.12,0.1 -0.09,0 -0.1,-0.05 -0.13,-0.12 -0.16,-0.56 -0.46,-0.85 -0.74,-0.85 -0.14,0 -0.17,0.1 -0.17,0.25 0,0.16 0.04,0.25 0.16,0.56 0.08,0.22 0.37,0.95 0.37,1.34 0,0.11 0,0.41 -0.26,0.61 -0.12,0.09 -0.32,0.19 -0.65,0.19 -0.5,0 -0.87,-0.28 -1.13,-0.58 z"
       id="path3336"
       inkscape:connector-curvature="0"
       style="fill:#000000;stroke-width:0" /><path
       d="m 231.03,709.08 0,0 0,0.01 0,0.01 0,0.01 0,0.01 0,0 0,0.01 0,0.01 0,0 0,0.01 0,0.01 0,0 0,0.01 0,0 0,0.01 0,0 -0.01,0.01 0,0 0,0.01 0,0.01 0,0.01 -0.01,0.01 0,0 -0.01,0.01 0,0 -0.01,0.01 0,0 -0.01,0 -0.01,0.01 0,0 -0.01,0 -0.01,0 -0.01,0 0,0 -0.01,0.01 0,0 -0.01,0 -0.01,0 0,0 -0.01,0 -0.01,0 0,0 -0.01,0 -0.01,0 -0.01,0 0,0 -0.01,0 -0.01,0 -0.01,0 -0.01,0 c -0.44,-0.44 -1.08,-0.45 -1.36,-0.45 v -0.25 c 0.16,0 0.62,0 1.01,0.2 v -3.55 c 0,-0.23 0,-0.32 -0.7,-0.32 h -0.26 v -0.25 c 0.12,0.01 0.98,0.03 1.24,0.03 0.21,0 1.09,-0.02 1.24,-0.03 v 0.25 h -0.26 c -0.7,0 -0.7,0.09 -0.7,0.32 z"
       id="path3338"
       inkscape:connector-curvature="0"
       style="fill:#000000;stroke-width:0" /></g>  <g
     id="g3195"
     transform="matrix(1,0,0,-1,-149.2635,748.88625)"
     xml:space="preserve"
     stroke-miterlimit="10.433"
     font-style="normal"
     font-variant="normal"
     font-weight="normal"
     font-stretch="normal"
     font-size-adjust="none"
     letter-spacing="normal"
     word-spacing="normal"
     ns0:text="$b^h_1$"
     ns0:preamble=""
     style="font-style:normal;font-variant:normal;font-weight:normal;font-stretch:normal;letter-spacing:normal;word-spacing:normal;text-anchor:start;fill:none;stroke:#000000;stroke-linecap:butt;stroke-linejoin:miter;stroke-miterlimit:10.43299961;stroke-opacity:1;stroke-dasharray:none;stroke-dashoffset:0"><path
       d="m 225.81,713.91 0,0 0,0 0,0 0,0 0,0.01 0,0 0,0 0,0.01 0,0 0,0.01 0,0 -0.01,0 0,0.01 0,0 0,0.01 0,0 -0.01,0.01 0,0 0,0.01 -0.01,0 0,0.01 0,0 -0.01,0 0,0 0,0.01 -0.01,0 0,0 0,0 0,0 -0.01,0.01 0,0 -0.01,0 0,0 0,0 -0.01,0 0,0 -0.01,0 0,0.01 -0.01,0 0,0 -0.01,0 0,0 -0.01,0 0,0 -0.01,0 c -0.23,0 -0.95,-0.08 -1.21,-0.1 -0.08,-0.01 -0.19,-0.02 -0.19,-0.2 0,-0.12 0.09,-0.12 0.24,-0.12 0.47,0 0.49,-0.07 0.49,-0.17 0,-0.07 -0.09,-0.4 -0.13,-0.61 l -0.82,-3.24 c -0.12,-0.5 -0.16,-0.66 -0.16,-1 0,-0.95 0.53,-1.56 1.26,-1.56 v 0.21 c -0.34,0 -0.66,0.27 -0.66,1.01 0,0.19 0,0.37 0.16,1 l 0.22,0.92 c 0.05,0.21 0.05,0.23 0.14,0.34 0.49,0.65 0.94,0.8 1.2,0.8 0.36,0 0.63,-0.3 0.63,-0.94 0,-0.58 -0.33,-1.72 -0.51,-2.1 -0.33,-0.67 -0.79,-1.03 -1.18,-1.03 v -0.21 c 1.18,0 2.4,1.48 2.4,2.91 0,0.9 -0.53,1.59 -1.32,1.59 -0.46,0 -0.87,-0.29 -1.17,-0.6 z"
       id="path3197"
       inkscape:connector-curvature="0"
       style="fill:#000000;stroke-width:0" /><path
       d="m 229.89,715.36 0,0 0,0 0,0 0,0 0,0 0,0 0,0 0,0.01 0,0 0,0 0,0.01 0.01,0 0,0 0,0.01 0,0 0,0.01 0,0 0,0.01 0,0.01 0.01,0.01 0,0 0,0 0,0.01 0,0 0,0.01 0,0 0,0 0,0.01 0,0 0,0 0,0 0.01,0 0,0 0,0 0,0.01 0,0 0,0 0,0 0,0 0,0 c 0,0.03 -0.03,0.1 -0.12,0.1 -0.14,0 -0.71,-0.06 -0.89,-0.07 -0.05,-0.01 -0.15,-0.02 -0.15,-0.16 0,-0.1 0.1,-0.1 0.18,-0.1 0.33,0 0.33,-0.05 0.33,-0.1 0,-0.05 -0.01,-0.1 -0.02,-0.16 l -0.99,-3.93 c -0.03,-0.13 -0.03,-0.14 -0.03,-0.16 0,-0.1 0.08,-0.22 0.24,-0.22 0.07,0 0.21,0.04 0.28,0.18 0.02,0.04 0.09,0.29 0.12,0.44 l 0.16,0.62 c 0.02,0.1 0.09,0.37 0.11,0.47 0.07,0.27 0.07,0.27 0.21,0.5 0.22,0.34 0.57,0.73 1.12,0.73 0.39,0 0.41,-0.32 0.41,-0.49 0,-0.41 -0.3,-1.18 -0.41,-1.48 -0.08,-0.19 -0.11,-0.25 -0.11,-0.37 0,-0.37 0.31,-0.6 0.66,-0.6 0.7,0 1.01,0.96 1.01,1.06 0,0.1 -0.1,0.1 -0.12,0.1 -0.09,0 -0.1,-0.05 -0.13,-0.12 -0.16,-0.56 -0.46,-0.85 -0.74,-0.85 -0.14,0 -0.17,0.1 -0.17,0.25 0,0.16 0.03,0.25 0.16,0.56 0.08,0.22 0.37,0.95 0.37,1.34 0,0.11 0,0.41 -0.26,0.61 -0.12,0.09 -0.32,0.19 -0.65,0.19 -0.5,0 -0.87,-0.28 -1.13,-0.58 z"
       id="path3199"
       inkscape:connector-curvature="0"
       style="fill:#000000;stroke-width:0" /><path
       d="m 230.04,709.08 0,0 0,0.01 0,0.01 0,0.01 0,0.01 0,0 0,0.01 0,0.01 0,0 0,0.01 0,0.01 0,0 0,0.01 0,0 0,0.01 0,0 -0.01,0.01 0,0 0,0.01 0,0.01 0,0.01 -0.01,0.01 0,0 -0.01,0.01 0,0 -0.01,0.01 0,0 -0.01,0 -0.01,0.01 0,0 -0.01,0 -0.01,0 -0.01,0 0,0 -0.01,0.01 0,0 -0.01,0 -0.01,0 0,0 -0.01,0 -0.01,0 0,0 -0.01,0 -0.01,0 -0.01,0 0,0 -0.01,0 -0.01,0 -0.01,0 -0.01,0 c -0.44,-0.44 -1.08,-0.45 -1.36,-0.45 v -0.25 c 0.16,0 0.62,0 1.01,0.2 v -3.55 c 0,-0.23 0,-0.32 -0.7,-0.32 h -0.26 v -0.25 c 0.12,0.01 0.98,0.03 1.24,0.03 0.21,0 1.09,-0.02 1.24,-0.03 v 0.25 h -0.26 c -0.7,0 -0.7,0.09 -0.7,0.32 z"
       id="path3201"
       inkscape:connector-curvature="0"
       style="fill:#000000;stroke-width:0" /></g>  <g
     style="font-style:normal;font-variant:normal;font-weight:normal;font-stretch:normal;letter-spacing:normal;word-spacing:normal;text-anchor:start;fill:none;stroke:#000000;stroke-linecap:butt;stroke-linejoin:miter;stroke-miterlimit:10.43299961;stroke-opacity:1;stroke-dasharray:none;stroke-dashoffset:0"
     ns0:preamble=""
     ns0:text="$b^t_1$"
     word-spacing="normal"
     letter-spacing="normal"
     font-size-adjust="none"
     font-stretch="normal"
     font-weight="normal"
     font-variant="normal"
     font-style="normal"
     stroke-miterlimit="10.433"
     xml:space="preserve"
     transform="matrix(1,0,0,-1,-110.62516,748.38117)"
     id="g3419"><path
       id="path3421"
       d="m 225.81,713.91 0,0 0,0 0,0 0,0 0,0.01 0,0 0,0 0,0.01 0,0 0,0.01 0,0 -0.01,0 0,0.01 0,0 0,0.01 0,0 -0.01,0.01 0,0 0,0.01 -0.01,0 0,0.01 0,0 -0.01,0 0,0 0,0.01 -0.01,0 0,0 0,0 0,0 -0.01,0.01 0,0 -0.01,0 0,0 0,0 -0.01,0 0,0 -0.01,0 0,0.01 -0.01,0 0,0 -0.01,0 0,0 -0.01,0 0,0 -0.01,0 c -0.23,0 -0.95,-0.08 -1.21,-0.1 -0.08,-0.01 -0.19,-0.02 -0.19,-0.2 0,-0.12 0.09,-0.12 0.24,-0.12 0.47,0 0.49,-0.07 0.49,-0.17 0,-0.07 -0.09,-0.4 -0.13,-0.61 l -0.82,-3.24 c -0.12,-0.5 -0.16,-0.66 -0.16,-1 0,-0.95 0.53,-1.56 1.26,-1.56 v 0.21 c -0.34,0 -0.66,0.27 -0.66,1.01 0,0.19 0,0.37 0.16,1 l 0.22,0.92 c 0.05,0.21 0.05,0.23 0.14,0.34 0.49,0.65 0.94,0.8 1.2,0.8 0.36,0 0.63,-0.3 0.63,-0.94 0,-0.58 -0.33,-1.72 -0.51,-2.1 -0.33,-0.67 -0.79,-1.03 -1.18,-1.03 v -0.21 c 1.18,0 2.4,1.48 2.4,2.91 0,0.9 -0.53,1.59 -1.32,1.59 -0.46,0 -0.87,-0.29 -1.17,-0.6 z"
       inkscape:connector-curvature="0"
       style="fill:#000000;stroke-width:0" /><path
       id="path3423"
       d="m 229.42,713.49 h 0.71 c 0.13,0 0.22,0 0.22,0.15 0,0.1 -0.09,0.1 -0.2,0.1 h -0.67 l 0.26,1.03 c 0.01,0.03 0.02,0.07 0.02,0.09 0,0.13 -0.1,0.23 -0.23,0.23 -0.18,0 -0.28,-0.12 -0.33,-0.3 -0.05,-0.18 0.04,0.16 -0.27,-1.05 h -0.71 c -0.13,0 -0.22,0 -0.22,-0.16 0,-0.09 0.08,-0.09 0.21,-0.09 h 0.66 l -0.41,-1.64 c -0.04,-0.18 -0.1,-0.43 -0.1,-0.52 0,-0.41 0.34,-0.66 0.74,-0.66 0.77,0 1.21,0.97 1.21,1.06 0,0.1 -0.09,0.1 -0.11,0.1 -0.08,0 -0.09,-0.02 -0.15,-0.14 -0.19,-0.43 -0.54,-0.83 -0.93,-0.83 -0.14,0 -0.24,0.1 -0.24,0.35 0,0.07 0.03,0.21 0.04,0.28 z"
       inkscape:connector-curvature="0"
       style="fill:#000000;stroke-width:0" /><path
       id="path3425"
       d="m 230.04,709.08 0,0 0,0.01 0,0.01 0,0.01 0,0.01 0,0 0,0.01 0,0.01 0,0 0,0.01 0,0.01 0,0 0,0.01 0,0 0,0.01 0,0 -0.01,0.01 0,0 0,0.01 0,0.01 0,0.01 -0.01,0.01 0,0 -0.01,0.01 0,0 -0.01,0.01 0,0 -0.01,0 -0.01,0.01 0,0 -0.01,0 -0.01,0 -0.01,0 0,0 -0.01,0.01 0,0 -0.01,0 -0.01,0 0,0 -0.01,0 -0.01,0 0,0 -0.01,0 -0.01,0 -0.01,0 0,0 -0.01,0 -0.01,0 -0.01,0 -0.01,0 c -0.44,-0.44 -1.08,-0.45 -1.36,-0.45 v -0.25 c 0.16,0 0.62,0 1.01,0.2 v -3.55 c 0,-0.23 0,-0.32 -0.7,-0.32 h -0.26 v -0.25 c 0.12,0.01 0.98,0.03 1.24,0.03 0.21,0 1.09,-0.02 1.24,-0.03 v 0.25 h -0.26 c -0.7,0 -0.7,0.09 -0.7,0.32 z"
       inkscape:connector-curvature="0"
       style="fill:#000000;stroke-width:0" /></g></svg>
