<?xml version="1.0" encoding="UTF-8" standalone="no"?>
<!-- Created with Inkscape (http://www.inkscape.org/) -->

<svg
   xmlns:ns0="http://www.iki.fi/pav/software/textext/"
   xmlns:dc="http://purl.org/dc/elements/1.1/"
   xmlns:cc="http://creativecommons.org/ns#"
   xmlns:rdf="http://www.w3.org/1999/02/22-rdf-syntax-ns#"
   xmlns:svg="http://www.w3.org/2000/svg"
   xmlns="http://www.w3.org/2000/svg"
   xmlns:sodipodi="http://sodipodi.sourceforge.net/DTD/sodipodi-0.dtd"
   xmlns:inkscape="http://www.inkscape.org/namespaces/inkscape"
   width="371.63229"
   height="86.122391"
   id="svg2"
   version="1.1"
   inkscape:version="0.48.4 r9939"
   sodipodi:docname="New document 1">
  <sodipodi:namedview
     id="base"
     pagecolor="#ffffff"
     bordercolor="#666666"
     borderopacity="1.0"
     inkscape:pageopacity="0.0"
     inkscape:pageshadow="2"
     inkscape:zoom="1.4"
     inkscape:cx="226.27153"
     inkscape:cy="-76.273453"
     inkscape:document-units="px"
     inkscape:current-layer="layer1"
     showgrid="false"
     inkscape:window-width="1535"
     inkscape:window-height="876"
     inkscape:window-x="65"
     inkscape:window-y="24"
     inkscape:window-maximized="1"
     fit-margin-top="0"
     fit-margin-left="0"
     fit-margin-right="0"
     fit-margin-bottom="0" />
  <defs
     id="defs4">
    <marker
       style="overflow:visible"
       id="TriangleOutM"
       refX="0"
       refY="0"
       orient="auto"
       inkscape:stockid="TriangleOutM">
      <path
         transform="scale(0.4,0.4)"
         style="fill-rule:evenodd;stroke:#000000;stroke-width:1pt"
         d="m 5.77,0 -8.65,5 0,-10 8.65,5 z"
         id="path3906"
         inkscape:connector-curvature="0" />
    </marker>
    <marker
       style="overflow:visible"
       id="Arrow2Lend"
       refX="0"
       refY="0"
       orient="auto"
       inkscape:stockid="Arrow2Lend">
      <path
         transform="matrix(-1.1,0,0,-1.1,-1.1,0)"
         d="M 8.7185878,4.0337352 -2.2072895,0.01601326 8.7185884,-4.0017078 c -1.7454984,2.3720609 -1.7354408,5.6174519 -6e-7,8.035443 z"
         style="fill-rule:evenodd;stroke-width:0.625;stroke-linejoin:round"
         id="path3782"
         inkscape:connector-curvature="0" />
    </marker>
    <marker
       style="overflow:visible"
       id="Arrow2Lstart"
       refX="0"
       refY="0"
       orient="auto"
       inkscape:stockid="Arrow2Lstart">
      <path
         transform="matrix(1.1,0,0,1.1,1.1,0)"
         d="M 8.7185878,4.0337352 -2.2072895,0.01601326 8.7185884,-4.0017078 c -1.7454984,2.3720609 -1.7354408,5.6174519 -6e-7,8.035443 z"
         style="fill-rule:evenodd;stroke-width:0.625;stroke-linejoin:round"
         id="path3779"
         inkscape:connector-curvature="0" />
    </marker>
    <marker
       style="overflow:visible"
       id="Arrow1Lend"
       refX="0"
       refY="0"
       orient="auto"
       inkscape:stockid="Arrow1Lend">
      <path
         transform="matrix(-0.8,0,0,-0.8,-10,0)"
         style="fill-rule:evenodd;stroke:#000000;stroke-width:1pt"
         d="M 0,0 5,-5 -12.5,0 5,5 0,0 z"
         id="path3764"
         inkscape:connector-curvature="0" />
    </marker>
    <marker
       style="overflow:visible"
       id="TriangleOutL"
       refX="0"
       refY="0"
       orient="auto"
       inkscape:stockid="TriangleOutL">
      <path
         transform="scale(0.8,0.8)"
         style="fill-rule:evenodd;stroke:#000000;stroke-width:1pt"
         d="m 5.77,0 -8.65,5 0,-10 8.65,5 z"
         id="path3903"
         inkscape:connector-curvature="0" />
    </marker>
    <marker
       style="overflow:visible"
       id="TriangleOutM-4"
       refX="0"
       refY="0"
       orient="auto"
       inkscape:stockid="TriangleOutM">
      <path
         transform="scale(0.4,0.4)"
         style="fill-rule:evenodd;stroke:#000000;stroke-width:1pt"
         d="m 5.77,0 -8.65,5 0,-10 8.65,5 z"
         id="path3906-6"
         inkscape:connector-curvature="0" />
    </marker>
    <marker
       style="overflow:visible"
       id="TriangleOutM-5"
       refX="0"
       refY="0"
       orient="auto"
       inkscape:stockid="TriangleOutM">
      <path
         transform="scale(0.4,0.4)"
         style="fill-rule:evenodd;stroke:#000000;stroke-width:1pt"
         d="m 5.77,0 -8.65,5 0,-10 8.65,5 z"
         id="path3906-7"
         inkscape:connector-curvature="0" />
    </marker>
    <marker
       style="overflow:visible"
       id="TriangleOutM-2"
       refX="0"
       refY="0"
       orient="auto"
       inkscape:stockid="TriangleOutM">
      <path
         inkscape:connector-curvature="0"
         transform="scale(0.4,0.4)"
         style="fill-rule:evenodd;stroke:#000000;stroke-width:1pt"
         d="m 5.77,0 -8.65,5 0,-10 8.65,5 z"
         id="path3906-8" />
    </marker>
    <marker
       style="overflow:visible"
       id="marker6033"
       refX="0"
       refY="0"
       orient="auto"
       inkscape:stockid="TriangleOutM">
      <path
         inkscape:connector-curvature="0"
         transform="scale(0.4,0.4)"
         style="fill-rule:evenodd;stroke:#000000;stroke-width:1pt"
         d="m 5.77,0 -8.65,5 0,-10 8.65,5 z"
         id="path6035" />
    </marker>
  </defs>
  <metadata
     id="metadata7">
    <rdf:RDF>
      <cc:Work
         rdf:about="">
        <dc:format>image/svg+xml</dc:format>
        <dc:type
           rdf:resource="http://purl.org/dc/dcmitype/StillImage" />
        <dc:title></dc:title>
      </cc:Work>
    </rdf:RDF>
  </metadata>
  <g
     id="layer1"
     inkscape:groupmode="layer"
     inkscape:label="Layer 1"
     transform="translate(-0.4642868,-17.48979)">
    <path
       transform="translate(-64,0)"
       d="m 134.28571,68.433609 c 0,18.738232 -15.35023,33.928571 -34.28571,33.928571 -18.935477,0 -34.285713,-15.190339 -34.285713,-33.928571 0,-18.738232 15.350236,-33.92857 34.285713,-33.92857 18.93548,0 34.28571,15.190338 34.28571,33.92857 z"
       sodipodi:ry="33.92857"
       sodipodi:rx="34.285713"
       sodipodi:cy="68.433609"
       sodipodi:cx="100"
       id="path2985"
       style="color:#000000;fill:#00ff00;fill-opacity:0;fill-rule:evenodd;stroke:#000000;stroke-width:2.5;stroke-linecap:butt;stroke-linejoin:miter;stroke-miterlimit:4;stroke-opacity:0.98630138;stroke-dasharray:none;stroke-dashoffset:1;marker:none;visibility:visible;display:inline;overflow:visible;enable-background:accumulate"
       sodipodi:type="arc" />
    <path
       inkscape:connector-curvature="0"
       id="path2987"
       d="m 98.85607,51.862342 100.00214,0.285392"
       style="fill:none;stroke:#000000;stroke-width:2.4000001;stroke-linecap:square;stroke-linejoin:miter;stroke-miterlimit:3;stroke-opacity:1;stroke-dasharray:none;marker-mid:none;marker-end:url(#TriangleOutM)" />
    <path
       inkscape:connector-curvature="0"
       id="path2987-5"
       d="M 203.64458,79.90739 103.64244,80.192782"
       style="fill:none;stroke:#000000;stroke-width:2.4000001;stroke-linecap:square;stroke-linejoin:miter;stroke-miterlimit:3;stroke-opacity:1;stroke-dasharray:none;marker-mid:none;marker-end:url(#TriangleOutM)" />
    <path
       inkscape:connector-curvature="0"
       id="path2987-6"
       d="m 224.59286,65.528584 133.33717,0.285392"
       style="fill:none;stroke:#000000;stroke-width:2.5;stroke-linecap:square;stroke-linejoin:miter;stroke-miterlimit:3;stroke-opacity:1;stroke-dasharray:none;marker-mid:none;marker-end:none" />
    <path
       inkscape:connector-curvature="0"
       id="path5747"
       d="m 34.345187,28.067501 0.505076,14.647212"
       style="fill:none;stroke:#000000;stroke-width:2.4000001;stroke-linecap:butt;stroke-linejoin:miter;stroke-miterlimit:4;stroke-opacity:1;stroke-dasharray:none" />
    <g
       ns0:preamble=""
       ns0:text="$\\{p,q\\}$"
       word-spacing="normal"
       letter-spacing="normal"
       font-size-adjust="none"
       font-stretch="normal"
       font-weight="normal"
       font-variant="normal"
       font-style="normal"
       stroke-miterlimit="10.433"
       xml:space="preserve"
       transform="matrix(1,0,0,-1,-200.75761,732.06979)"
       id="content"
       style="font-style:normal;font-variant:normal;font-weight:normal;font-stretch:normal;letter-spacing:normal;word-spacing:normal;text-anchor:start;fill:none;stroke:#000000;stroke-linecap:butt;stroke-linejoin:miter;stroke-miterlimit:10.43299961;stroke-opacity:1;stroke-dasharray:none;stroke-dashoffset:0"><path
         id="path5774"
         d="m 226.25,713.25 0,0.04 0,0.04 0.01,0.04 0,0.04 0.01,0.04 0.01,0.05 0.01,0.04 0.02,0.04 0.01,0.05 0.02,0.04 0.02,0.05 0.03,0.04 0.02,0.04 0.03,0.04 0.04,0.05 0.03,0.04 0.04,0.04 0.04,0.04 0.05,0.04 0.05,0.03 0.05,0.04 0.06,0.03 0.06,0.03 0.06,0.03 0.07,0.03 0.07,0.02 0.08,0.03 0.08,0.02 0.04,0 0.05,0.01 0.04,0.01 0.05,0.01 0.04,0 0.05,0.01 0.05,0 0.05,0.01 c 0.05,0.01 0.09,0.05 0.09,0.11 0,0.11 -0.08,0.11 -0.19,0.11 -0.99,0 -1.9,-0.51 -1.91,-1.25 v -2.26 c 0,-0.39 0,-0.71 -0.4,-1.03 -0.34,-0.29 -0.72,-0.31 -0.94,-0.32 -0.05,-0.01 -0.09,-0.05 -0.09,-0.11 0,-0.1 0.06,-0.1 0.16,-0.11 0.65,-0.04 1.13,-0.4 1.24,-0.89 0.03,-0.1 0.03,-0.12 0.03,-0.48 v -1.97 c 0,-0.42 0,-0.73 0.48,-1.11 0.39,-0.3 1.04,-0.41 1.43,-0.41 0.11,0 0.19,0 0.19,0.11 0,0.1 -0.06,0.1 -0.16,0.11 -0.63,0.04 -1.11,0.36 -1.24,0.86 -0.03,0.09 -0.03,0.11 -0.03,0.47 v 2.09 c 0,0.45 -0.08,0.62 -0.4,0.94 -0.21,0.21 -0.5,0.31 -0.78,0.39 0.82,0.23 1.18,0.68 1.18,1.26 z"
         inkscape:connector-curvature="0"
         style="fill:#000000;stroke-width:0" /><path
         id="path5776"
         d="m 228.86,705.91 -0.01,-0.03 0,-0.03 -0.01,-0.03 -0.01,-0.02 0,-0.03 -0.01,-0.02 -0.01,-0.02 -0.01,-0.02 0,-0.02 -0.01,-0.02 -0.01,-0.02 -0.01,-0.01 -0.01,-0.02 -0.01,-0.01 -0.01,-0.02 -0.01,-0.01 -0.02,-0.01 -0.01,-0.01 -0.02,-0.01 -0.02,0 -0.01,-0.01 -0.02,-0.01 -0.03,0 -0.02,-0.01 -0.02,0 -0.03,-0.01 -0.02,0 -0.01,0 -0.02,0 -0.01,0 -0.02,0 -0.01,0 -0.02,0 -0.02,0 -0.02,0 -0.02,0 -0.02,0 -0.02,0 c -0.12,0 -0.22,0 -0.22,-0.19 0,-0.08 0.04,-0.12 0.12,-0.12 0.27,0 0.56,0.03 0.84,0.03 0.33,0 0.67,-0.03 0.98,-0.03 0.05,0 0.18,0 0.18,0.2 0,0.11 -0.1,0.11 -0.23,0.11 -0.5,0 -0.5,0.07 -0.5,0.15 0,0.12 0.41,1.74 0.49,1.99 0.12,-0.29 0.4,-0.63 0.91,-0.63 l -0.01,0.21 c -0.66,0 -0.79,0.83 -0.79,0.89 0,0.02 0,0.04 0.03,0.16 l 0.49,1.94 c 0.07,0.27 0.34,0.55 0.52,0.7 0.35,0.31 0.64,0.38 0.8,0.38 0.4,0 0.64,-0.35 0.64,-0.94 0,-0.58 -0.33,-1.72 -0.51,-2.1 -0.33,-0.7 -0.81,-1.03 -1.18,-1.03 l 0.01,-0.21 c 1.15,0 2.4,1.45 2.4,2.91 0,0.93 -0.57,1.59 -1.33,1.59 -0.49,0 -0.97,-0.36 -1.3,-0.75 -0.1,0.54 -0.53,0.75 -0.89,0.75 -0.46,0 -0.65,-0.39 -0.74,-0.57 -0.18,-0.34 -0.31,-0.93 -0.31,-0.96 0,-0.1 0.1,-0.1 0.12,-0.1 0.1,0 0.11,0.01 0.17,0.22 0.17,0.71 0.37,1.19 0.73,1.19 0.16,0 0.3,-0.08 0.3,-0.46 0,-0.23 -0.03,-0.34 -0.06,-0.51 z"
         inkscape:connector-curvature="0"
         style="fill:#000000;stroke-width:0" /><path
         id="path5778"
         d="m 235.45,707.14 -0.01,0.06 0,0.05 0,0.06 -0.01,0.06 0,0.05 -0.01,0.05 -0.01,0.06 -0.01,0.04 -0.01,0.05 -0.01,0.05 -0.02,0.04 -0.01,0.04 -0.02,0.04 -0.02,0.04 -0.02,0.04 -0.02,0.03 -0.02,0.04 -0.02,0.03 -0.03,0.02 -0.02,0.03 -0.03,0.03 -0.02,0.02 -0.03,0.02 -0.03,0.02 -0.03,0.01 -0.03,0.02 -0.03,0.01 -0.03,0.01 -0.04,0.01 -0.03,0 -0.04,0.01 -0.03,0 c -0.33,0 -0.53,-0.25 -0.53,-0.53 0,-0.27 0.2,-0.53 0.53,-0.53 0.12,0 0.25,0.04 0.35,0.13 0.03,0.02 0.04,0.03 0.05,0.03 0.01,0 0.02,-0.01 0.02,-0.14 0,-0.74 -0.35,-1.34 -0.68,-1.66 -0.11,-0.11 -0.11,-0.13 -0.11,-0.16 0,-0.07 0.05,-0.11 0.1,-0.11 0.11,0 0.91,0.76 0.91,1.93 z"
         inkscape:connector-curvature="0"
         style="fill:#000000;stroke-width:0" /><path
         id="path5780"
         d="m 242.35,711.41 0,0 0,0 0,0.01 0,0 0,0.01 0,0 0,0 0,0.01 0,0 -0.01,0.01 0,0 0,0.01 0,0 0,0 -0.01,0.01 0,0 0,0 -0.01,0.01 0,0 0,0 -0.01,0.01 0,0 -0.01,0 0,0.01 -0.01,0 0,0 -0.01,0 0,0 -0.01,0 0,0.01 -0.01,0 -0.01,0 c -0.1,0 -0.5,-0.4 -0.67,-0.69 -0.22,0.54 -0.61,0.7 -0.93,0.7 v -0.22 c 0.65,0 0.79,-0.81 0.79,-0.88 0,-0.06 -0.55,-2.23 -0.58,-2.27 -0.15,-0.28 -0.71,-0.92 -1.26,-0.92 h 0 c -0.6,0 -0.64,0.77 -0.64,0.94 0,0.48 0.29,1.56 0.46,1.98 0.31,0.73 0.82,1.15 1.23,1.15 v 0.22 c -1.17,0 -2.39,-1.47 -2.39,-2.92 0,-0.97 0.58,-1.58 1.31,-1.58 0.43,0 0.81,0.23 1.17,0.59 -0.09,-0.35 -0.42,-1.69 -0.45,-1.78 -0.08,-0.28 -0.16,-0.31 -0.71,-0.32 -0.13,0 -0.23,0 -0.23,-0.2 0,-0.01 0,-0.11 0.13,-0.11 0.32,0 0.67,0.03 0.99,0.03 0.34,0 0.7,-0.03 1.03,-0.03 0.05,0 0.18,0 0.18,0.2 0,0.11 -0.1,0.11 -0.26,0.11 -0.48,0 -0.48,0.07 -0.48,0.15 0,0.07 0.02,0.13 0.04,0.22 z"
         inkscape:connector-curvature="0"
         style="fill:#000000;stroke-width:0" /><path
         id="path5782"
         d="m 244.81,705.96 0,-0.03 -0.01,-0.04 0,-0.04 -0.01,-0.05 0,-0.04 -0.01,-0.04 -0.02,-0.04 -0.01,-0.05 -0.02,-0.04 -0.02,-0.05 -0.02,-0.04 -0.02,-0.04 -0.03,-0.05 -0.03,-0.04 -0.03,-0.04 -0.04,-0.04 -0.04,-0.04 -0.04,-0.04 -0.04,-0.04 -0.05,-0.04 -0.06,-0.03 -0.05,-0.03 -0.06,-0.03 -0.07,-0.03 -0.07,-0.03 -0.07,-0.03 -0.08,-0.02 -0.08,-0.02 -0.04,-0.01 -0.04,-0.01 -0.05,0 -0.04,-0.01 -0.05,-0.01 -0.05,0 -0.04,-0.01 -0.06,0 c -0.05,-0.01 -0.08,-0.05 -0.08,-0.11 0,-0.11 0.11,-0.11 0.19,-0.11 0.97,0 1.89,0.49 1.91,1.24 v 2.27 c 0,0.39 0,0.7 0.39,1.03 0.35,0.29 0.73,0.31 0.95,0.32 0.05,0.01 0.09,0.05 0.09,0.11 0,0.1 -0.06,0.1 -0.16,0.11 -0.66,0.04 -1.14,0.39 -1.25,0.88 -0.02,0.11 -0.02,0.13 -0.02,0.49 v 1.96 c 0,0.42 0,0.74 -0.48,1.12 -0.4,0.31 -1.09,0.41 -1.43,0.41 -0.08,0 -0.19,0 -0.19,-0.11 0,-0.1 0.05,-0.1 0.16,-0.11 0.62,-0.04 1.11,-0.36 1.24,-0.87 0.03,-0.09 0.03,-0.11 0.03,-0.46 v -2.09 c 0,-0.46 0.08,-0.63 0.4,-0.94 0.2,-0.21 0.49,-0.31 0.77,-0.39 -0.81,-0.23 -1.17,-0.69 -1.17,-1.26 z"
         inkscape:connector-curvature="0"
         style="fill:#000000;stroke-width:0" /></g>    <g
       style="font-style:normal;font-variant:normal;font-weight:normal;font-stretch:normal;letter-spacing:normal;word-spacing:normal;text-anchor:start;fill:none;stroke:#000000;stroke-linecap:butt;stroke-linejoin:miter;stroke-miterlimit:10.43299961;stroke-opacity:1;stroke-dasharray:none;stroke-dashoffset:0"
       id="g5842"
       transform="matrix(1,0,0,-1,-10.848935,765.40483)"
       xml:space="preserve"
       stroke-miterlimit="10.433"
       font-style="normal"
       font-variant="normal"
       font-weight="normal"
       font-stretch="normal"
       font-size-adjust="none"
       letter-spacing="normal"
       word-spacing="normal"
       ns0:text="$\\{\\circ,q\\}$"
       ns0:preamble=""><path
         style="fill:#000000;stroke-width:0"
         inkscape:connector-curvature="0"
         d="m 226.25,713.25 0,0.04 0,0.04 0.01,0.04 0,0.04 0.01,0.04 0.01,0.05 0.01,0.04 0.02,0.04 0.01,0.05 0.02,0.04 0.02,0.05 0.03,0.04 0.02,0.04 0.03,0.04 0.04,0.05 0.03,0.04 0.04,0.04 0.04,0.04 0.05,0.04 0.05,0.03 0.05,0.04 0.06,0.03 0.06,0.03 0.06,0.03 0.07,0.03 0.07,0.02 0.08,0.03 0.08,0.02 0.04,0 0.05,0.01 0.04,0.01 0.05,0.01 0.04,0 0.05,0.01 0.05,0 0.05,0.01 c 0.05,0.01 0.09,0.05 0.09,0.11 0,0.11 -0.08,0.11 -0.19,0.11 -0.99,0 -1.9,-0.51 -1.91,-1.25 v -2.26 c 0,-0.39 0,-0.71 -0.4,-1.03 -0.34,-0.29 -0.72,-0.31 -0.94,-0.32 -0.05,-0.01 -0.09,-0.05 -0.09,-0.11 0,-0.1 0.06,-0.1 0.16,-0.11 0.65,-0.04 1.13,-0.4 1.24,-0.89 0.03,-0.1 0.03,-0.12 0.03,-0.48 v -1.97 c 0,-0.42 0,-0.73 0.48,-1.11 0.39,-0.3 1.04,-0.41 1.43,-0.41 0.11,0 0.19,0 0.19,0.11 0,0.1 -0.06,0.1 -0.16,0.11 -0.63,0.04 -1.11,0.36 -1.24,0.86 -0.03,0.09 -0.03,0.11 -0.03,0.47 v 2.09 c 0,0.45 -0.08,0.62 -0.4,0.94 -0.21,0.21 -0.5,0.31 -0.78,0.39 0.82,0.23 1.18,0.68 1.18,1.26 z"
         id="path5844" /><path
         style="fill:#000000;stroke-width:0"
         inkscape:connector-curvature="0"
         d="m 232.83,709.61 0,0.1 -0.01,0.09 -0.01,0.1 -0.02,0.1 -0.02,0.09 -0.03,0.09 -0.03,0.09 -0.03,0.09 -0.04,0.08 -0.05,0.09 -0.04,0.08 -0.05,0.08 -0.06,0.07 -0.06,0.07 -0.06,0.07 -0.06,0.07 -0.07,0.06 -0.07,0.07 -0.07,0.05 -0.08,0.06 -0.08,0.05 -0.08,0.04 -0.08,0.05 -0.09,0.03 -0.08,0.04 -0.09,0.03 -0.09,0.03 -0.1,0.02 -0.09,0.01 -0.1,0.02 -0.09,0 -0.1,0.01 c -1.07,0 -1.94,-0.89 -1.94,-1.93 0,-1.06 0.87,-1.93 1.94,-1.93 v 0.4 c -0.86,0 -1.54,0.69 -1.54,1.53 0,0.83 0.68,1.53 1.54,1.53 0.83,0 1.53,-0.68 1.53,-1.53 0,-0.86 -0.7,-1.53 -1.53,-1.53 h 0 v -0.4 c 1.05,0 1.93,0.87 1.93,1.93 z"
         id="path5846" /><path
         style="fill:#000000;stroke-width:0"
         inkscape:connector-curvature="0"
         d="m 235.41,707.14 0,0.06 0,0.05 0,0.06 -0.01,0.06 0,0.05 -0.01,0.05 -0.01,0.06 -0.01,0.04 -0.01,0.05 -0.01,0.05 -0.02,0.04 -0.01,0.04 -0.02,0.04 -0.02,0.04 -0.02,0.04 -0.02,0.03 -0.02,0.04 -0.02,0.03 -0.03,0.02 -0.02,0.03 -0.03,0.03 -0.02,0.02 -0.03,0.02 -0.03,0.02 -0.03,0.01 -0.03,0.02 -0.03,0.01 -0.03,0.01 -0.04,0.01 -0.03,0 -0.04,0.01 -0.03,0 c -0.33,0 -0.53,-0.25 -0.53,-0.53 0,-0.27 0.2,-0.53 0.53,-0.53 0.12,0 0.25,0.04 0.35,0.13 0.03,0.02 0.04,0.03 0.05,0.03 0.01,0 0.02,-0.01 0.02,-0.14 0,-0.74 -0.35,-1.34 -0.68,-1.66 -0.11,-0.11 -0.11,-0.13 -0.11,-0.16 0,-0.07 0.05,-0.11 0.1,-0.11 0.11,0 0.9,0.76 0.9,1.93 z"
         id="path5848" /><path
         style="fill:#000000;stroke-width:0"
         inkscape:connector-curvature="0"
         d="m 242.32,711.41 0,0 0,0 0,0.01 0,0 0,0.01 0,0 0,0 0,0.01 0,0 -0.01,0.01 0,0 0,0.01 0,0 0,0 -0.01,0.01 0,0 0,0 -0.01,0.01 0,0 0,0 -0.01,0.01 0,0 -0.01,0 0,0.01 -0.01,0 0,0 -0.01,0 0,0 -0.01,0 0,0.01 -0.01,0 0,0 -0.01,0 c -0.11,0 -0.5,-0.4 -0.67,-0.69 -0.22,0.54 -0.61,0.7 -0.93,0.7 v -0.22 c 0.65,0 0.79,-0.81 0.79,-0.88 0,-0.06 -0.55,-2.23 -0.58,-2.27 -0.15,-0.28 -0.71,-0.92 -1.26,-0.92 h 0 c -0.6,0 -0.64,0.77 -0.64,0.94 0,0.48 0.29,1.56 0.46,1.98 0.31,0.73 0.82,1.15 1.23,1.15 v 0.22 c -1.17,0 -2.4,-1.47 -2.4,-2.92 0,-0.97 0.59,-1.58 1.32,-1.58 0.42,0 0.81,0.23 1.17,0.59 -0.09,-0.35 -0.42,-1.69 -0.45,-1.78 -0.08,-0.28 -0.16,-0.31 -0.71,-0.32 -0.13,0 -0.23,0 -0.23,-0.2 0,-0.01 0,-0.11 0.13,-0.11 0.32,0 0.67,0.03 0.99,0.03 0.34,0 0.7,-0.03 1.03,-0.03 0.05,0 0.18,0 0.18,0.2 0,0.11 -0.1,0.11 -0.26,0.11 -0.48,0 -0.48,0.07 -0.48,0.15 0,0.07 0.02,0.13 0.04,0.22 z"
         id="path5850" /><path
         style="fill:#000000;stroke-width:0"
         inkscape:connector-curvature="0"
         d="m 244.78,705.96 0,-0.03 -0.01,-0.04 0,-0.04 -0.01,-0.05 -0.01,-0.04 -0.01,-0.04 -0.01,-0.04 -0.01,-0.05 -0.02,-0.04 -0.02,-0.05 -0.02,-0.04 -0.02,-0.04 -0.03,-0.05 -0.03,-0.04 -0.03,-0.04 -0.04,-0.04 -0.04,-0.04 -0.04,-0.04 -0.05,-0.04 -0.05,-0.04 -0.05,-0.03 -0.06,-0.03 -0.06,-0.03 -0.06,-0.03 -0.07,-0.03 -0.07,-0.03 -0.08,-0.02 -0.08,-0.02 -0.04,-0.01 -0.04,-0.01 -0.05,0 -0.04,-0.01 -0.05,-0.01 -0.05,0 -0.05,-0.01 -0.05,0 c -0.05,-0.01 -0.09,-0.05 -0.09,-0.11 0,-0.11 0.11,-0.11 0.2,-0.11 0.97,0 1.89,0.49 1.9,1.24 v 2.27 c 0,0.39 0,0.7 0.4,1.03 0.35,0.29 0.73,0.31 0.95,0.32 0.05,0.01 0.09,0.05 0.09,0.11 0,0.1 -0.06,0.1 -0.16,0.11 -0.66,0.04 -1.14,0.39 -1.25,0.88 -0.03,0.11 -0.03,0.13 -0.03,0.49 v 1.96 c 0,0.42 0,0.74 -0.48,1.12 -0.39,0.31 -1.08,0.41 -1.42,0.41 -0.09,0 -0.2,0 -0.2,-0.11 0,-0.1 0.06,-0.1 0.16,-0.11 0.63,-0.04 1.12,-0.36 1.25,-0.87 0.03,-0.09 0.03,-0.11 0.03,-0.46 v -2.09 c 0,-0.46 0.08,-0.63 0.39,-0.94 0.21,-0.21 0.5,-0.31 0.78,-0.39 -0.82,-0.23 -1.17,-0.69 -1.17,-1.26 z"
         id="path5852" /></g>    <g
       ns0:preamble=""
       ns0:text="$\\{p,\\circ\\}$"
       word-spacing="normal"
       letter-spacing="normal"
       font-size-adjust="none"
       font-stretch="normal"
       font-weight="normal"
       font-variant="normal"
       font-style="normal"
       stroke-miterlimit="10.433"
       xml:space="preserve"
       transform="matrix(1,0,0,-1,125.01658,765.9226)"
       id="g5924"
       style="font-style:normal;font-variant:normal;font-weight:normal;font-stretch:normal;letter-spacing:normal;word-spacing:normal;text-anchor:start;fill:none;stroke:#000000;stroke-linecap:butt;stroke-linejoin:miter;stroke-miterlimit:10.43299961;stroke-opacity:1;stroke-dasharray:none;stroke-dashoffset:0"><path
         id="path5926"
         d="m 226.25,713.25 0,0.04 0,0.04 0.01,0.04 0,0.04 0.01,0.04 0.01,0.05 0.01,0.04 0.02,0.04 0.01,0.05 0.02,0.04 0.02,0.05 0.03,0.04 0.02,0.04 0.03,0.04 0.04,0.05 0.03,0.04 0.04,0.04 0.04,0.04 0.05,0.04 0.05,0.03 0.05,0.04 0.06,0.03 0.06,0.03 0.06,0.03 0.07,0.03 0.07,0.02 0.08,0.03 0.08,0.02 0.04,0 0.05,0.01 0.04,0.01 0.05,0.01 0.04,0 0.05,0.01 0.05,0 0.05,0.01 c 0.05,0.01 0.09,0.05 0.09,0.11 0,0.11 -0.08,0.11 -0.19,0.11 -0.99,0 -1.9,-0.51 -1.91,-1.25 v -2.26 c 0,-0.39 0,-0.71 -0.4,-1.03 -0.34,-0.29 -0.72,-0.31 -0.94,-0.32 -0.05,-0.01 -0.09,-0.05 -0.09,-0.11 0,-0.1 0.06,-0.1 0.16,-0.11 0.65,-0.04 1.13,-0.4 1.24,-0.89 0.03,-0.1 0.03,-0.12 0.03,-0.48 v -1.97 c 0,-0.42 0,-0.73 0.48,-1.11 0.39,-0.3 1.04,-0.41 1.43,-0.41 0.11,0 0.19,0 0.19,0.11 0,0.1 -0.06,0.1 -0.16,0.11 -0.63,0.04 -1.11,0.36 -1.24,0.86 -0.03,0.09 -0.03,0.11 -0.03,0.47 v 2.09 c 0,0.45 -0.08,0.62 -0.4,0.94 -0.21,0.21 -0.5,0.31 -0.78,0.39 0.82,0.23 1.18,0.68 1.18,1.26 z"
         inkscape:connector-curvature="0"
         style="fill:#000000;stroke-width:0" /><path
         id="path5928"
         d="m 228.86,705.91 -0.01,-0.03 0,-0.03 -0.01,-0.03 -0.01,-0.02 0,-0.03 -0.01,-0.02 -0.01,-0.02 -0.01,-0.02 0,-0.02 -0.01,-0.02 -0.01,-0.02 -0.01,-0.01 -0.01,-0.02 -0.01,-0.01 -0.01,-0.02 -0.01,-0.01 -0.02,-0.01 -0.01,-0.01 -0.02,-0.01 -0.02,0 -0.01,-0.01 -0.02,-0.01 -0.03,0 -0.02,-0.01 -0.02,0 -0.03,-0.01 -0.02,0 -0.01,0 -0.02,0 -0.01,0 -0.02,0 -0.01,0 -0.02,0 -0.02,0 -0.02,0 -0.02,0 -0.02,0 -0.02,0 c -0.12,0 -0.22,0 -0.22,-0.19 0,-0.08 0.04,-0.12 0.12,-0.12 0.27,0 0.56,0.03 0.84,0.03 0.33,0 0.67,-0.03 0.98,-0.03 0.05,0 0.18,0 0.18,0.2 0,0.11 -0.1,0.11 -0.23,0.11 -0.5,0 -0.5,0.07 -0.5,0.15 0,0.12 0.41,1.74 0.49,1.99 0.12,-0.29 0.4,-0.63 0.91,-0.63 l -0.01,0.21 c -0.66,0 -0.79,0.83 -0.79,0.89 0,0.02 0,0.04 0.03,0.16 l 0.49,1.94 c 0.07,0.27 0.34,0.55 0.52,0.7 0.35,0.31 0.64,0.38 0.8,0.38 0.4,0 0.64,-0.35 0.64,-0.94 0,-0.58 -0.33,-1.72 -0.51,-2.1 -0.33,-0.7 -0.81,-1.03 -1.18,-1.03 l 0.01,-0.21 c 1.15,0 2.4,1.45 2.4,2.91 0,0.93 -0.57,1.59 -1.33,1.59 -0.49,0 -0.97,-0.36 -1.3,-0.75 -0.1,0.54 -0.53,0.75 -0.89,0.75 -0.46,0 -0.65,-0.39 -0.74,-0.57 -0.18,-0.34 -0.31,-0.93 -0.31,-0.96 0,-0.1 0.1,-0.1 0.12,-0.1 0.1,0 0.11,0.01 0.17,0.22 0.17,0.71 0.37,1.19 0.73,1.19 0.16,0 0.3,-0.08 0.3,-0.46 0,-0.23 -0.03,-0.34 -0.06,-0.51 z"
         inkscape:connector-curvature="0"
         style="fill:#000000;stroke-width:0" /><path
         id="path5930"
         d="m 235.45,707.14 -0.01,0.06 0,0.05 0,0.06 -0.01,0.06 0,0.05 -0.01,0.05 -0.01,0.06 -0.01,0.04 -0.01,0.05 -0.01,0.05 -0.02,0.04 -0.01,0.04 -0.02,0.04 -0.02,0.04 -0.02,0.04 -0.02,0.03 -0.02,0.04 -0.02,0.03 -0.03,0.02 -0.02,0.03 -0.03,0.03 -0.02,0.02 -0.03,0.02 -0.03,0.02 -0.03,0.01 -0.03,0.02 -0.03,0.01 -0.03,0.01 -0.04,0.01 -0.03,0 -0.04,0.01 -0.03,0 c -0.33,0 -0.53,-0.25 -0.53,-0.53 0,-0.27 0.2,-0.53 0.53,-0.53 0.12,0 0.25,0.04 0.35,0.13 0.03,0.02 0.04,0.03 0.05,0.03 0.01,0 0.02,-0.01 0.02,-0.14 0,-0.74 -0.35,-1.34 -0.68,-1.66 -0.11,-0.11 -0.11,-0.13 -0.11,-0.16 0,-0.07 0.05,-0.11 0.1,-0.11 0.11,0 0.91,0.76 0.91,1.93 z"
         inkscape:connector-curvature="0"
         style="fill:#000000;stroke-width:0" /><path
         id="path5932"
         d="m 242.27,709.61 0,0.1 -0.01,0.09 -0.01,0.1 -0.02,0.1 -0.02,0.09 -0.03,0.09 -0.03,0.09 -0.03,0.09 -0.04,0.08 -0.05,0.09 -0.04,0.08 -0.05,0.08 -0.06,0.07 -0.06,0.07 -0.06,0.07 -0.06,0.07 -0.07,0.06 -0.07,0.07 -0.07,0.05 -0.08,0.06 -0.08,0.05 -0.08,0.04 -0.08,0.05 -0.09,0.03 -0.08,0.04 -0.09,0.03 -0.09,0.03 -0.1,0.02 -0.09,0.01 -0.1,0.02 -0.09,0 -0.1,0.01 c -1.07,0 -1.94,-0.89 -1.94,-1.93 0,-1.06 0.87,-1.93 1.94,-1.93 v 0.4 c -0.86,0 -1.54,0.69 -1.54,1.53 0,0.83 0.69,1.53 1.54,1.53 0.83,0 1.53,-0.68 1.53,-1.53 0,-0.86 -0.7,-1.53 -1.53,-1.53 h 0 v -0.4 c 1.05,0 1.93,0.87 1.93,1.93 z"
         inkscape:connector-curvature="0"
         style="fill:#000000;stroke-width:0" /><path
         id="path5934"
         d="m 244.98,705.96 0,-0.03 0,-0.04 0,-0.04 -0.01,-0.05 -0.01,-0.04 -0.01,-0.04 -0.01,-0.04 -0.01,-0.05 -0.02,-0.04 -0.02,-0.05 -0.02,-0.04 -0.02,-0.04 -0.03,-0.05 -0.03,-0.04 -0.03,-0.04 -0.04,-0.04 -0.04,-0.04 -0.04,-0.04 -0.05,-0.04 -0.05,-0.04 -0.05,-0.03 -0.06,-0.03 -0.06,-0.03 -0.06,-0.03 -0.07,-0.03 -0.07,-0.03 -0.08,-0.02 -0.08,-0.02 -0.04,-0.01 -0.05,-0.01 -0.04,0 -0.05,-0.01 -0.04,-0.01 -0.05,0 -0.05,-0.01 -0.05,0 c -0.05,-0.01 -0.09,-0.05 -0.09,-0.11 0,-0.11 0.11,-0.11 0.2,-0.11 0.97,0 1.89,0.49 1.9,1.24 v 2.27 c 0,0.39 0,0.7 0.4,1.03 0.35,0.29 0.72,0.31 0.94,0.32 0.05,0.01 0.09,0.05 0.09,0.11 0,0.1 -0.06,0.1 -0.16,0.11 -0.65,0.04 -1.13,0.39 -1.24,0.88 -0.03,0.11 -0.03,0.13 -0.03,0.49 v 1.96 c 0,0.42 0,0.74 -0.48,1.12 -0.4,0.31 -1.08,0.41 -1.42,0.41 -0.09,0 -0.2,0 -0.2,-0.11 0,-0.1 0.06,-0.1 0.16,-0.11 0.63,-0.04 1.11,-0.36 1.25,-0.87 0.02,-0.09 0.02,-0.11 0.02,-0.46 v -2.09 c 0,-0.46 0.08,-0.63 0.4,-0.94 0.21,-0.21 0.5,-0.31 0.78,-0.39 -0.82,-0.23 -1.18,-0.69 -1.18,-1.26 z"
         inkscape:connector-curvature="0"
         style="fill:#000000;stroke-width:0" /></g>    <text
       xml:space="preserve"
       style="font-size:40px;font-style:normal;font-weight:normal;line-height:125%;letter-spacing:0px;word-spacing:0px;fill:#000000;fill-opacity:1;stroke:none;font-family:Sans"
       x="116.24802"
       y="44.987556"
       id="text5976"
       sodipodi:linespacing="125%"><tspan
         sodipodi:role="line"
         id="tspan5978"
         x="116.24802"
         y="44.987556"
         style="font-size:12px">linearization</tspan></text>
    <path
       style="fill:none;stroke:#000000;stroke-width:2.4000001;stroke-linecap:butt;stroke-linejoin:miter;stroke-miterlimit:4;stroke-opacity:1;stroke-dasharray:none"
       d="m 224.00133,61.655073 0,8.08122"
       id="path5980"
       inkscape:connector-curvature="0" />
    <path
       style="fill:none;stroke:#000000;stroke-width:2.4000001;stroke-linecap:butt;stroke-linejoin:miter;stroke-miterlimit:4;stroke-opacity:1;stroke-dasharray:none"
       d="m 359.95628,61.718206 0,8.08122"
       id="path5980-8"
       inkscape:connector-curvature="0" />
    <text
       xml:space="preserve"
       style="font-size:40px;font-style:normal;font-weight:normal;line-height:125%;letter-spacing:0px;word-spacing:0px;fill:#000000;fill-opacity:1;stroke:none;font-family:Sans"
       x="113.5009"
       y="93.074875"
       id="text5976-5"
       sodipodi:linespacing="125%"><tspan
         sodipodi:role="line"
         id="tspan5978-3"
         x="113.5009"
         y="93.074875"
         style="font-size:12px">circualization</tspan></text>
  </g>
</svg>
